<svg data-name="Layer 1" viewBox="0 0 1000 1000" xmlns="http://www.w3.org/2000/svg">
    <path d="M136.07 258.22c-.09 14.43-2.69 29.65-11.52 40.52-9.48 11.67-24.79 14.8-36.5 5.36-14.64-11.79-29.05-24.72-48.81-18.36-6.66 2.14-12.71 7.73-14 15.07a23.18 23.18 0 0 1 22.09 2.43c-7.92 2.75-13.74 11.37-13.7 20.32 5.08-6.06 14-6.42 21.19-3.9S68.32 327 75.35 330c17 7.37 37.74 3.25 51.14-10.15 10.58-10.58 16.19-25.55 21.48-40"
          fill="#1a1c3f" class="fill-1a1c3f"></path>
    <path d="M134.44 258.22c-.43 14.72-3.1 31.81-14.7 42.16-5.21 4.66-12.26 7.43-19.29 6.32s-12.12-6.34-17.51-10.7c-9.53-7.73-20-15-32.76-15.34-12.55-.29-25.35 6.35-28.32 19.25-.53 2.32 1.64 5.26 4.24 4.25a20.79 20.79 0 0 1 19.53 1.92l.78-6c-9.77 3.92-15.69 13-16 23.46a3.22 3.22 0 0 0 5.44 2.25c10.57-11.43 26.05 1.41 36.43 6.28a49.51 49.51 0 0 0 32.95 3.23c26.41-6.5 37.23-31.3 45.77-54.59 1.38-3.78-4.64-5.4-6-1.66-4.64 12.67-9.41 26-18.5 36.29a44.73 44.73 0 0 1-32.09 15.14 41.93 41.93 0 0 1-16.83-2.93c-6.33-2.55-11.9-6.65-18.12-9.43-9.27-4.14-20.68-4.82-28.1 3.18l5.44 2.26c.24-7.39 4.29-14.45 11.38-17.17a3.31 3.31 0 0 0 .78-6 27 27 0 0 0-24.65-2.94l4.24 4.24c3.79-16.6 24.46-16.28 36.63-10 6.37 3.29 12.07 7.66 17.7 12.07 5 3.88 9.75 7.29 16.13 8.26 12 1.83 22.93-5 29.41-14.66 7.62-11.43 9.36-25.76 9.31-39.18a1.63 1.63 0 0 0-3.25 0Z"
          fill="#1a1c3f" class="fill-1a1c3f"></path>
    <path d="M106.46 34.9 29.64 140.32c-2.22 3.05-4.54 6.39-4.45 10.16.08 3.59 2.35 6.72 4.51 9.59L133 296.75c1.27 1.69 2.79 3.52 4.89 3.74 3 .32 5.14-2.65 6.59-5.26 15.92-28.6 27.41-59.41 38.85-90.08l21.82-58.54c1.54-4.14 3.1-8.63 1.88-12.88a20.81 20.81 0 0 0-2.92-5.58q-30.48-46-64.93-89.1c-6.23-7.81-19.42-24.89-32.67-4.15"
          fill="#fca9a9" class="fill-acfddf"></path>
    <path d="M119.17 30.85c1.47 70.61 4 141.3 10.81 211.62q1.43 14.72 3.14 29.39c1.13 9.59 1.83 19.49 3.93 28.92.52 2.37 4.41 1.88 4.27-.58-.51-8.8-2.17-17.62-3.23-26.39q-1.53-12.71-2.85-25.46-2.73-26.46-4.64-53c-2.54-34.76-4.25-69.56-5.6-104.35q-1.18-30.06-2.57-60.12c-.09-2.08-3.3-2.1-3.25 0Z"
          fill="#3d76bf" class="fill-3fc091"></path>
    <path d="M27.11 153.21A1470.72 1470.72 0 0 0 207.64 138c3-.43 1.72-5-1.25-4.54a1616.23 1616.23 0 0 1-179.28 16c-2.37.08-2.39 3.74 0 3.69Z"
          fill="#3d76bf" class="fill-3fc091"></path>
    <path d="M242.48 525.63a56.6 56.6 0 0 1-17.1-31.72 12.68 12.68 0 0 1 .23-6.81c.85-2.14 3.09-3.89 5.34-3.44 2.61.51 3.89 3.41 4.76 5.93l2 5.86a73.76 73.76 0 0 1-2.47-11.34c-.25-2.25-.25-4.68 1-6.57s4.13-2.84 5.84-1.37a6.13 6.13 0 0 1 1.52 2.58l3.85 9.92c-.84-4.27-1.67-8.69-.69-12.93a8.61 8.61 0 0 1 2.37-4.49 4.59 4.59 0 0 1 4.78-1c2.84 1.28 2.82 5.19 3.32 8.27 1.07 6.57 6.25 11.63 8.9 17.73 2.58 5.93 2.68 12.69 1.57 19.06-.52 3-1.51 6.29-4.12 7.9"
          fill="#fca9a9" class="fill-acfddf"></path>
    <path d="M243.84 524.27c-5.09-6.18-9.78-12.88-12.7-20.39a49 49 0 0 1-2.94-10.74l-.24-2.68q4.26-4.59 5.08-.14c.76 1.92 1.41 3.89 2.11 5.83 1.15 3.18 6.11 1.93 5.14-1.41s-3.75-9.79-2.55-13.37c2.35-7 3.93-.27 4.58 1.4.86 2.2 1.69 4.41 2.54 6.62A2.68 2.68 0 0 0 250 488c-.62-3.31-1.26-6.65-.81-10a8.38 8.38 0 0 1 .78-3.25l3.69-.2c.45.48.39 2.26.48 2.87a31.25 31.25 0 0 0 4.34 11.73c2.78 4.62 5.62 8.87 6.39 14.34.62 4.4 1.05 13.73-3.08 16.79a3.47 3.47 0 1 0 4.21 5.42c6.27-5 6.15-16 5.06-23.11-1.45-9.46-9.25-15.73-11.07-24.82-1.07-5.37-3.09-13.2-10.57-9.95-7.94 3.45-5.88 15-4.6 21.57L250 488c-2.09-5.36-4.6-18.47-13.11-14.34-7.89 3.82-3.31 16.5-1.77 22.53l5.14-1.41c-1.51-4.65-2.8-12.54-8.57-13.88-6.35-1.47-9.75 5.19-9.57 10.47.47 13.61 8.68 27.9 19.36 36 1.87 1.4 3.6-1.47 2.33-3Z"
          fill="#1a1c3f" class="fill-1a1c3f"></path>
    <path d="M268.22 525.73c3-3.55 6.12-7.16 8.09-11.41s2.73-9.27 1-13.61c-1.6-4-5.14-6.93-9.05-8.67a10.93 10.93 0 0 0-5.81-1.13 5.37 5.37 0 0 0-4.51 3.44 5.64 5.64 0 0 0 1 4.78 16.51 16.51 0 0 0 3.7 3.42 16.54 16.54 0 0 0-10 15.63"
          fill="#fca9a9" class="fill-acfddf"></path>
    <path d="M269.4 526.91c5.3-5.28 10.86-10.77 11.76-18.58a17.67 17.67 0 0 0-7.63-16.82c-4.57-3.25-11.87-5.87-16.56-1.34-5.06 4.9-1 11.15 3.43 14.64l.64-5a15.79 15.79 0 0 0-7.61 6.32c-1.79 3.13 2.22 5.87 4.79 3.7 2-1.71 3.63-3.35 6-4.51s1.74-4.22 0-5.51c-2.57-1.91-4.42-6.3.3-5.73a13 13 0 0 1 4.65 2 11.82 11.82 0 0 1 6 9.17c.52 7.18-4.42 14.13-8.4 19.66-1.13 1.56 1.3 3.32 2.61 2Z"
          fill="#1a1c3f" class="fill-1a1c3f"></path>
    <path d="M293.63 681.3c-14.95-4.63-26.75-15.92-38-26.84-10.44-10.18-21.26-21-25.66-34.85-2.74-8.64-2.77-17.86-2.65-26.92s.39-18.31.65-27.46l.48-16.87c.17-5.91.83-12.75 5.76-16 1.18-.78 2.59-1.34 3.35-2.54a10.61 10.61 0 0 0 .92-3.65c.85-4.15 4.71-7.15 8.81-8.24s8.41-.62 12.62-.12c3.54.43 7.29 1 10.06 3.21s3.94 6.85 1.45 9.4c3 0 5.63 2.26 6.93 5s1.53 5.78 1.74 8.77q1.62 23.15 3.25 46.3c.25 3.62.54 7.35 2.19 10.57 2.47 4.81 7.52 7.66 12.42 10a143.31 143.31 0 0 0 22.34 8.28c6.79 1.89 14.15 3.53 18.94 8.71 6.34 6.86 6 17.55 3.64 26.61-1.51 5.94-4 12.1-9.05 15.52"
          fill="#1a1c3f" class="fill-1a1c3f"></path>
    <path d="M294.16 679.38c-16.82-6.67-29.67-20.19-41.87-33.06-5.74-6.05-11.28-12.39-15.2-19.79-4.68-8.83-5.82-18.54-6-28.39-.14-10.31.15-20.64.36-30.95.16-8.41-.95-18.08 1.15-26.27a10 10 0 0 1 3.28-5.7c1.36-1.12 2.89-1.64 4-3.08 2.5-3.2 1.29-7.13 5.12-9.72 4.23-2.86 10.12-2 14.89-1.39 3.42.44 12.7 2.46 8.7 7.73-1.65 2.18.67 4.68 2.81 4.89 7.31.73 5.86 17.1 6.21 22.07l1.74 25.08c.46 6.62 0 14.24 2.68 20.47 2.31 5.42 7.05 9 12.12 11.76a125.42 125.42 0 0 0 19.85 8.35c6.47 2.14 14.16 3.11 19.8 7.17 6 4.34 6.88 11.74 6.07 18.62-.77 6.56-2.66 15-8.24 19.15-4.43 3.32-.09 10.89 4.4 7.53 11.32-8.47 15.77-27.75 10.9-40.89-5.84-15.74-25-16.72-38.69-21.68-7.94-2.9-19-6.12-21-15.52-1.94-9.11-1.58-19.2-2.24-28.47-.64-9-.81-18.11-2-27-.91-6.7-4.38-12.41-11.55-13.12l2.8 4.89c3.73-4.92 1.11-11.76-3.86-14.7-6.19-3.66-17.16-4.42-23.94-2.56a16.89 16.89 0 0 0-8.51 5.31c-2.52 3-2.38 6.85-5.38 9.38-5.56 4.68-7 10.39-7.42 17.51-.55 10-.75 20-1.1 30s-1 20.2-.23 30.21c1.45 18 11 31.62 23.64 43.93 13.13 12.81 27.37 27.31 45.64 32.08 2.54.66 3.39-2.92 1.06-3.84Z"
          fill="#1a1c3f" class="fill-1a1c3f"></path>
    <path d="M415.35 653.9c-32-31.71-52.81-32.94-83.44-29.44-11.46 1.3-23.38 4.68-31.18 13.18-4.46 4.86-7.22 11-9.36 17.28a114.81 114.81 0 0 0-6 43.74c.24 4.27.71 8.69-.73 12.71-1 2.82-2.89 5.26-3.8 8.11-1.7 5.36.43 11.38 4.15 15.61s8.8 7 13.89 9.38c25.94 12.31 55.21 18.13 83.73 14.74 7.75-.92 16.71-3.56 19.32-10.92 1.21-3.43.72-7.21 1.38-10.78a30.7 30.7 0 0 1 3.53-8.84c7.66-14.14 18.86-26 19.66-42.84 1.17-24.62-19.37-52-43.19-58.26"
          fill="#1a1c3f" class="fill-1a1c3f"></path>
    <path d="M416.53 652.73c-11.52-12.27-24.19-23.35-40.32-28.94-13.18-4.56-27.25-4.48-41-3.13-17 1.67-34.11 6.44-42.84 22.52-9.55 17.59-11.52 38.63-10.34 58.24.36 6-1.2 9.68-3.53 15a17.68 17.68 0 0 0-1 11.43c2.07 8.52 9.25 14.12 16.66 18a161 161 0 0 0 56.26 16.77 141.81 141.81 0 0 0 30.41.13c7-.74 14.61-2.06 20-7 7-6.39 4.21-16.15 8.17-24s9.3-14.82 13.52-22.47c9-16.36 9.26-33.85.94-50.58-7.89-15.86-22-29.21-39.42-33.69-3.3-.86-4.67 4.12-1.41 5.1 26.84 8.08 48.46 40.94 37.69 68.41-5.33 13.61-18.51 25.12-20.44 39.89-.52 4 0 8.5-2.87 11.76-2.51 2.8-6.43 4.09-10 4.92-7.75 1.81-16.14 1.89-24.06 1.7a154.36 154.36 0 0 1-52.46-10.89c-7.85-3.07-17.52-6.56-23.15-13.16-2.83-3.33-4.67-8.06-3.29-12.39 1.19-3.76 3.77-6.76 4.55-10.72 1.66-8.29-.14-17.32.57-25.78a117 117 0 0 1 5.49-27.08c2.69-8.12 6.53-16.11 13.8-21.07 6.59-4.49 14.53-6.56 22.35-7.65 13.27-1.85 27.24-2.92 40.34.53 16.41 4.32 30.67 15.31 43 26.49a1.66 1.66 0 0 0 2.35-2.35Z"
          fill="#1a1c3f" class="fill-1a1c3f"></path>
    <path d="M329.09 765.63c-3.11-10.83-10.8-19.9-19.82-26.65s-19.41-11.42-29.74-15.93c-11.44-5-23-9.88-34.83-13.77-14.1-4.62-29.62-7.78-43.58-2.76-12 4.31-21.31 14.33-26.92 25.76s-7.84 24.24-8.87 36.93c-.91 11.31-.9 22.92 2.55 33.72s10.76 20.82 21.17 25.34c7.74 3.37 16.5 3.48 24.9 2.63a116.42 116.42 0 0 0 38.27-10.77 13 13 0 0 0 4.1-2.69c2.83-3.09 2.28-7.89 1.48-12q-2.48-12.86-5.74-25.54c-1.77-6.88-3.8-13.91-8.15-19.53-3.84-5-9.43-8.75-11.74-14.58 5.81 5.25 11.71 10.63 15.52 17.47 2.74 4.94 4.27 10.44 6 15.82a197.25 197.25 0 0 0 17.09 38.27"
          fill="#3d76bf" class="fill-3fc091"></path>
    <path d="M330.87 765.14c-8.25-30.89-42.59-43.4-69.19-54.26-15.15-6.19-31.88-12.39-48.53-11.32-14.79 1-27.45 8.33-36.39 20-9.73 12.74-13.67 28.51-15.4 44.19s-1.94 32.35 4.84 47c6 12.82 17.17 22.45 31.4 24.33 15.65 2.07 32.75-2.18 47.19-8 6.53-2.65 15.14-5.07 16.66-12.95 1.48-7.62-1.9-16.78-3.62-24.13-2-8.6-3.83-17.65-7.81-25.61a38.54 38.54 0 0 0-6.31-8.9c-3-3.25-6.8-6.28-8.45-10.49l-5.35 3.11c4.72 4.72 9.88 9.12 13.52 14.8s5.34 12.44 7.47 18.89a201.28 201.28 0 0 0 16.86 37.39c2.27 3.92 8.34.38 6.08-3.56A214.61 214.61 0 0 1 256 774.92c-2-6.21-4.23-12.28-8.1-17.6a76.35 76.35 0 0 0-13.5-13.8 3.21 3.21 0 0 0-5 3.88c2.62 5.15 6.66 8.68 10.44 12.93 4.76 5.37 6.94 12 8.73 18.82 1.72 6.56 3.21 13.19 4.59 19.83.6 2.88 1.32 5.81 1.71 8.73.2 1.57.55 3.71.06 5.27-.91 2.89-3.53 3.87-6.06 5a102.24 102.24 0 0 1-41.7 9.18c-13.26 0-24.52-5.31-31.27-17s-7.18-26-6.22-39.21c1-13.91 3.45-28.29 10.61-40.47 6.53-11.1 17-19.72 30-21.61 14.3-2.08 28.85 2.87 42.1 7.69 15 5.47 30.42 11.36 44.59 18.82 13 6.84 25.34 16.41 30.35 30.69.77 2.22 4.18 1.35 3.56-1Z"
          fill="#1a1c3f" class="fill-1a1c3f"></path>
    <path d="m368.12 539.85-26.32 9.46a8.61 8.61 0 0 0-2.83 1.44c-1.39 1.24-1.81 3.2-2.34 5-2.25 7.5-9.11 12-13.57 18-4.25 5.75-5.23 13.43-3.39 20.24a24.08 24.08 0 0 0 4.91 9.41c3.06 3.56 7.52 5.33 11.07 8.3 4.76 4 4.54 8.6 3.85 14.35-.34 2.89-.34 6.06 1.4 8.39 3.91 5.19 11.94 5.69 17.87 5.9a68.86 68.86 0 0 0 21.07-2.58c5.48-1.56 12.73-3.78 14.12-10.15 1.3-5.93-3.52-12.34-1.06-17.88 1.67-3.78 6-5.42 9.68-7.29 15.5-7.86 24.83-27.29 19.32-43.79s-31.9-29.3-49.76-19.79"
          fill="#ffffff" class="fill-ffffff"></path>
    <path d="M422.25 559.78c-10.23-11.21-29.72-17.68-43.88-10.15l-4 1-26.37 9.45a8.56 8.56 0 0 0-2.84 1.44c-1.39 1.24-1.81 3.2-2.34 5-2.25 7.5-9.11 12-13.57 18-4.25 5.75-5.23 13.41-3.39 20.22 2.94 2.71 6.69 4.39 9.76 7a11.16 11.16 0 0 1 4.22 9.26c.69.48 1.36 1 2 1.51 4.76 4 4.55 8.6 3.86 14.35-.05.41-.09.83-.13 1.25 4 1.84 9.1 2.12 13.17 2.27a68.86 68.86 0 0 0 21.07-2.58c5.48-1.56 12.73-3.78 14.12-10.15 1.3-5.93-3.52-12.34-1.06-17.88 1.67-3.78 6-5.42 9.68-7.29 15.18-7.73 24.45-26.48 19.7-42.7Z"
          fill="#fca9a9" class="fill-acfddf"></path>
    <path d="M367.63 538.1c-7.91 2.53-15.84 5-23.73 7.59-2.58.85-5.45 1.55-7.34 3.61s-2.22 5.11-3.44 7.67c-2.64 5.58-8 9.34-11.74 14.1a26.15 26.15 0 0 0-5.67 16.17 28.17 28.17 0 0 0 5.29 16.51c3.75 5.18 10.49 6.9 14.16 11.87s.07 11.51 1.58 17.06c1.32 4.82 5.74 7.77 10.28 9.19 11.38 3.55 25.46 1.64 36.54-2 4.55-1.48 9.39-3.6 12-7.88 2.9-4.85 1.42-9.88.34-15-.85-4.07-.38-7 3.33-9.31 2.55-1.6 5.42-2.64 8-4.26a42.48 42.48 0 0 0 11.55-11c6.33-8.75 9.34-20 7.25-30.67-4.49-23-35.14-35.55-55.3-25.52-3.46 1.73-.42 6.94 3 5.2 15.83-8 40.71 1.85 45.67 19.31 2.65 9.35.13 19.52-5.25 27.41a35.45 35.45 0 0 1-10.68 10.23c-3.74 2.28-8.16 3.61-11.23 6.88-2.73 2.91-3.41 6.75-2.86 10.58.74 5.26 3.95 11.2-1.26 15.13-3.47 2.62-8.31 3.68-12.48 4.64a67.43 67.43 0 0 1-19.27 1.48c-4.35-.26-10.61-.76-13-5s.3-10.09-.7-14.75c-2.17-10.11-14.49-11.75-18.67-20.66a21.75 21.75 0 0 1 .48-19.54c2.7-4.79 7.28-8.26 10.61-12.59a26.4 26.4 0 0 0 3.73-6.39c1.65-4.21 3.41-6 7.52-7.67q11.18-4.46 22.33-8.94c2.1-.84 1.3-4.21-1-3.49Z"
          fill="#1a1c3f" class="fill-1a1c3f"></path>
    <path d="M360.39 554.26a2.21 2.21 0 0 0 0 .37c0 .32.05.36 0 .12s0-.2 0 0v.12s.05-.57 0-.13c0 .1 0 .08.05-.09s.08-.18 0 0 .09-.11.13-.14-.37.33 0 .08c.15-.11.17-.13 0 0l.35-.16a1.86 1.86 0 0 1 2.18 1.33 2.31 2.31 0 0 0-3.13-1.5 2.22 2.22 0 0 0-1.23 1.23 2.44 2.44 0 0 0 .12 2.06 2.6 2.6 0 0 0 2.47 1.36 3.28 3.28 0 0 0 2.53-1.5c.84-1.19 1.07-3.39-.12-4.45a2 2 0 0 0-2.18-.41 2 2 0 0 0-1.22 1.82ZM365.58 546.93a3.35 3.35 0 0 1 3 2.55c.65 2.55 4.82 1.34 3.91-1.08a7.13 7.13 0 0 0-6.95-4.8 1.67 1.67 0 0 0 0 3.33ZM344.87 572.51l11.27 1.74a3 3 0 0 1 1.9.79 2.71 2.71 0 0 1 .31 2.17 15.49 15.49 0 0 1-3.45 7.42c-1.64 1.93-3.95 3.51-6.48 3.47a6.2 6.2 0 0 1-5.87-5.93 10.94 10.94 0 0 1 .86-3.8q.81-2.22 1.77-4.38"
          fill="#1a1c3f" class="fill-1a1c3f"></path>
    <path d="m344.41 574.18 9.46 1.91c.47.1 1.65.11 2 .42.55.48 0-.55 0 .54-.05 1.51-1.2 3.37-2.05 4.56-1.42 2-4.59 4.83-7.1 2.89-3-2.31-.68-6.7.45-9.35s-2.74-5-3.94-2.31c-2.07 4.67-5.32 10.28-1.44 14.89 3.56 4.23 9.39 4.07 13.42.58 3.24-2.8 7.19-9.41 5.23-13.82-.89-2-2.9-2.33-4.84-2.56-3.57-.42-7.14-.77-10.71-1.16-1.94-.21-2.37 3-.46 3.41Z"
          fill="#1a1c3f" class="fill-1a1c3f"></path>
    <path d="M385.38 578.82a42.08 42.08 0 0 1 7.91-31.2 35.69 35.69 0 0 1-6.57-13.2c-5.23.28-10 2.92-15 4.54a39.66 39.66 0 0 1-12.51 2c-2 0-4.11-.23-5.55-1.58a6.19 6.19 0 0 1-1.74-3.81c-.65-5 2.6-9.94 7-12.45s9.66-3 14.7-2.57a6.13 6.13 0 0 1-5.44-4.78 9.19 9.19 0 0 1 1.74-7.34 11 11 0 0 1 8.14-4.64 9.08 9.08 0 0 1 8.21 4.17c1.11-4.48 7-6.37 11.32-4.8s7.38 5.47 9.89 9.35A101.1 101.1 0 0 1 419 537a8.41 8.41 0 0 1 3.82-4.11c3.68-1.57 7.92 2.07 8.43 6s-1.5 7.8-3.65 11.18a6 6 0 0 0-1 2 5.67 5.67 0 0 0 .19 2.31c2 9.24 4 18.66 3.23 28.09s-4.7 19-12.38 24.57c-9.1 6.55-10.09 6.82-21.28 6.19 2.55-1.14-6.33-3.43-4.44-5.48a22.77 22.77 0 0 1-4.8-4.95c5.94.24 12.14-3.34 13.91-9s-2.08-12.73-8-13.39c-2.85-.32-5.66.74-8.22 2a2.45 2.45 0 0 1 1.2-2.46"
          fill="#3d76bf" class="fill-3fc091"></path>
    <path d="M387.22 578.82c-.67-10.8 1.88-21.11 8.35-29.86a2.52 2.52 0 0 0 0-2.67 38.28 38.28 0 0 1-6.17-12.61 2.79 2.79 0 0 0-2.68-2 34.41 34.41 0 0 0-10.47 3.14 34.31 34.31 0 0 1-14.3 3.31c-3.11 0-7 .87-7.26-4.06-.15-2.69 1.84-5.5 3.77-7.16 4.17-3.58 10-3.79 15.15-3.5 3.17.17 4-5.1.76-5.62-5.52-.9-3.26-7.49 0-9.65 3-2 7-1.67 9.11 1.43a3.24 3.24 0 0 0 5.83-.76c1.31-3.51 6-3.22 8.59-1.75 3.37 1.89 5.57 5.51 7.54 8.71a100.53 100.53 0 0 1 10.12 22.18 3.59 3.59 0 0 0 6.48.85c2.08-3.54 5.63-2 5.48 1.83-.12 2.84-2 5.14-3.33 7.51-1.8 3.28-1.52 5.62-.8 9.21 1.89 9.35 3.83 19 2.1 28.57-2.93 16-17.28 26.22-33.19 25.78l2.52 6.09a4.67 4.67 0 0 0 1.7-4.25c-.07-1-1.44-4.33-1.62-4 .65-1.21.66-3.2-.54-4.15a29.58 29.58 0 0 1-4.88-4.87l-2.34 5.65c9-.21 18.57-6.89 17.25-16.88a14 14 0 0 0-6.36-10.13c-4.76-2.92-10-1.54-14.73.67l4.63 2.66.27-.3c2.95-2.63-1.35-6.85-4.31-4.31a5.92 5.92 0 0 0-2.11 4.61c-.17 2.52 2.68 3.56 4.62 2.65 3-1.38 6.47-2.69 9.3-.34a8.09 8.09 0 0 1 2.72 6.57c-.45 5.51-6.43 8.21-11.28 8.18-2.3 0-4.39 2.91-2.85 5a32.47 32.47 0 0 0 5.22 5.7l-.53-4.15a6 6 0 0 0-.82 4.1c.12.9 1.51 3.05 1.27 3.7l1.63-2.12-.56.42c-2.81 2.09-1.92 6.41 1.8 6.64 11.19.69 20.24-2.38 29-9.45 9.07-7.33 12.91-19.26 13-30.61.06-7-1.21-14-2.66-20.74-.92-4.34-.85-5.16 1-9a19.88 19.88 0 0 0 2.41-8.44c.07-4.83-2.87-9.74-7.61-11.27-5.17-1.66-9.13 1.62-11.56 5.86l6.48.85c-3.71-11.24-9.12-25.29-18.52-33-6.63-5.48-17.74-5.1-20.72 4.1l5.83-.77a13 13 0 0 0-20.33-1.09c-5.32 5.68-4.74 16.61 4.16 18l.76-5.63c-6.72-.36-14 .49-19.18 5.2-4.05 3.67-6.77 9.78-4.8 15.19 2.3 6.33 9.4 6 15 5.67a32 32 0 0 0 10.82-2.42c3.69-1.54 7.18-3.61 11.23-4.08l-2.68-2a42 42 0 0 0 7.38 14.34l-.42-3.21a42.57 42.57 0 0 0-7.4 33c.4 2 3.76 1.59 3.62-.49Z"
          fill="#1a1c3f" class="fill-1a1c3f"></path>
    <path d="M387.64 592.76a13.63 13.63 0 0 0 2.29-.27 2 2 0 0 0 1.29-2.68 1.92 1.92 0 0 0-1.05-1.06 2.13 2.13 0 0 0-1.78.1 11.31 11.31 0 0 0-1.59.81 1.66 1.66 0 0 0 .84 3.1ZM386.65 521.2c-4.2 8-2.63 21.41 4.14 27.77 1.95 1.84 4.53-.46 3.52-2.72-3.17-7.16-7.3-15.83-4.42-23.68.69-1.89-2.31-3.14-3.24-1.37Z"
          fill="#1a1c3f" class="fill-1a1c3f"></path>
    <path d="M369.37 525.09c-5.13 1-14.38 2.18-12.91 9.62.38 1.92 3.68 2 4 0 .71-4.72 5.92-5.36 9.77-6.55a1.59 1.59 0 0 0-.84-3.07ZM378.67 508.15a7.51 7.51 0 0 0-6.95 4.3 2.16 2.16 0 0 0 .75 2.87 2.13 2.13 0 0 0 2.88-.75 5.07 5.07 0 0 1 3.77-3.08c1.92-.36 1.42-3.33-.45-3.34ZM397.83 508.69a6.53 6.53 0 0 0-7.5 2.26 2.1 2.1 0 0 0 .75 2.87 2.14 2.14 0 0 0 2.87-.75 3.34 3.34 0 0 1 3-1.31 1.59 1.59 0 0 0 .84-3.07ZM398.72 527.88c4.65 3.5 9.24 7.61 9.48 13.84.08 2.28 3.82 3.06 4.19.57 1.13-7.62-5.49-14.34-11.91-17.41a1.74 1.74 0 0 0-1.76 3ZM395.85 537.81a38.72 38.72 0 0 1 5.27 7.55 2 2 0 0 0 3.64-1.54 15.21 15.21 0 0 0-6.94-8.56 1.63 1.63 0 0 0-2 2.55ZM396.43 548.79h.37l.53-.22a1.62 1.62 0 0 0 .67-.57 1.16 1.16 0 0 0 .29-.49 1.77 1.77 0 0 0 .19-.85l-.08-.59-.23-.52a1.53 1.53 0 0 0-.56-.62 1.69 1.69 0 0 0-.76-.4l-.37-.16a2.37 2.37 0 0 0-1.24 0 2.31 2.31 0 0 0-1 .6l-.36.47a2.29 2.29 0 0 0-.32 1.17 1.79 1.79 0 0 0 .2.89 1.67 1.67 0 0 0 .48.75 2.29 2.29 0 0 0 1 .59 2.37 2.37 0 0 0 1.24 0ZM425.1 516.21c2.61 0 2.61-4.05 0-4.05s-2.62 4.05 0 4.05Z"
          fill="#fca9a9" class="fill-acfddf"></path>
    <path d="M347.19 585.09a6.24 6.24 0 0 1 5.65-2.09c2.47.49 3.51-3.32 1-3.77a8.63 8.63 0 0 0-9.24 3.89c-1 1.55 1.3 3.36 2.55 2Z"
          fill="#3d76bf" class="fill-3fc091"></path>
    <path d="M454.18 581.29c-1.83 7.05 34.12 42.35 51.84 62.1 1.48 1.66 3.19 3.43 5.14 3.42a5.51 5.51 0 0 0 3-1.17c1.75-1.16 3.56-2.94 3.45-5.43-.11-2.3-1.8-4.11-3.35-5.6C497.07 618 480.15 601 464.6 582.2c-1.67-2-3.47-4.15-5.72-4.78a3.74 3.74 0 0 0-4.7 3.87"
          fill="#1a1c3f" class="fill-1a1c3f"></path>
    <path d="M452.44 580.81c-.58 2.7 1 5.43 2.29 7.68a97.72 97.72 0 0 0 8.7 12c8.87 11 18.8 21.29 28.39 31.71 4.54 4.92 8.93 10.56 14 15s12.33 1.91 14.46-4.37c2.52-7.43-7.3-13.76-11.73-18.08-7-6.87-14-13.84-20.78-21-7.64-8-14.71-16.56-22.16-24.77-2.4-2.64-5.39-5.22-9.2-4.4-3.4.72-4.91 3.49-5.25 6.71-.4 3.85 5.84 3.93 6.1 0 .19-2.89 6.47 4.28 6.55 4.37 1.59 1.92 3.19 3.83 4.82 5.73q4.23 5 8.61 9.79c6.21 6.86 12.61 13.54 19.11 20.12q4.53 4.59 9.12 9.11c2 2 11.85 9.09 7.59 12.33-3.7 2.8-12.83-9.93-15-12.19-9-9.5-18.19-18.78-26.93-28.51-3.7-4.12-7.48-8.22-10.83-12.63-1.27-1.68-4.72-5.35-4.38-7.64s-3-3.29-3.49-1Z"
          fill="#1a1c3f" class="fill-1a1c3f"></path>
    <rect height="62.62" rx="31.31" width="950" x="25" y="912.38" fill="#fca9a9" class="fill-acfddf"></rect>
    <path d="M943.69 971.89H58.44c-15.55 0-29.52-10.37-30.3-26.81-.82-17.36 13.46-29.55 30-29.59h858.6c9 0 18-.17 27 0 14.83.28 27.47 11.75 28.18 26.81.77 16.15-12.25 29.24-28.17 29.59-4 .09-4 6.31 0 6.22a34.4 34.4 0 0 0 20.58-62c-7.31-5.49-15.74-6.86-24.53-6.86H57.97c-16 0-30.64 9.51-34.91 25.49-5.92 22.14 11.36 43 33.73 43.35 11.2.16 22.4 0 33.6 0h853.3c4 .02 4.01-6.2 0-6.2Z"
          fill="#fca9a9" class="fill-acfddf"></path>
    <path d="M336.37 857.77c-12.17-.54-30.2-3.4-40.77 4.06-8.83 6.24-11.81 18-12.67 28.21-.52 6.25.35 12.79 3.6 18.16 8.5 14 29.06 12.22 42.44 7.9 8.19-2.65 14.31-6.45 17.16-15.05 3.1-9.34 1.61-19.8.27-29.32-.7-5-2-10.32-6-13.36"
          fill="#1a1c3f" class="fill-1a1c3f"></path>
    <path d="M336.82 856.13c-13.56-1.86-30.88-5.81-43.1 2.49s-16.61 27.09-14.32 41c2.6 15.75 15.81 23.55 30.92 23.53 12.37 0 29.09-3.61 36.32-14.64 5.35-8.17 5.15-18.91 4-28.22-1-8.17-1.51-18.22-8.3-23.89-2.69-2.25-6.58 1.51-3.9 3.89 6.28 5.59 6 17.5 6.15 25.26.17 8.63-1.21 18.32-9 23.4-10 6.49-27.88 9.1-38.74 3.57-14.58-7.43-11.88-31.46-3.76-42.92 9.35-13.22 29.34-9.62 43.28-10.16 1.81-.07 2.44-3.07.45-3.34Z"
          fill="#1a1c3f" class="fill-1a1c3f"></path>
    <path d="M299 881.34c-.59.41-.05 3.41-.11 4.18s-.51 2.08-.47 3l-.25.88c1 .3 1.44.12 1.28-.52.36-1-.16-2.9-.12-4 .06-1.46.58-2.8.55-4.25 0-2.16-2.9-3.59-4.46-1.85-2.5 2.79-2.29 8.32-1.44 11.81s5 6 7.88 3c2.5-2.57 2.14-8.24 1.46-11.45-.59-2.78-3.54-6.48-6.33-3.45-1.23 1.32.38 3.72 2 2.61Z"
          fill="#82218f" class="fill-22906c"></path>
    <path d="M97.49 853.51c-5.94-12.27-10.44-25.7-17.65-37.31-6.85-11-14.34-20.61-19.13-32.89-1.48-3.77-2.78-7.84-2-11.82 1.89-9.39 13.47-12.61 23-13.81 107.86-13.69 216.39-15.95 325-14.45 7.35.1 16 .9 19.78 6.59 2.62 4 1.74 9 .72 13.5q-6.89 30.58-16.65 60.42c-3.8 11.62-6.71 24.64-14.07 34.67-8.89 12.12-20.61 14.06-34.8 16.7-76.35 14.21-159.82 11.29-236.31-.07-9.41-1.4-20.83-4.87-22.14-13.3"
          fill="#3d76bf" class="fill-3fc091"></path>
    <path d="M99.18 852.52c-5.64-12.94-9.92-26.41-17.24-38.57-6.87-11.42-16.59-23.25-19.34-36.6-2.82-13.7 15.68-15.19 25-16.32q22.55-2.74 45.15-4.87c60.23-5.66 120.71-8.33 181.18-9.1q45.39-.59 90.79.06c5.36.08 12.26-.33 16.77 3.1 5.77 4.38 1.39 14.72 0 20.4q-5.19 21.71-11.84 43c-3.85 12.35-6.86 25.9-13.12 37.3-6 10.92-15.26 16.18-27.06 19-27.08 6.38-55.18 9.12-82.92 10.58a752.33 752.33 0 0 1-97.19-1.43q-24-1.83-47.79-5c-7.3-1-14.82-1.61-22-3.46-5.4-1.39-12-3.65-13.33-9.75-.87-4-7-2.31-6.16 1.7 2.25 10.51 14.51 13.93 23.72 15.43 15 2.44 30.09 4.16 45.17 5.68a806 806 0 0 0 95.14 4.14 679.62 679.62 0 0 0 93.92-8.65c11.58-1.83 24.39-3.24 34-10.66 10.59-8.22 15.3-21.28 19.13-33.66 4.6-14.86 9.38-29.65 13.4-44.69q3.19-11.92 5.94-24c1.31-5.78 2.77-12.18-.31-17.67-6.2-11-22.79-9.24-33.39-9.37q-25.17-.33-50.34-.33c-67.37 0-134.82 2-202 8q-25 2.22-50.01 5.22c-11.27 1.34-25.61 1.37-34.41 9.72-10.04 9.57-3.04 23.65 2.6 33.59 7.44 13 16.73 24.52 23.11 38.17 3.29 7 6.46 14.12 10 21 1.19 2.27 4.36.27 3.38-2Z"
          fill="#1a1c3f" class="fill-1a1c3f"></path>
    <path d="M261 875.11c14.19-2.64 25.91-4.58 34.8-16.7 7.36-10 10.27-23 14.07-34.67q9.75-29.79 16.65-60.42c1-4.51 1.9-9.5-.72-13.5-3.74-5.69-12.43-6.49-19.78-6.59h-3c-74 1.14-147.8 5.16-221.33 14.49-9.5 1.2-21.08 4.42-23 13.81-.8 4 .5 8 2 11.82C65.5 795.59 73 805.19 79.84 816.2c7.21 11.61 11.71 25 17.65 37.31l5.72 8.23c1.31 8.43 12.73 11.9 22.14 13.3 24 3.56 48.61 6.29 73.51 7.92a561.13 561.13 0 0 0 62.14-7.85Z"
          fill="#ffffff" class="fill-ffffff"></path>
    <path d="M261.84 878.1c9.36-1.73 19.23-3.36 27.24-8.86 8.54-5.87 13.62-14.94 17.25-24.42 4.33-11.3 7.62-23.17 11.12-34.75q5.76-19.1 10.37-38.52c2.13-8.94 6.07-20.65-3-27.13-8.13-5.79-20.33-4.38-29.7-4.21q-41.58.76-83.13 2.9t-83 6.17q-20.73 2-41.4 4.55c-8.88 1.09-18.84 1.86-26.08 7.73-8.17 6.63-6.52 16.29-2.84 25 4.77 11.23 12.13 20.9 18.47 31.23 6.6 10.77 10.86 22.66 16.13 34.08a48.42 48.42 0 0 0 4.64 7.73c1.67 2.39 2.3 4.45 3.66 6.91 5 9.07 17.61 10.78 26.81 12.11 14.81 2.14 29.69 4.16 44.63 5.19 29.82 2.05 59.46-.28 88.81-5.69 3.93-.72 2.27-6.71-1.65-6a350.82 350.82 0 0 1-71.73 6.17c-12-.28-23.89-1.29-35.78-2.7-11.35-1.34-23.38-2-34.41-5.2-3.75-1.08-8.4-2.7-10.73-6.08-1.38-2-1.79-4.34-3.22-6.38-4.21-6.08-7.06-12.24-10-19.08a193.13 193.13 0 0 0-15.57-30.1c-6-9.11-12.49-18.28-15.94-28.72-3.8-11.5 4.65-16.44 14.63-18.51 11.68-2.43 23.94-3.14 35.79-4.41q36.45-3.89 73-6.25 37-2.43 74.18-3.56 18.32-.59 36.63-.9c7.81-.13 26.62-2.37 27.34 9.22.37 5.85-2.11 12.37-3.48 18q-2.46 10.14-5.26 20.22c-3.43 12.37-7.43 24.55-11.19 36.83-3.33 10.85-6.81 22.67-15.38 30.65-7.83 7.3-18.8 8.93-28.92 10.81-3.87.71-2.21 6.7 1.71 5.97Z"
          fill="#1a1c3f" class="fill-1a1c3f"></path>
    <path d="M68.17 800.09c41.91-.29 83.8-2.5 125.66-4.45 46.35-2.16 92.7-4.56 139.08-6 9.59-.31 19.19-.57 28.79-.7 8.87-.13 17.74-.2 26.61-.57 9.56-.41 19.56-2.31 29.06-.67 3.47.6 5-4.72 1.47-5.31-7.66-1.31-15.2-.39-22.89.12-8.59.57-17.21.78-25.83.92-9.36.15-18.71.32-28.07.61-21.41.66-42.81 1.61-64.2 2.61-48.36 2.26-96.71 4.88-145.07 7-21.53.94-43.07 2-64.61 2.43-2.61.06-2.62 4.08 0 4.06Z"
          fill="#1a1c3f" class="fill-1a1c3f"></path>
    <path d="m375.57 788.76.43-.15a2.68 2.68 0 0 0 1.87-2.46 3.49 3.49 0 0 0-1.16-3 3.06 3.06 0 0 0-2.95-.78c-7.17 1.76-6.44 14.71.16 16.95 3.72 1.26 7.67-1 9.47-4.23 2.57-4.68.39-9.55-2.31-13.61-1.4-2.11-5.09-3.29-7-.89-3.59 4.6-4.24 9.47-1.68 14.78 1.21 2.51 5.39 3.1 7.19.93 5.87-7.1 10-16.06 14.36-24.09q13.11-23.92 26.07-47.95c18.24-33.79 36-67.82 54.63-101.43 2.8-5.06 5.59-10.15 8.59-15.11.43-.7.87-1.4 1.31-2.09.17-.29 1.25-1.8.58-.89-.53.7 1.47-1.77 1.92-2.3s1.08-1.3 1.63-1.94c1.52-1.74 2.73-1.79-.17-.81l-4.67-1.23-1.35-3.46c.4-3.52.21-1.54-1.1.31-1 1.45-2.08 2.87-3.14 4.28-1.28 1.71-1.72 2.31-2.8 3.64-1.35 1.68-3.26 2.56 0 1.21l3.68.48 2.37 4.13c-.09 2.06-1.13 2.59.16.94.82-1.06 1.48-2.27 2.23-3.38 1.86-2.74 5-6.21 4-9.83-.88-3.42-4.3-4.55-7.44-3.7-1.61.43-5.4 1.79-6 2.5-.07.08-.5.06-.53.15.15-.36 4 5.71 4.51 5.5a7.75 7.75 0 0 0 1-1.75c.52-1.56.59 0-.13-.29.09 0-2.08 0-1.88-.15s.86.7 1.22 1.19a34.3 34.3 0 0 1 2.45 4c3.24 5.92 5.46 12.41 9 18.17 3.3 5.38 10.6 9.29 14.07 1.49 1.35-3 .21-5.68-2.82-6.93s-5.24-.14-7.48 1.91c-2.89 2.65.12 7.82 3.85 6.62l1.31-.15-3.17-1.34.91.83-.74-5.72c-.18.4-.81 1.24-.52 1A7.86 7.86 0 0 1 498 619c.21 0 1.67.28 1.46.37.37-.16.05.48-.29-.37.21.52-.54-.83-.73-1.13a83.33 83.33 0 0 1-4.32-8.54c-2.67-5.73-5.16-12.86-10.05-17.14-5.58-4.89-12.73-.72-14.51 5.82-1 3.65 1.25 7.15 5.17 7.18 2.53 0 5-1.53 7.25-2.53-.13.06.86-.07 1-.36-.35.67-4.06-5-4.53-4.76-1.23.68-2.67 4-3.48 5.19-1.27 1.91-3 4-3.08 6.35a4.78 4.78 0 0 0 2.36 4.13c5.07 3.11 9.59-5.21 12-8.35s8.7-9.42 4.44-13.22a4.82 4.82 0 0 0-4.69-1.24c-4 1.34-7.36 6.86-9.58 10.14s-4.19 6.94-6.17 10.45c-7.94 14-15.57 28.21-23.22 42.38-19.28 35.73-38.24 71.63-57.61 107.3-3.61 6.65-7.36 13.22-11 19.85-1.21 2.21-2.43 4.41-3.7 6.59-.42.71-.86 1.4-1.28 2.11-.27.46-1.5 2.12-.29.57l7.18.92c-1-1.88-.4-3.24.74-4.79h-7.65c.3.43 2.93 4.7 3.06 4.69a27.68 27.68 0 0 1 .69-3.83l-2.62 1.5-1-.33-.39-3.08-.22.43c-.84 1.69.58 4.19 2.66 3.46Z"
          fill="#1a1c3f" class="fill-1a1c3f"></path>
    <path d="M511.55 567.32a100.37 100.37 0 0 0-31.43 7.31c-3.49 1.44-7 3.16-9.51 6a14.69 14.69 0 0 0-1.47 17 4 4 0 0 0 1.31 1.43c1.92 1.11 4.11-.88 5.44-2.65a17.61 17.61 0 0 0-6.95 12 10.14 10.14 0 0 0 1.43 7c1.43 2 4.2 3.14 6.45 2.16 3.27-1.42 3.8-6.13 6.82-8-3.46 3.72-7.19 8.38-5.95 13.31.7 2.75 2.84 4.88 5 6.72a8.65 8.65 0 0 0 3.22 2c1.88.51 3.85-.21 5.67-.91a37.6 37.6 0 0 0 6.15-2.83c1.76-1.09 3.47-2.72 3.58-4.79s-2.33-4.12-4.05-3a11.73 11.73 0 0 0 7.67-4.45c-.07 1.79-1.2 3.34-2 5s-1.28 3.69-.15 5.09 3.08 1.4 4.75 1.05c6.57-1.39 11.28-7.33 13.85-13.54s3.57-13 6-19.22"
          fill="#fca9a9" class="fill-acfddf"></path>
    <path d="M511.55 566.42a99.65 99.65 0 0 0-25.06 4.31c-6.36 2-14.08 4.44-18.09 10.2a16.34 16.34 0 0 0-1.27 16.2c2.45 4.92 6.56 4.26 9.86.32a1.56 1.56 0 0 0-2.21-2.21c-5.59 4.5-10.78 14.65-5.53 21.29a7.21 7.21 0 0 0 8 2.59c3.79-1.43 4.59-6.1 7.55-8.43l-2.29-2.3c-4 4.37-8.42 10-5.93 16.22 1.71 4.25 6.68 9 11.47 8.68 4.5-.31 12.61-3.59 14.43-8.24 1.47-3.76-1.66-7.65-5.62-6.41a1.49 1.49 0 0 0 .79 2.87 14.28 14.28 0 0 0 8.38-4.8l-2.59-1.51c-.67 3.6-5 8-1.85 11.64 2.85 3.29 8.33 1.39 11.42-.41 11.13-6.48 12.46-21 16.88-31.8 1.24-3-3.91-4.57-5-1.37-2.58 7.76-3.21 16.38-7.54 23.47-1.89 3.09-5.16 7-8.94 7.91-3.49.8-4.76-1.72-3.49-4.47a15.86 15.86 0 0 0 1.48-4.14c.23-1.37-1.48-2.8-2.6-1.51a11.88 11.88 0 0 1-7 4.12l.79 2.87.9 3.58-1.66 1.31a27.13 27.13 0 0 1-5 2.35c-3.6 1.46-6 1.44-9.15-1.28-6.25-5.43-2.58-11.73 2-16.78a1.62 1.62 0 0 0-2.29-2.3 13.63 13.63 0 0 0-2.95 3.47 13.93 13.93 0 0 1-1.48 2.4c-2.49 2.47-6.18 1.86-7.37-1.91-1.73-5.5 2.26-11.64 6.29-14.9l-2.21-2.21c-5.64 6.75-6.53-6.12-5.42-9.39 2-5.78 7.61-8.31 12.84-10.42a107.35 107.35 0 0 1 29.35-7.2c1.14-.12 1.18-1.87 0-1.81Z"
          fill="#fca9a9" class="fill-acfddf"></path>
    <path d="M511.55 565.51a96.61 96.61 0 0 0-25.45 3.82c-6.79 2-14.82 4.66-19 10.82a17.89 17.89 0 0 0-1.28 17.76c2.91 5.76 8.38 5.33 12.3.64a3.12 3.12 0 0 0-4.41-4.41c-6.27 5-11.51 16.31-5.56 23.52 2.26 2.74 6.09 4.25 9.55 3 4.28-1.54 5-6.25 8.26-8.83l-4.58-4.58c-4.44 4.84-9 10.93-6.35 17.8 1.89 5 7.55 10.18 13 9.88 5.14-.28 13.68-3.93 15.85-9 2.08-4.92-2.14-10.36-7.44-8.68-3.69 1.16-2.16 6.47 1.59 5.75a15.68 15.68 0 0 0 9.07-5.14l-5.18-3c-.87 4.55-5.45 8.65-1.54 13.24 3.18 3.74 9.2 2.25 12.91.32 11.87-6.2 13.59-20.78 18.55-31.8 3.1-6.88-7.34-11.09-9.43-4-2.26 7.69-2.55 16.18-6.72 23.19-1.52 2.54-4.5 6.59-7.74 7.18-2.62.46-2.24.07-1.65-2 .47-1.61 1.32-2.83 1.6-4.54.44-2.72-3-5.63-5.18-3a10.57 10.57 0 0 1-6.28 3.78L498 623c-.4.12-1.54 1.69-2 2a21.12 21.12 0 0 1-4.57 2.19c-3.11 1.27-4.85 1.51-7.55-.85-5.49-4.82-2-10 2-14.48 2.86-3.16-1.37-7.14-4.58-4.58-2.2 1.75-6.87 11.62-9.11 4.68-1.61-5 2.28-10.48 5.85-13.38l-4.41-4.41c-2 2.41-2.43 1.64-3.15-1.25a11.88 11.88 0 0 1 .32-6.63c1.71-4.88 6.41-7.07 10.83-9a111.19 111.19 0 0 1 29.87-8.17c2.24-.28 2.4-3.68 0-3.62Z"
          fill="#1a1c3f" class="fill-1a1c3f"></path>
    <path d="M879.14 510c3.43-10.93 7-22.2 14.57-30.84 8.84-10.13 22.08-15.4 35.28-18 3.91-.76 8.81-.92 10.94 2.44 2.26 3.56-.5 8.31-4 10.72s-7.73 3.81-10.41 7.06a7.1 7.1 0 0 1 10.15 9.34c4.8.09 7.2 6.25 6.24 11a17.3 17.3 0 0 1-12.7 13.1 4.55 4.55 0 0 1-.48-5.72c-1.64 6.16-6 11.36-11.27 15s-11.35 5.83-17.5 7.55"
          fill="#ffffff" class="fill-ffffff"></path>
    <path d="M925.52 494.08a7.09 7.09 0 0 0-10.14-9.33c2.67-3.26 7-4.65 10.41-7.06s6.22-7.17 4-10.73c-2.14-3.36-7-3.2-10.94-2.44q-2.76.54-5.49 1.24a51.18 51.18 0 0 0-19.61 13.41c-7.53 8.64-11.14 19.91-14.57 30.84l20.72 21.49a43.91 43.91 0 0 0 7.46-4.09 28.44 28.44 0 0 0 10.44-12.61 4.43 4.43 0 0 0 1.26 3.34 16.79 16.79 0 0 0 7.88-4.4 21.12 21.12 0 0 0 1-2.27 4.93 4.93 0 0 0 .09 1.08 16.86 16.86 0 0 0 3.7-7.5c.99-4.71-1.4-10.87-6.21-10.97Z"
          fill="#fca9a9" class="fill-acfddf"></path>
    <path d="M880.57 510.85c3.51-7.36 5.88-15.17 10.12-22.2a46.71 46.71 0 0 1 18.69-17.28c6.71-3.49 15.35-6.72 23-6.84 7.49-.12 3.29 5.91-.59 8.31-3.09 1.92-6.18 3.43-8.7 6.13a3.48 3.48 0 0 0 4.2 5.45c3.14-1.63 6.93.84 5.35 4.55a3.6 3.6 0 0 0 3.05 5.32c4.39.57 2.7 7.8 1.49 10.11a14 14 0 0 1-8.91 7l4.06 1.65-.47-2.09-6.58-2.77a23 23 0 0 1-10.54 13c-5.19 3.15-12 3.58-16.7 7.21-3.06 2.34-2 6.8 1.94 7.17 7 .66 15.66-4.89 20.88-9a33.15 33.15 0 0 0 11.36-16.39c1.15-3.84-4.72-6.47-6.58-2.77-1.59 3.16-1.68 6.43.49 9.35a3.73 3.73 0 0 0 4.05 1.65c7.59-2.13 14-8.25 15.29-16.21 1.15-7-2.48-13.94-9.78-14.85l3.4 4.47c4.12-9.86-6.37-18-15.3-13.26l4.21 5.45c5.52-6 20.34-9.57 15.68-20.89-4.19-10.18-18.77-4.92-26.22-2.46-10.38 3.42-20.27 8.92-27.07 17.64s-11 20.42-12.88 31.4c-.28 1.7 2.17 3.12 3 1.28Z"
          fill="#1a1c3f" class="fill-1a1c3f"></path>
    <path d="m786.07 547.86 22 3.53a20.74 20.74 0 0 0 6.61.34c2.71-.45 5.11-2 7.38-3.48a150.56 150.56 0 0 0 26.77-23c4.47-4.88 9-10.33 15.43-12 2.55-.68 5.31-.73 7.64-2 4.31-2.31 6.39-8.33 11.23-9.05 3-.46 5.86 1.44 8.26 3.33a117.42 117.42 0 0 1 17.52 17c1.82 2.17 3.62 4.54 4.08 7.34s-.9 6.1-3.63 6.88c3.24 3.08 1.16 8.46-1.1 12.31-8.23 14-16.71 28-27.08 40.52-9 10.85-19.48 20.64-31.89 27.29s-26.86 10-40.76 7.71A54 54 0 0 1 788 616.6"
          fill="#fca9a9" class="fill-acfddf"></path>
    <path d="M895.66 526c-2.4-1.89-5.24-3.78-8.26-3.33-4.84.72-6.92 6.74-11.23 9.05-2.33 1.25-5.09 1.3-7.64 2-6.4 1.71-11 7.15-15.43 12a150.56 150.56 0 0 1-26.77 23c-2.27 1.53-4.67 3-7.38 3.48a20.46 20.46 0 0 1-6.61-.34l-22-3.52 1.44 50.4a53.89 53.89 0 0 0 16.75 5.72c13.9 2.28 28.35-1.06 40.76-7.71s22.91-16.44 31.89-27.29C891.55 577 900 563 908.26 549c1.49-2.54 2.89-5.73 2.76-8.5a117.7 117.7 0 0 0-15.36-14.5Z"
          fill="#3d76bf" class="fill-3fc091"></path>
    <path d="M785.54 549.78c7.15 1.88 14.37 3.47 21.62 4.93 6.5 1.31 11.22.38 16.8-3.22 11.32-7.32 21.17-16.46 30.49-26.12a40.13 40.13 0 0 1 6.59-5.9c2.93-1.94 5.76-2.16 9.06-3a16.06 16.06 0 0 0 6.87-3.59c1.81-1.63 3.08-4.16 5.08-5.53 5-3.39 13.55 7 16.84 10.37 2.09 2.12 13.76 12.88 8.28 15.26-2.81 1.22-2.44 4.91-.88 6.82 2.59 3.18-6.19 13.63-7.79 16.1-3.61 5.57-7.32 11.09-11.24 16.45-7.62 10.4-15.6 20.49-25.4 29s-21.28 14.76-33.86 17.49c-13.46 2.94-25.74.25-37.69-6.2-5.28-2.84-9.33 4.51-4.62 7.91 26.92 19.42 62.81 7.73 85.45-12.33 11.73-10.4 21.3-23.12 29.39-36.48 4.27-7 8.67-14.23 12.25-21.65 2.71-5.63 3.88-11.36-.39-16.46l-.88 6.82c5.83-2.61 6.92-9.57 4.49-14.94-3-6.64-9.76-12.52-15.06-17.32-4.75-4.28-10.82-10.82-17.85-10.29-6.61.5-8.27 6.94-13.44 9.52-3.21 1.61-7.15 1.39-10.48 3a31.05 31.05 0 0 0-8.15 6.07c-5.59 5.59-10.49 11.76-16.37 17.09q-4.89 4.41-10.2 8.34c-3.34 2.49-7.15 5.87-11.45 6.29-4 .39-8.33-.62-12.3-1.06-4.89-.53-9.76-1-14.67-1.28-2.26-.13-2.68 3.35-.53 3.91Z"
          fill="#1a1c3f" class="fill-1a1c3f"></path>
    <path d="m581 709.36-36-39.44a9.69 9.69 0 0 0-4.14-3.14c-2.53-.73-5.14.68-7.4 2-4.49 2.69-9.12 5.52-12 9.89a33.37 33.37 0 0 1-2.94 4.43c-1.85 2-4.52 3-7 4.19-10.4 5-18.07 14.2-25.41 23.11-2.21 2.68-4.45 5.43-5.64 8.69s-1.13 7.19 1 9.91c2.62 3.31 7.36 3.88 11.59 4.05a206.34 206.34 0 0 0 34.16-1.44c8.55-1.08 18.45-2.3 24.69 3.65 2.76 2.63 4.42 6.42 7.65 8.44"
          fill="#ffffff" class="fill-ffffff"></path>
    <path d="M496.45 704.31c-1.19 3.26-1.13 7.19 1 9.91 2.63 3.31 7.37 3.87 11.6 4a206.34 206.34 0 0 0 34.16-1.45c8.55-1.08 18.45-2.29 24.69 3.66a34.24 34.24 0 0 1 3.5 4.25l9.6-15.32-36-39.44a9.59 9.59 0 0 0-4.14-3.13c-2.08-.61-4.22.24-6.17 1.31-.06.07-.12.15-.19.22-1.72 1.87-4.15 2.86-6.47 3.95a24.85 24.85 0 0 0-6.57 6.44 33.37 33.37 0 0 1-2.94 4.43c-1.85 2-4.52 3-7 4.19a43.28 43.28 0 0 0-4.74 2.7c-1.59 1.84-3.14 3.72-4.68 5.59-2.22 2.68-4.46 5.38-5.65 8.69Z"
          fill="#fca9a9" class="fill-acfddf"></path>
    <path d="M493.45 703.48c-1.86 6.22-.42 12.8 5.69 15.9 6.43 3.27 15.38 2.26 22.29 2.13 8.79-.17 17.43-1.21 26.16-2.1 8.51-.86 15.67-.42 21.15 6.89 1.38 1.85 4 2.14 5.37 0l9.57-15.37a3.18 3.18 0 0 0-.48-3.76l-25.36-27.76c-4.07-4.46-7.93-9.67-12.55-13.56a9.49 9.49 0 0 0-10.29-1.33c-1.82.77-2.81 1.93-4.41 3-1.95 1.32-4.13 2-6 3.48-3.81 3-5.51 7.5-9 10.56-3.67 3.23-8.78 3.93-12.17 7.66-3.65 4-7.49 8.5-9.62 13.52-1.55 3.64 3.8 6.81 5.36 3.13a41.66 41.66 0 0 1 8.65-12.26c3.21-3.27 7.73-4.12 11.29-6.86 2.9-2.23 4.07-5.59 6.45-8.26 2.82-3.16 6.62-4.61 10-7 2.55-1.74 3.63-2.32 6.3-.39 1.84 1.33 3.39 3.68 4.91 5.35l10.68 11.69 21.35 23.37-.49-3.76-9.57 15.36h5.37c-3.4-4.53-7-8.09-12.64-9.51-6.29-1.58-12.86-.58-19.19.18a209.4 209.4 0 0 1-24.66 1.5c-7.21 0-21.64 1.35-18.17-10.2 1.16-3.79-4.84-5.43-5.99-1.6Z"
          fill="#fca9a9" class="fill-acfddf"></path>
    <path d="M582.41 708c-6.27-7.71-12.62-15.3-19.2-22.74q-4.9-5.57-9.83-11.13c-2.77-3.13-5.54-7.08-9.09-9.38-6.24-4.06-13.51 1.3-18.55 5a28.63 28.63 0 0 0-7.24 7.25c-1 1.52-1.7 3.17-3.06 4.4-1.58 1.43-3.68 2.19-5.56 3.14-7.16 3.59-13.18 8.87-18.56 14.75-5 5.43-11.67 11.84-14.07 19-2.16 6.43-.14 13.34 6.18 16.35 6.91 3.29 16.52 2.19 23.91 2 9.86-.25 19.62-2.13 29.46-2.34 4.49-.09 9.14.43 12.59 3.6 3.17 2.93 4.47 6.78 8.54 8.72 3.28 1.56 6.61-2.31 4-5.13-4.11-4.39-7.09-9.69-12.82-12.17-5.23-2.26-11.16-2.2-16.72-1.66-7.72.74-15.35 1.8-23.11 2.1-3.8.16-7.6.2-11.41.14-3.55-.05-8.56.44-11.77-1.46-11.73-6.94 16.36-31.78 22.79-35.86 5.09-3.23 10.61-4.56 14.09-9.83a26.59 26.59 0 0 1 6.88-7.53c2.23-1.6 6.86-5.44 9.67-5 3.39.56 7.42 7 9.75 9.44l9.51 10.06c6.8 7.2 13.75 14.18 20.84 21.09 1.87 1.83 4.4-.86 2.82-2.81Z"
          fill="#1a1c3f" class="fill-1a1c3f"></path>
    <path d="M524.86 737.63c6.08 1.08 11-7.8 12.93-12.49 1.13-2.78 1.29-6-.9-8.39-1.72-1.82-5.07-2.24-6.26.42-1.09 2.45 1.23 5.4 3.87 3.87l.37-.21-2.28.3c.8.14-2.39 6.61-2.54 6.88-1.15 2.1-2.83 5.67-5.19 6.55-1.31.49-1.7 2.77 0 3.07ZM510.86 739.9c6-.14 10.26-5.15 12.49-10.35 1.67-3.87 1.46-11.53-4-12.44a2.61 2.61 0 0 0-2.81 1.14l-.1.17a2.46 2.46 0 0 0 0 2.5l.1.13c1.79 2.57 5.83.33 4.26-2.48l-.09-.15v2.5l.12-.16-2.83 1.14c1.24.34.93 3.65.75 4.43A12.36 12.36 0 0 1 517 730c-1.62 2.61-3.49 5.76-6.58 6.75-1.66.54-1.44 3.17.42 3.13Z"
          fill="#3d76bf" class="fill-3fc091"></path>
    <path d="M650.1 639.82a138.86 138.86 0 0 0-6.94 62.44c2.59 21.71 10.27 42.45 17.88 63-11-10.28 9.5-18.3-2.83-26.9-8.15-5.69-44.46-15.31-52.12-21.64-3.29-2.73-6-6.2-9.68-8.36s-9-2.59-11.82.6c-2-4.74-8.47-6.22-13.3-4.41s-8.35 6-11.46 10.06c-5.09 6.71-9.73 13.85-12.76 21.7-2 5-2.7 11.87 1.8 14.88 1.22.83 2.69 1.23 3.92 2 4.31 2.81 4.2 9 5.87 13.86s5.55 8.85 9.37 12.46a314.26 314.26 0 0 0 56.05 42.25c12.6 7.44 25.91 14.07 40.23 17s29.86 2 42.68-5c10.86-6 19.11-15.9 25-26.78s9.72-22.77 13.48-34.57c11.29-35.41 22.66-71.23 25.38-108.3"
          fill="#1a1c3f" class="fill-1a1c3f"></path>
    <path d="M648.25 639.31a142 142 0 0 0-8 63c2.27 22.13 10 43.09 17.65 63.82l5.5-3.2c-6.67-6.78 5.45-14.47 1.21-22.61-3.89-7.47-15.89-10.19-23.09-12.8-10.08-3.66-20.84-6.63-30.31-11.74-5-2.69-8.08-7.69-13-10.47-5.24-3-11.54-3-16.1 1.14l5.56.72c-2.71-5.06-8.23-7.38-13.84-6.8-6.76.7-11.85 5.76-15.83 10.85a100.8 100.8 0 0 0-12.34 19.42c-2.44 5.27-4.78 11.36-3.15 17.23a11 11 0 0 0 4.19 6.13c1.37 1 3.32 1.38 4.55 2.52 1.39 1.29 1.89 3.3 2.34 5.08 1.72 6.71 3.69 12 8.48 17.16 11 11.91 24.22 22.29 37.29 31.79 25.17 18.25 56.64 37.71 89.1 33.45 33.63-4.4 49.32-34.18 58.92-63.38 12.41-37.79 25.16-76.59 27.82-116.53.38-5.58-8.16-5.48-8.64 0-2.68 30.51-10.47 59.95-19.52 89.11-7.94 25.58-14.58 58.32-38.25 74.44-24.83 16.89-56.06 5.69-79.57-7.74a325.19 325.19 0 0 1-35.93-23.9c-5.47-4.17-10.79-8.55-16-13.09-5.39-4.72-12.62-9.91-15.21-16.86-1.86-5-1.69-10.73-5.81-14.66-2.41-2.3-6.21-2.45-7.08-6.07-.81-3.36.9-7.39 2.22-10.38a91.75 91.75 0 0 1 11.45-18.61c3.61-4.7 13.79-14.7 18.64-5.66a3.57 3.57 0 0 0 5.55.72c5.68-5.21 13.06 5.05 16.94 8.09a40 40 0 0 0 9.24 4.93c9.35 4 19.06 7 28.6 10.45 4.67 1.69 19 4.94 16.56 12-1.18 3.39-3.42 6.23-3.91 9.89-.58 4.28 1.23 7.75 4.19 10.74 2.2 2.2 6.7 0 5.51-3.21-7.44-19.86-14.83-39.93-18-61a137.8 137.8 0 0 1 5.68-63c.77-2.37-2.87-3.31-3.7-1Z"
          fill="#1a1c3f" class="fill-1a1c3f"></path>
    <path d="m859.48 873 23.57 48a9.67 9.67 0 0 0 3.09 4.17c2.23 1.41 5.13.79 7.68.12 5.06-1.33 10.3-2.76 14.29-6.15a33 33 0 0 1 4.06-3.43c2.34-1.41 5.18-1.62 7.87-2.07 11.38-1.91 21.32-8.58 30.86-15.08 2.86-2 5.79-4 7.84-6.77s3.1-6.59 1.79-9.8c-1.6-3.92-6-5.78-10-7.13a206.07 206.07 0 0 0-33.2-8.17c-8.52-1.35-18.36-2.95-22.69-10.41-1.91-3.3-2.44-7.39-5-10.24"
          fill="#ffffff" class="fill-ffffff"></path>
    <path d="M939.25 901.53c2-2.8 3.09-6.59 1.78-9.8-1.59-3.92-6-5.78-10-7.13a205.81 205.81 0 0 0-33.2-8.17c-8.51-1.35-18.35-2.95-22.68-10.41A34.45 34.45 0 0 1 873 861l-13.52 12 23.57 48a9.67 9.67 0 0 0 3.09 4.17c1.83 1.16 4.12.94 6.3.46l.24-.16c2.17-1.32 4.79-1.59 7.31-2a24.88 24.88 0 0 0 8.12-4.35 33 33 0 0 1 4.06-3.43c2.34-1.41 5.18-1.62 7.87-2.07a45.54 45.54 0 0 0 5.31-1.26c2-1.33 4-2.7 6-4.06 2.92-1.96 5.84-3.97 7.9-6.77Z"
          fill="#fca9a9" class="fill-acfddf"></path>
    <path d="M941.93 903.1c3.53-5.45 3.92-12.2-1.11-16.86-5.28-4.88-14.13-6.42-20.79-8.22-8.41-2.28-16.92-3.71-25.48-5.26s-15.28-3.89-18.58-12.63a3.15 3.15 0 0 0-5.19-1.37l-13.49 12.08a3.16 3.16 0 0 0-.49 3.76q8.3 16.88 16.58 33.74c2.66 5.41 4.89 11.53 8.27 16.53a9.52 9.52 0 0 0 9.56 4.09c1.95-.24 3.25-1.09 5.08-1.67 2.53-.79 5-.9 7.42-2 4.22-1.81 7.1-5.7 11.16-7.41 5.17-2.16 10.23-1.64 15.09-4.9 4.1-2.75 8.35-5.41 11.48-9.29 2.49-3.09-1.88-7.51-4.39-4.4-2.77 3.44-6.49 6-10.23 8.32-4.57 2.83-9.18 2.5-14 4.33-3.53 1.33-5.63 4.32-8.76 6.25-3.33 2.06-7.42 2.9-11.21 3.71-2.85.6-4.38 1.27-6.5-1.35-1.4-1.73-2.23-4.5-3.22-6.51q-3.48-7.1-7-14.2l-14-28.41-.49 3.76 13.49-12.08-5.13-1.33c2.12 5.64 4.8 10.16 10.29 13.07s11.66 3.74 17.67 4.74A206.81 206.81 0 0 1 922 885c7.06 2.05 21.11 4.76 14.52 14.92-2.14 3.41 3.24 6.53 5.41 3.18Z"
          fill="#fca9a9" class="fill-acfddf"></path>
    <path d="M857.77 874c3.87 9.16 7.84 18.23 12.08 27.23q3.17 6.72 6.33 13.44c1.78 3.77 3.34 8.35 6.13 11.53 4.88 5.56 13.37 2.45 19.22.29a28.6 28.6 0 0 0 9-5c1.49-1.27 2.65-2.6 4.45-3.41 2.36-1.07 5.13-1.16 7.64-1.7 8.2-1.75 15.71-5.75 22.72-10.21 5.89-3.74 13.51-7.75 17.12-14 9.8-17-15.45-22.39-26.5-25.19-9.22-2.34-18.85-3.12-28-5.75-4.07-1.18-8-3-10.22-6.81s-2.42-7.74-5.78-10.74a3.28 3.28 0 0 0-5.13 4c2.68 5.27 4 11.12 8.71 15.08 4.11 3.46 9.49 5.13 14.68 6.18 7 1.43 14.12 2.35 21.11 4 7.27 1.7 16.32 3.18 22.79 7.07 9.42 5.68-1.93 13.69-7 17.17-6.44 4.37-13.06 8.73-20.43 11.38-5.86 2.1-12.9 1.57-17.93 5.56-3 2.34-5.41 4.5-9 5.85-2.7 1-9.54 3.88-12.15 1.95-1.31-1-2.17-3.91-2.86-5.31-1-2.07-2.05-4.13-3.1-6.19q-3.15-6.17-6.31-12.31c-4.51-8.81-9.23-17.44-14.1-26.05-1.29-2.3-4.4-.28-3.43 2Z"
          fill="#1a1c3f" class="fill-1a1c3f"></path>
    <path d="M921.26 861.57c-5.47-2.7-12.49 4.3-15.7 8.16-1.95 2.34-3.1 5.42-1.76 8.36 1.11 2.4 4.31 3.81 6.28 1.48a2.85 2.85 0 0 0-2.75-4.73l-.42.1 2.29.3c-.56-.27 3.82-5.26 4.28-5.73 1.75-1.78 4.32-4.77 7-5 1.44-.11 2.34-2.21.81-3ZM935.34 863.32c-5.71-1.57-11.26 2.07-14.8 6.38-2.72 3.3-4.72 10.72.37 13.17a2.59 2.59 0 0 0 3-.39l.14-.13a2.45 2.45 0 0 0 .64-2.41l-.06-.16a2.47 2.47 0 0 0-4.75 1.31v.17l1.14-2.8-.16.12h2.51c-.57-.35-.18-2.63 0-3.23a10.06 10.06 0 0 1 3.06-4.08c2.29-2.1 5.14-4.76 8.43-4.82a1.6 1.6 0 0 0 .42-3.13Z"
          fill="#3d76bf" class="fill-3fc091"></path>
    <path d="M661.46 640.67c-6.13 24.15-1.12 50.43 11.24 72.07s31.66 38.82 53.35 51.09c7.53 4.25 15.49 8 21.63 14.14 9.65 9.58 13.46 23.46 20.75 34.94 12.5 19.68 34.37 31.16 55.82 40.31 8.79 3.75 18.22 7.69 23.53 15.65 2.73 4.09 4.87 9.58 9.71 10.49 2.39.45 4.81-.43 7.06-1.36a115.46 115.46 0 0 0 25.91-15c4-3 7.86-6.53 9.66-11.19 1.7-4.4-3.33-11.44-5-15.29-2.72-6.45-4.33-13.36-7.14-19.94-7.61-17.86-17.52-34.42-27.17-51.17-10.17-17.64-21.08-34.89-33.7-50.89a267.06 267.06 0 0 0-51.42-49.38c-13.89-10.26-28.51-19.48-43.31-28.36"
          fill="#1a1c3f" class="fill-1a1c3f"></path>
    <path d="M659.65 640.17c-11.52 44.21 10.83 87.45 45.56 114.24 8.66 6.69 18 12 27.45 17.45a53.93 53.93 0 0 1 22.23 23.41c4.74 9.19 8.74 18.54 15.28 26.66 6.34 7.87 14.31 14.32 22.79 19.76a196.71 196.71 0 0 0 28.56 14.65c9.72 4.2 18.94 8.08 24.65 17.47 2.07 3.41 4.31 6.89 8.07 8.6 5.25 2.39 10.7-.23 15.53-2.43 9.89-4.49 20.27-10.42 28-18.15 2.84-2.84 5.77-6.49 6.39-10.57.67-4.36-1.59-8.64-3.53-12.39-5.11-9.89-7.74-20.88-12.57-31-10.67-22.26-23.79-43.83-37-64.65-14.43-22.69-30.85-44-50.67-62.29s-42.24-35-65.84-47.83c-4.8-2.61-8.76 4.29-4.26 7.27 19 12.6 39 23.41 56.72 38a258 258 0 0 1 45.35 48c13.39 18.58 24.92 38.45 35.95 58.5a332.22 332.22 0 0 1 15.6 31.4c3.86 9.21 6.35 18.71 10.75 27.7 1 2 2.18 4.22 1.74 6.44s-2.48 4.33-4.09 5.93c-3.86 3.85-8.64 6.95-13.26 9.81a110.48 110.48 0 0 1-13.25 7c-3.26 1.46-6.7 3.49-9.88.85-1.78-1.47-2.77-4.11-4-6-4.91-7.8-12.52-12.44-20.78-16.12-8.8-3.92-17.67-7.59-26.13-12.23a106.08 106.08 0 0 1-23.11-16.45c-7.39-7.16-12.35-15.59-16.84-24.75-4-8.22-8.08-16.66-14.67-23.19-7.21-7.14-16.62-11.25-25.26-16.29-40.5-23.64-72.85-69-61.85-117.8.53-2.36-3-3.36-3.63-1Z"
          fill="#1a1c3f" class="fill-1a1c3f"></path>
    <path d="M762 412.55c6.86-2.82 13.9-5.77 19.14-11 6.93-6.93 9.8-17.24 9.1-27s-4.66-19.07-9.78-27.42a102.61 102.61 0 0 0-56.36-43.88 33.73 33.73 0 0 0-11.53-1.94 14.62 14.62 0 0 0-10.46 4.61c-4.5 5.26-3.09 13.7 1.27 19.07s10.88 8.42 17.18 11.28c-3.13-.68-6.38-1.36-9.51-.67s-6.1 3.15-6.3 6.35a8.37 8.37 0 0 0 1.53 4.87c2.67 4.19 7.19 6.95 12 8.38s9.79 1.65 14.76 1.7c-3-2.19-7.42 1.54-7 5.21s3.69 6.32 7 7.87c6.48 3 13.81 3.42 20.75 5.1s14.16 5.21 16.93 11.79c3 7-.91 16.11-8 18.85"
          fill="#3d76bf" class="fill-3fc091"></path>
    <path d="M762.61 414.75c7.23-2.86 14.72-5.85 20.43-11.32a35.26 35.26 0 0 0 9.96-19.55c2.85-16.82-4.58-33.18-14.41-46.43A105.55 105.55 0 0 0 743.27 307c-11.77-6.25-32-15.93-43.45-4.39-5.48 5.51-5.39 14.23-2.09 20.85 4.11 8.27 12.82 12.57 20.84 16.23l3-7.21c-5.65-1.19-11.83-2.06-16.68 1.82a10.38 10.38 0 0 0-2.88 13c5.47 11.46 19.71 13.43 30.94 13.52 3.7 0 5.53-5.52 2-7.27a8.91 8.91 0 0 0-12.79 8c-.13 7.9 8.39 12.08 14.83 13.93 8.4 2.42 18.1 2.1 25.5 7.3 7.7 5.4 6.75 15.83-1.65 19.88-3.62 1.75-1 8.12 2.77 6.57 11.87-4.86 15.61-20.08 6.6-29.56-5-5.22-12.12-7.52-19-8.89-4.09-.82-8.25-1.35-12.25-2.54a20 20 0 0 1-6.55-2.83 6.78 6.78 0 0 1-2.54-2.94c-.2-1.45.17-2.17 1.12-2.16l2-7.26c-6.19-.15-12.79-.32-18.27-3.55-2.38-1.41-5.06-3.42-5.41-6.33-.65-5.36 6.89-3.74 10.2-3 4.1.87 7.33-5.25 3-7.21-7.08-3.24-16.09-7-18.62-15.09-3.41-10.94 7.53-13.68 15.88-11.62 15.39 3.78 29.77 12.59 41.25 23.35 11.86 11.11 22.78 26.17 25.49 42.52 1.39 8.39.06 17.52-4.84 24.61s-13.15 10.65-20.86 14c-2.35 1-.65 5.12 1.76 4.17Z"
          fill="#1a1c3f" class="fill-1a1c3f"></path>
    <path d="M722.37 529a43.34 43.34 0 0 0 2.55-19.57c.16 1.62-11.53 0-12.72-.17a27 27 0 0 1-19.33-13.7c-4.44-8.08-4.72-17.8-3.94-26.76a211.17 211.17 0 0 0-.2-37.8c-.59-6.38-1.11-13.15 1.76-18.87 2.18-4.35 6.1-7.58 10.2-10.21a66.77 66.77 0 0 1 45.51-9.78 41 41 0 0 1 13.56 4.22c16.27 8.88 20.35 30.23 20.81 48.76A287.42 287.42 0 0 1 769.94 530"
          fill="#ffffff" class="fill-ffffff"></path>
    <path d="M759.76 396.36a41 41 0 0 0-13.56-4.22c-1.07-.15-2.13-.28-3.2-.39a66.58 66.58 0 0 0-29.53 10.17c-4.1 2.63-8 5.86-10.21 10.21-2.87 5.72-2.35 12.49-1.76 18.87a212.11 212.11 0 0 1 .21 37.8c-.78 9-.5 18.68 3.93 26.76a27.07 27.07 0 0 0 19.36 13.7c1.19.18 12.88 1.79 12.72.17a43.34 43.34 0 0 1-2.57 19.57l34.86.74a286.93 286.93 0 0 0 10.56-84.62c-.46-18.53-4.57-39.88-20.81-48.76Z"
          fill="#fca9a9" class="fill-acfddf"></path>
    <path d="M723.94 529.43c2.39-5.76 8.39-21.18-1.73-22.08-9-.79-17.55-1.93-23.83-9.25-7.92-9.23-6.81-21.82-6-33.07.88-13.08-.24-25.83-.88-38.87-.28-5.65.15-11.31 3.93-15.84 4-4.79 10.19-8.09 15.84-10.54a63.31 63.31 0 0 1 35.92-4.37c23.08 4.13 29.35 26.4 30.27 47 1.3 29.21-2.6 58.68-10.41 86.81-1 3.78 4.83 5.4 5.88 1.62a290.92 290.92 0 0 0 10.76-85.7c-.53-19.16-4.69-43-23.92-52.23-11-5.27-24.51-5.49-36.31-3.26C712 391.77 698.82 397 691 405.94c-8.11 9.29-5.47 21.4-4.81 32.6.4 6.93.49 13.88.22 20.82s-1.27 13.81-.81 20.73c.83 12.4 6.44 24.27 18.12 29.77 4.34 2.05 8.95 2.59 13.68 2.92.83.06 1.66.11 2.5.14 2.53.08 2.49-.28 2.81 2.36.53 4.37-.69 9.14-1.92 13.29-.61 2.06 2.36 2.74 3.14.86Z"
          fill="#1a1c3f" class="fill-1a1c3f"></path>
    <path d="M741.64 507.77c-6.11-2.12-14.48-3-20.71-1a2.22 2.22 0 0 0 .59 4.34c3.28.24 6.57-.21 9.86-.27s6.54.23 9.82.21a1.67 1.67 0 0 0 .44-3.27ZM700.57 453.43a.89.89 0 0 1-.8-.44c-.09-.25-.1-.26 0 0a1.58 1.58 0 0 1 .09.31c0-.26 0-.27 0 0 0 0 .05.57 0 .58 0-.61.36-1 1.09-1.29a1.66 1.66 0 0 1 2 1.15v1.14-.09a2.14 2.14 0 1 0-4.2-.57 2.48 2.48 0 0 0 2.62 2.48 2.65 2.65 0 0 0 2.49-2.69 4.43 4.43 0 0 0-.89-2.86 2.66 2.66 0 0 0-3.2-.6 1.6 1.6 0 0 0-.73 1.79 1.66 1.66 0 0 0 1.54 1.17ZM727.31 450.2a.9.9 0 0 1-.8-.44c-.09-.25-.1-.26 0 0a1.58 1.58 0 0 1 .09.31c0-.26 0-.27 0 0a2.85 2.85 0 0 1 0 .58c0-.61.35-1 1.09-1.29a1.65 1.65 0 0 1 2 1.15v1.14-.09a2.14 2.14 0 1 0-4.2-.57 2.48 2.48 0 0 0 2.62 2.48 2.66 2.66 0 0 0 2.5-2.69 4.5 4.5 0 0 0-.9-2.86 2.66 2.66 0 0 0-3.2-.6 1.6 1.6 0 0 0-.73 1.79 1.66 1.66 0 0 0 1.54 1.17ZM697.46 442.59a10 10 0 0 1 3.61-1.81c1.83-.5 4-.33 4.9-2.37a2.93 2.93 0 0 0-.44-3.39l-.23-.21a3.29 3.29 0 0 0-3.17-.84 17.51 17.51 0 0 0-5.27 2.32 9.5 9.5 0 0 0-3 4.22c-.89 2.18 2.14 3.28 3.57 2.08ZM735.39 432.05c-1.85-2.13-5.21-3.37-7.92-3.88-3.38-.64-6.69-.48-8.76 2.55-1.43 2.08.08 4.81 2.23 5.5 2.52.8 4.54-.54 7-1 2.25-.41 4.54 0 6.76-.47a1.65 1.65 0 0 0 .72-2.72ZM707.33 452.32c-.13 2.78-.29 5.2-2.06 7.33a6.31 6.31 0 0 0-1.77 4.09 5.25 5.25 0 0 0 6.29 5.27c1.66-.36 2.09-3 .49-3.77s-2.56-1.36-1.46-3.05a8.49 8.49 0 0 0 1.39-2.28 20.61 20.61 0 0 0 .3-7.59 1.59 1.59 0 0 0-3.18 0ZM713.68 478.09c.62.77 1.83.46 2.75.11a97.42 97.42 0 0 1 13.47-4.13 1.92 1.92 0 0 1 1.68.15 1.69 1.69 0 0 1 .47.93 9.2 9.2 0 0 1-.93 6.37 14.24 14.24 0 0 1-4.37 4.83 8.82 8.82 0 0 1-4.3 1.83 4.18 4.18 0 0 1-4-1.91 6.39 6.39 0 0 1-.6-2.14l-.68-4.19"
          fill="#1a1c3f" class="fill-1a1c3f"></path>
    <path d="M712.88 479.47c2.18 1.42 4.4.32 6.71-.37 1.8-.53 3.61-1.07 5.42-1.55 1.47-.38 4.45-1.63 5.94-1l-1.68-1.67c1.45 3.44-1.22 7.15-3.93 9.08-1.41 1-3.3 2.14-4.64.55-.79-.94-.79-4-1-5.24-.58-2.83-5.47-2.25-5.13.69.56 4.73.91 10.71 7 11.07 4.77.28 9.47-3.74 11.7-7.64 1.67-2.94 3.21-9.71-1-11.46-2.07-.87-5 .51-7 1.1-1.8.54-3.6 1.11-5.35 1.78-1.1.43-4.46 2.38-5.39 1.93a1.59 1.59 0 0 0-1.6 2.75Z"
          fill="#1a1c3f" class="fill-1a1c3f"></path>
    <path d="M739.28 397.87c-6.46 11.55-18.48 18.75-30.33 24.65-2.83 1.41-5.88 2.82-9 2.42s-6.14-3.4-5.33-6.46c-2 4.44-7.6 7.56-7 12.38.38 2.92 3.16 5.59 2.18 8.36-4.6 1.38-9.71-.22-13.45-3.22a12 12 0 0 1-4.4-6.32 6.65 6.65 0 0 1 2.38-7c-3.58.18-6.13-4-5.58-7.54s3.15-6.38 5.78-8.81c17.86-16.47 42.43-24.91 66.73-24.92 4.13 0 8.76.46 11.46 3.59.71.83 1.3 1.84 2.3 2.25a5.47 5.47 0 0 0 2.42.14c5.78-.42 11.54 1.79 16.24 5.19s8.49 7.9 12 12.55c2.84 3.79 5.54 7.79 7 12.29 2.83 8.6.88 18-2.17 26.56s-7.18 16.74-8.85 25.63a11.28 11.28 0 0 1-1.11 3.76 3.36 3.36 0 0 1-3.24 1.8c-1.24-.21-2.09-1.32-2.82-2.35l-6.49-9.14a2 2 0 0 1-.41-.81 2.09 2.09 0 0 1 .49-1.46c2-3.13 4-6.5 4.28-10.22s-1.56-7.87-5.1-9-7.43 1-9.49 4.06-2.68 6.85-3.26 10.5a26.91 26.91 0 0 1-.79-19.9 76.63 76.63 0 0 1-19-29.57 13.91 13.91 0 0 1-1.08-6.91c.41-2.33 2.23-4.57 4.59-4.68"
          fill="#3d76bf" class="fill-3fc091"></path>
    <path d="M737.27 396.7a58 58 0 0 1-17.21 15.84c-3.06 1.9-6.24 3.6-9.45 5.22-2.34 1.19-13.52 7.62-12.88.72.28-3.1-4.46-4.25-5.83-1.58-1.76 3.43-5 5.87-6.54 9.43-1.89 4.43 1.23 8 .32 12.34l2.17-2.17c-5 1.11-17.51-6-11.19-11.5 2.33-2 .27-5.36-2.31-5.57-3.56-.3-2.15-5.15-1.08-6.82a26 26 0 0 1 4.8-5 82.26 82.26 0 0 1 11.65-8.61 94.63 94.63 0 0 1 25.16-10.77 98.46 98.46 0 0 1 26.4-3.47 17.87 17.87 0 0 1 6.05.69c2.18.82 2.86 2.17 4.48 3.6 2.85 2.52 6.46 1.35 9.9 1.91 10.24 1.65 17.63 10.72 23.16 18.78 6.51 9.51 6.52 19.1 3.27 29.86-2.88 9.54-7.59 18.45-9.56 28.27-.18.88-.12 2.21-.7 2.94-1.15 1.43-1.38-.69-2.23-1.86-1.43-2-3.13-4-4.37-6.08-1.07-1.82-.84 1.11-.06-.52.35-.72.86-1.38 1.24-2.08a25.37 25.37 0 0 0 2.64-6.66c1.32-6.31-1.93-14.3-9.16-14.78-9.61-.64-13.14 9.49-14.38 17.1h5.93a25.54 25.54 0 0 1-.77-18.27 3.08 3.08 0 0 0-.8-3 76.18 76.18 0 0 1-12-15.11c-1.82-3-11.64-19.52-5-21.2 3.47-.87 2-6-1.46-5.31-10.39 2.1-6.26 14.53-3.39 21.06a80.42 80.42 0 0 0 17.48 24.9l-.8-3a30.79 30.79 0 0 0 .81 21.54c1 2.42 5.38 3.38 5.93 0 .44-2.76.79-5.91 2.14-8.42 1.61-3 6-6.35 8.69-2.39 3.72 5.38-2.34 9.85-3.65 14.56-1 3.69 3 7.39 4.88 10.12 2.26 3.25 4.74 8 9.47 6.91 3.85-.85 5.1-4.38 5.89-7.79a115.28 115.28 0 0 1 5.75-17.13c4.31-10.59 8.61-21.77 6.24-33.4-2.07-10.16-9.93-20.18-17.48-27a36.07 36.07 0 0 0-11.8-7.36 26.37 26.37 0 0 0-7-1.52 27.25 27.25 0 0 1-3.14 0c-1.82-.43-2.1-1.26-3.34-2.36-6.76-6-19.35-3.67-27.4-2.59a106.37 106.37 0 0 0-28.88 8.16c-10.17 4.49-21 11-28.31 19.52-5.48 6.41-5.69 18.29 4.82 19.15l-2.37-5.62c-4.87 4.24-4.18 11.09-.2 15.69 4.44 5.13 11 8 17.67 6.43a3 3 0 0 0 2.18-2.17c.78-3.82-1.8-8.22-.61-11.6 1.11-3.19 4.62-5.63 6.22-8.67l-5.83-1.58c-.47 4.72 3.09 8.58 7.58 9.63 5.68 1.33 11.71-2.41 16.43-5.06 10.49-5.86 20.39-13 25.8-24a2.32 2.32 0 0 0-4-2.34Z"
          fill="#1a1c3f" class="fill-1a1c3f"></path>
    <path d="M711.09 401.2c-10.19 6.37-25.55 15.48-26.66 28.91-.21 2.57 3.17 2.88 4.39 1.19 3.59-4.91 6.08-10.39 10.18-15a105.27 105.27 0 0 1 14.06-12.54c1.46-1.15-.42-3.52-2-2.56ZM682.46 416c-1.14 1.69-3 2.35-4.86 2.81s-3.4 1.33-5.1.33c-2.38-1.41-4.9 1.35-3.67 3.67 2 3.73 6.73 3.24 10 1.54a14.21 14.21 0 0 0 6.56-7.12c.72-1.75-2-2.64-2.9-1.23Z"
          fill="#1a1c3f" class="fill-1a1c3f"></path>
    <path d="M782 532c-21.14-6.35-43.46-13-65.7-13.37-7.51-.11-15.51.37-22.7 2.73s-16.54 9.28-9.68 17.26c2.42 2.82 5.92 4.44 9.31 6-3.89 1.48-6.6 5-9.07 8.31q-19.29 26.05-36.51 53.56c-3.75 6-7.47 12.13-9.35 18.95s-1.71 14.5 2 20.52c2.59 4.21 6.67 7.27 10.81 10 24.56 16.04 53.89 23.09 82.81 28.41 11.21 2.07 22.68 3.92 34 2.27s22.51-7.37 28.16-17.27c4.51-7.92 5-17.47 4.84-26.59-.3-19.46-2.9-38.81-5.49-58.11-1.21-8.67-2.43-17.35-5.14-25.67-.67-2-1.43-4-1.26-6.12s1.3-4.1 1.74-6.21a10.11 10.11 0 0 0-4.17-10.25"
          fill="#3d76bf" class="fill-3fc091"></path>
    <path d="M778.31 669.37c4.52-7.92 5-17.47 4.85-26.59-.31-19.46-2.9-38.81-5.49-58.11-1.17-8.64-2.34-17.35-5.1-25.63a16 16 0 0 1-1.26-6.12c.17-2.15 1.3-4.1 1.75-6.21a10.12 10.12 0 0 0-4.17-10.25l-4.63-4.46c-18.84-5.66-38.61-11.56-58.43-13a55.11 55.11 0 0 0-12.26 2.39c-7.26 2.38-16.54 9.28-9.68 17.26 2.42 2.82 5.92 4.44 9.31 6-3.89 1.48-6.6 5-9.07 8.31q-19.29 26.05-36.51 53.56c-3.75 6-7.47 12.13-9.35 18.95s-1.71 14.5 2 20.52c2.59 4.21 6.67 7.27 10.81 10 24.59 16.01 53.92 23.06 82.84 28.38 5.1.94 10.25 1.83 15.41 2.38l.83-.11c11.28-1.64 22.51-7.37 28.15-17.27Z"
          fill="#82218f" class="fill-22906c"></path>
    <path d="M782.57 529.8c-24.87-7.78-51.34-16.56-77.77-14.31-9 .77-20.17 3.09-25.28 11.46-5.88 9.64 3.85 17.23 11.77 20.88v-6.53c-6.22 2.85-9.92 8.93-13.83 14.27q-7.31 10-14.33 20.23c-8.84 12.88-18.73 26.06-25.39 40.23-5.61 11.93-6.92 26.29 2.81 36.49 9.53 10 24.44 16.24 37.06 21.17 13.73 5.36 28.06 9 42.47 12.07 15.2 3.19 31.26 7 46.85 5.13 12-1.44 23.9-6.92 30.94-17 8.51-12.21 7.2-28.68 6.25-42.75-1.21-18-3.82-36-6.47-53.81a134.23 134.23 0 0 0-2.65-13.79c-1.13-4.38-3.23-8.33-2.07-12.87 1.62-6.33 1.63-12.14-4-16.55-3.32-2.59-8 2.07-4.67 4.67 6.14 4.76 1.13 9.67 1.52 15.68s3.38 12.15 4.47 18.12c2.59 14.17 4.07 28.68 5.37 43 1.22 13.43 3 28.22.53 41.58-2.38 12.68-11.32 20.89-23.53 24.24-13.44 3.69-27.65.92-41-1.58a345.76 345.76 0 0 1-37.18-8.71 166.62 166.62 0 0 1-35.49-15c-5.44-3.16-11.88-6.7-15.29-12.2-3.57-5.77-3.1-13-1.12-19.21 2.44-7.63 7.23-14.48 11.49-21.19q6.12-9.66 12.51-19.15t13-18.8c4.25-6 8.69-14.6 15.55-17.76 2.47-1.14 2.48-5.39 0-6.53-3.34-1.52-10.36-4.16-9.83-8.84.4-3.49 5.32-6 8.13-7.11 8.57-3.49 18.53-3.67 27.64-3.34 20.64.73 40.61 6.46 60.33 12.12 2.79.81 4-3.47 1.2-4.33Z"
          fill="#1a1c3f" class="fill-1a1c3f"></path>
    <path d="M711.89 389.48c-8.1 3.56-16 7.51-23.81 11.64-5.41 2.86-13.31 5.87-14.81 12.55-.45 2 2 3.7 3.57 2.08 9.87-10.48 23.91-17.14 36.69-23.46 1.9-1 .23-3.64-1.64-2.81ZM678.81 424.12a6.67 6.67 0 0 0-2.37 1.84 6.05 6.05 0 0 0-1.32 3.41 2.1 2.1 0 1 0 4.2 0 3.31 3.31 0 0 1 1.06-2.56 1.56 1.56 0 0 0-1.57-2.69ZM725.63 396.14c-6.7 4.95-13.1 10.17-19.44 15.56-2 1.66.87 4.47 2.81 2.82 6.21-5.27 12.45-10.5 18.56-15.88 1.33-1.18-.47-3.58-1.93-2.5ZM702.49 417.86a1.7 1.7 0 0 0 0-3.4 1.7 1.7 0 0 0 0 3.4ZM744.18 397.13c-1.42 7.54 0 29.4 12.16 26.83l-3.17-2.41c0 3.51.91 6.49 3.49 8.92 1.88 1.78 5-.49 3.64-2.81a11.65 11.65 0 0 1-2.12-6.11 2.53 2.53 0 0 0-3.17-2.41c-3.51.84-6-7.95-6.51-9.92a37.55 37.55 0 0 1-1.13-11.66c.1-1.8-2.85-2.24-3.19-.43ZM758.48 437.46l.36.11.49.06a1.36 1.36 0 0 0 .72-.16.9.9 0 0 0 .4-.23 1.5 1.5 0 0 0 .48-.52l.18-.44.07-.49a1.33 1.33 0 0 0-.16-.71 1.37 1.37 0 0 0-.38-.6l-.3-.23a1.93 1.93 0 0 0-.84-.49 2 2 0 0 0-1 0l-.5.24a1.9 1.9 0 0 0-.69.69 1.53 1.53 0 0 0-.23.71 1.55 1.55 0 0 0 0 .77 1.94 1.94 0 0 0 1.34 1.34ZM708.74 307.75c-4.8 5-4.8 10-.37 15.44s11.29 10.35 18.27 11c2.15.2 3.07-3.2 1.12-4.12-6.53-3.08-24.21-10.2-16.56-19.84 1.35-1.71-.88-4.12-2.46-2.46ZM710.29 341.06c-.16 3.75 2.59 6.27 5.78 7.75 3.92 1.81 9.79 3.54 14.08 3.23 2-.15 3.19-3 1.09-4.05-3.75-1.84-17.32-.95-17.62-6.93a1.67 1.67 0 0 0-3.33 0ZM752 342.06c-4.32-.51-8.76 1.33-10.18 5.74-1.54 4.78 1.9 8.22 5.41 10.83l1.33-4.92c-8.6.08-11.71 12.8-2.63 14.9 3 .7 4.3-3 2-4.77q-3.74-1.89.62-4.85a2.66 2.66 0 0 0 1.34-4.92c-1.62-1-3.8-2.25-3.77-4.56 0-3 3.48-4.07 5.87-4.05s2.11-3.15 0-3.4Z"
          fill="#fca9a9" class="fill-acfddf"></path>
    <path d="m763.34 450.47-1.83 2.53a1.69 1.69 0 0 0 .6 2.28 1.72 1.72 0 0 0 2.28-.6l1.69-2.63a1.6 1.6 0 0 0-.57-2.17 1.62 1.62 0 0 0-2.17.57Z"
          fill="#1a1c3f" class="fill-1a1c3f"></path>
    <path d="M678.9 725.47c7.54 11.2 17.88 19.73 28.81 27.47 11.58 8.21 25.38 15.57 33.51 27.41 1.9 2.78 7 1.17 5.77-2.43-2.07-6.13-7.78-10.15-12.86-13.73-5.83-4.11-12-7.74-18-11.49-12.77-7.89-25.46-16.6-34.4-28.87-1.21-1.67-4-.12-2.81 1.64ZM766.63 696.43a55.13 55.13 0 0 1-10.9 22.8 2.84 2.84 0 0 0 .57 4.39c13 7.85 24.64 17.33 34.13 29.25 9.67 12.15 14.85 26.27 22.36 39.66A61.42 61.42 0 0 0 826 809.07c5.86 5.11 12.37 9.42 18.22 14.55a120.24 120.24 0 0 1 16.69 18c2.35 3.11 4.51 6.35 6.57 9.66 1.41 2.27 2.22 4.17 4.73 5.18a1.89 1.89 0 0 0 1.84-.48 2.76 2.76 0 0 0 1.13-2.53 1.83 1.83 0 0 0-.92-1.61l-.52-.25c-2.11-1-4 2-1.86 3.18a2.94 2.94 0 0 0-.1-4.06c-.57-1-1.15-1.91-1.75-2.85-.89-1.41-1.81-2.81-2.76-4.18q-3-4.33-6.35-8.4a122.08 122.08 0 0 0-16.47-16.55c-6-4.95-12.32-9.42-17.76-15s-9.41-12.37-12.79-19.49c-6.3-13.32-12.19-26.15-21.6-37.65a112.65 112.65 0 0 0-33.16-27.77l1 3.83a53.24 53.24 0 0 0 10-25.72c.23-2-3.06-2.4-3.49-.47ZM876.48 861.42c.3-.14.61-.28.9-.43a7.57 7.57 0 0 0 .84-.55 2.07 2.07 0 0 0 .88-1.15 1.92 1.92 0 0 0-2.82-2.16 10.58 10.58 0 0 0-1.15.84l-.75.73a1.74 1.74 0 0 0-.14 2.28 1.76 1.76 0 0 0 2.24.44ZM704.94 759.06c-1.65 8.9-3.31 17.82-5.6 26.58a130.47 130.47 0 0 1-3.87 12.53 25.92 25.92 0 0 1-2.65 5.76 7.88 7.88 0 0 1-4.19 3.44q-4.82.64-3.89-3.35c1.24-2.32-.78-4.52-3.17-4.13-4.73.76-11.79-3.27-16-5.15-4.48-2-8.83-4.3-13.08-6.74-8.81-5.07-17.18-10.86-25.5-16.69q-13.41-9.4-26.81-18.84c-9.1-6.39-18.16-14.18-28-19.35-2.38-1.26-5.14 1.9-3 3.87 8.61 7.87 19.48 14 29 20.74 9.86 6.93 19.69 13.89 29.59 20.77a264.33 264.33 0 0 0 27.24 17.13 135.77 135.77 0 0 0 14 6.43c4.47 1.75 9.16 3.91 14 3.25l-3.17-4.13a7.87 7.87 0 0 0 3.66 11.18c5.07 2.2 10.5-1 13.3-5.21 4-6.07 5.46-14.25 7-21.24 1.88-8.58 3-17.29 4.23-26 .28-2-2.75-3-3.13-.86Z"
          fill="#82218f" class="fill-22906c"></path>
    <path d="m566.89 738 4.55-5.44a1.84 1.84 0 0 0 0-2.55 1.8 1.8 0 0 0-2.55 0l-4.4 5.58a1.75 1.75 0 0 0 0 2.41 1.71 1.71 0 0 0 2.4 0Z"
          fill="#82218f" class="fill-22906c"></path>
    <path d="M719.22 532.19c-22.68-5.66-46.14-7.42-69.48-8.64-20.23-1.06-40.59-1.74-60.67.89a186.63 186.63 0 0 0-68.68 23.25 25.43 25.43 0 0 0-7.39 5.67c-1.95 2.44-3 5.81-2 8.75-5.22-1.2-10.3 3.74-11.11 9s1.45 10.56 4 15.26a97.88 97.88 0 0 0 7.15 11.09c2.29 3.08 4.95 6.15 8.59 7.36s8.41-.28 9.52-4c.21-.71.35-1.57 1-1.92 1.21-.62 2.21 1.06 3.15 2 1.41 1.48 3.72 1.54 5.76 1.43 23.42-1.33 45.48-13 68.94-13.26 16.62-.18 32.67 5.41 48.88 9.07a213.9 213.9 0 0 0 37.2 5.05"
          fill="#3d76bf" class="fill-3fc091"></path>
    <path d="M539.15 602.47c23.42-1.33 45.48-13 68.94-13.26 16.62-.18 32.67 5.41 48.88 9.07a213.9 213.9 0 0 0 37.2 5.05L714.71 545c-19.63-4-39.74-5.41-59.76-6.46-20.23-1.06-40.59-1.73-60.68.89a186.63 186.63 0 0 0-68.68 23.25 25.25 25.25 0 0 0-7.38 5.68c-2 2.43-3 5.8-2 8.75-5.23-1.21-10.31 3.73-11.12 9a14.84 14.84 0 0 0-.17 2 99.11 99.11 0 0 0 6.17 9.38c2.29 3.08 4.95 6.15 8.59 7.36s8.41-.28 9.52-4c.21-.71.35-1.57 1-1.92 1.21-.62 2.21 1.06 3.15 2 1.45 1.59 3.76 1.65 5.8 1.54Z"
          fill="#82218f" class="fill-22906c"></path>
    <path d="M719.79 530.09c-30.37-7.89-62.32-9.81-93.57-11s-61.25 2.78-89.88 15.43c-11.23 5-33.37 12.84-29.58 28.77l4.24-5.59c-6.95-.91-13.21 4.46-15 11-2.43 8.72 2.65 17.65 7.16 24.75 3.92 6.17 8.83 14.09 16.55 15.76a12.78 12.78 0 0 0 8.84-1.35 10.18 10.18 0 0 0 3.21-2.88c.59-.83.88-2.35 1.43-3l-3 1.22c-1 .1 3 2.77 4.09 3.08 2.67.76 5.61.39 8.32.13a138.45 138.45 0 0 0 20.11-3.7c14-3.53 28.09-8.64 42.7-9.16 15.06-.54 29.55 4.06 44 7.81a232.93 232.93 0 0 0 44.75 7.16c6.62.4 6.64-10 0-10.32a244.51 244.51 0 0 1-47.65-7.26c-14.93-3.65-30-7.08-45.43-5.52-14.76 1.48-28.77 6.39-43.13 9.83-3.42.82-6.86 1.57-10.34 2.13-2.71.43-8.4 2-11.07.83-2.32-1.06-2.85-3.47-5.88-3.41-2.78.06-3.86 1.8-5.14 3.93-4.58 7.65-12.62-5.77-15-9.57-2.54-4.06-5.32-8.51-6.17-13.3-.59-3.3.62-10.14 5.5-9.46 3.32.47 6.25-1.86 5.43-5.43-1.68-7.31 13.47-12.79 18.4-15.18a189.53 189.53 0 0 1 23.68-9.43 205.89 205.89 0 0 1 52.2-9.59c18.11-1.06 36.28-.37 54.38.63 18.4 1 36.71 2.79 54.7 6.91 2.72.62 3.87-3.48 1.15-4.19ZM894.76 493c5.41-4 11-6.76 17.78-7.19 3.71-.23 6.34.31 8.32 3.61 2.43 4.06 3.13 9.56-3.44 6-2.42-1.3-5.71.87-4.83 3.71a14.6 14.6 0 0 1 .94 4.39c.47 3.9 6 4.11 6.24 0a17.13 17.13 0 0 0-.85-6.14l-4.82 3.71c4.45 2.44 11.34 3.57 14-1.92 2.41-4.9-.08-11.4-3.11-15.43-7.92-10.58-26-1.74-32.64 6.18-1.31 1.56.45 4.49 2.37 3.07ZM763.73 540.59c-5 2.68-7.86 7.81-8.86 13.22a2.76 2.76 0 0 0 4 3.08 14.87 14.87 0 0 0 4.29-3.56h-4.49c11.46 14.13 13.78 35.44.07 49-12.69 12.52-32.85 18.46-37.17 37.83l6.61 1.82 1.16-5.45c.57-2.67-2.4-5.68-5-3.86a50.16 50.16 0 0 0-10 9c-2.42 2.86.59 7.36 4.13 5.35a25.37 25.37 0 0 0 7-5.79l-5.71-3.32a23.6 23.6 0 0 1-1.68 5.72c-1.56 3.51 2.31 6.76 5.36 4.14a21.88 21.88 0 0 0 5.17-6.46l-6.35-1.72-.24 6.2c-.16 4.09 5.41 4.31 6.7.91a38 38 0 0 0 2.19-9.52h-6.83a24.81 24.81 0 0 0 1.61 9.06 3.44 3.44 0 0 0 6.58 0 15.27 15.27 0 0 0 .86-6.46c-.32-4.35-7.15-4.39-6.82 0a10.53 10.53 0 0 1-.62 4.65h6.58a19.33 19.33 0 0 1-1.36-7.25c0-4.49-6.36-4.27-6.83 0a30.61 30.61 0 0 1-1.94 7.71l6.7.9.24-6.2c.13-3.36-4.77-4.67-6.36-1.72a16.81 16.81 0 0 1-4.1 5.07l5.35 4.14a31.63 31.63 0 0 0 2.37-7.36c.55-3-3.29-6.17-5.7-3.32a20 20 0 0 1-5.66 4.73l4.13 5.36a43 43 0 0 1 8.64-7.92l-5-3.87-1.17 5.45c-.93 4.29 5.63 6.13 6.61 1.82 4.8-21.34 32.52-25.51 42.42-43.77 8.5-15.7 5.13-36.78-7.44-49.34a3.21 3.21 0 0 0-5 .64 5.77 5.77 0 0 1-2.06 2.7l4.11 2.36c.45-4.64 2.67-7.74 5.74-11a1.86 1.86 0 0 0-2.24-2.9ZM780.65 544.67a18.11 18.11 0 0 0 0 13.16 2.78 2.78 0 0 0 5 .65 12 12 0 0 0 2.42-8.34l-5.91.8c2.13 7.72 13.18 2.93 17.83.67 10.35-5 21.55-15.35 19.11-27.93-2.29-11.76-14-19.4-15.88-31.19-.88-5.66 3.82-11.27 9.77-9.27 2.43.81 10.21 7.9 3.59 8.66-4.16.48-6.74-8.59-7.55-11.58a22.85 22.85 0 0 1 4.29-20.72l-5-3.87a19.78 19.78 0 0 0-3 8c-.38 2.68 2.05 5.07 4.71 3.62a46.08 46.08 0 0 0 8.35-5.92l-4.53-4.54-7.54 6.79c-2.24 2-.3 5.26 2.28 5.48a19.87 19.87 0 0 0 11.68-2.59L817 461a48.44 48.44 0 0 1-9 5.25c-3.78 1.7-.5 7.27 3.26 5.58a48.46 48.46 0 0 0 9-5.27c3.27-2.4.46-7.63-3.25-5.56a13.9 13.9 0 0 1-8.43 1.72l2.27 5.49 7.52-6.79c3.08-2.78-1.45-7.26-4.53-4.54a38.7 38.7 0 0 1-7.06 4.93l4.71 3.62a15.52 15.52 0 0 1 2.33-6.48c1.91-3-2.65-6.69-5-3.88-8.55 10.15-8.7 23.92-2.61 35.34 2.13 4 5.73 8.37 10.75 7.86s9-5.06 8.42-10c-1.38-11.36-16.82-14.78-24.39-7.66-10.57 9.94 1 24.49 6.72 33.42 2.55 4 5.35 8.45 5.33 13.32 0 5.61-4.27 10-8.33 13.42a43.2 43.2 0 0 1-9.63 5.93 30.92 30.92 0 0 1-4 1.61c-.61.19-1.3.31-1.9.52-1 .37-1.48-.4-1.17.54-1-3.06-6.24-2.74-5.92.8a8.83 8.83 0 0 1-1.13 5.58h4.73a17.27 17.27 0 0 1-1.33-10.05 1.88 1.88 0 0 0-3.63-1ZM86.8 831.08c38.74-2 77.81-.49 116.58 0 48.75.67 97.5 1.69 146.26 1.87 18.54.07 37.14.18 55.66-.79 3.63-.19 3.63-5.89 0-5.66-38.71 2.48-77.83 1.18-116.58.85-48.75-.42-97.51-1.26-146.26-1-18.54.09-37.15.1-55.66 1.29-2.17.14-2.2 3.51 0 3.4ZM103.21 863.4c34.42-1.3 69.11 1 103.5 2.11 43.44 1.45 86.87 3.22 130.33 3.91 16.27.26 33 1.16 49.24-.37 2.92-.27 3-4.76 0-4.63-34.47 1.47-69 .39-103.45-.61-43.44-1.27-86.88-3-130.34-3.81-16.41-.29-32.88-.69-49.28.08-2.13.1-2.15 3.41 0 3.32Z"
          fill="#1a1c3f" class="fill-1a1c3f"></path>
    <path d="M187.18 857.77c-12.17-.54-30.2-3.4-40.77 4.06-8.83 6.24-11.81 18-12.67 28.21-.52 6.25.35 12.79 3.6 18.16 8.5 14 29.06 12.22 42.44 7.9 8.19-2.65 14.31-6.45 17.16-15.05 3.1-9.34 1.61-19.8.27-29.32-.7-5-2-10.32-6-13.36"
          fill="#1a1c3f" class="fill-1a1c3f"></path>
    <path d="M187.63 856.13c-13.55-1.86-30.88-5.81-43.1 2.49s-16.61 27.09-14.32 41c2.6 15.75 15.81 23.55 30.92 23.53 12.37 0 29.09-3.61 36.32-14.64 5.35-8.17 5.15-18.91 4-28.22-1-8.17-1.51-18.22-8.3-23.89-2.69-2.25-6.58 1.51-3.9 3.89 6.28 5.59 6 17.5 6.16 25.26.16 8.63-1.22 18.32-9 23.4-10 6.49-27.88 9.1-38.74 3.57-14.58-7.43-11.88-31.46-3.76-42.92 9.35-13.22 29.34-9.62 43.28-10.16 1.81-.07 2.44-3.07.45-3.34Z"
          fill="#1a1c3f" class="fill-1a1c3f"></path>
    <path d="M149.8 881.34c-.59.41-.05 3.41-.11 4.18s-.51 2.08-.47 3l-.25.88c1 .3 1.44.12 1.28-.52.36-1-.16-2.9-.12-4 .06-1.46.58-2.8.55-4.25 0-2.16-2.9-3.59-4.46-1.85-2.5 2.79-2.29 8.32-1.44 11.81s5 6 7.88 3c2.5-2.57 2.14-8.24 1.46-11.45-.59-2.78-3.54-6.48-6.33-3.45-1.23 1.32.38 3.72 2 2.61Z"
          fill="#82218f" class="fill-22906c"></path>
    <path d="M722.52 486.29c1.16-.69 1.51-2.23 2.44-3.21a10.46 10.46 0 0 1 3.15-2.24 2.08 2.08 0 0 0 .74-2.83 2.12 2.12 0 0 0-2.82-.74 10.06 10.06 0 0 0-4.06 3.19c-.91 1.18-2.37 3.34-1.78 4.88a1.61 1.61 0 0 0 2.33 1Z"
          fill="#3d76bf" class="fill-3fc091"></path>
    <path d="M191.25 744.08c2.54-3.88 4.58-8.16 7.88-11.47a41.13 41.13 0 0 1 10.13-7.06 67.23 67.23 0 0 1 12.51-5.08c5.32-1.56 9.52-1 14.91-.58 2.8.23 2.76-3.58.6-4.48a35.4 35.4 0 0 0-31.8 2.1c-9.95 5.67-12.71 15-17.29 24.78a1.77 1.77 0 0 0 3.06 1.79ZM245.83 723.18c2.52 0 2.52-3.91 0-3.91s-2.52 3.91 0 3.91Z"
          fill="#fca9a9" class="fill-acfddf"></path>
    <path d="M105.26 33.69C89.34 53.23 74.71 73.87 59.8 94.17l-22.24 30.28C34 129.23 30.48 134 27 138.79c-2.83 4-5.4 8.14-4.73 13.2.62 4.66 3.82 8.4 6.55 12l12 15.91 23.35 31q22.77 30.24 45.63 60.39l11.41 15.1c3.5 4.63 6.72 9.85 10.73 14.05 7.25 7.6 13.46-.36 17-6.9 11-20.34 19.91-41.74 28.2-63.31 8.95-23.26 17.48-46.68 26.18-70 3.24-8.7 10.07-20.19 5.8-29.56-2.19-4.82-5.78-9.21-8.74-13.58q-5.32-7.87-10.77-15.67-23.12-33-48.32-64.55c-4.43-5.52-9.46-11.86-16.48-14.11-9.18-2.95-16.17 3.41-20.83 10.68-2 3.14 2.86 5.87 5 2.89 5.17-7.36 11.53-11 19.19-4.76 5.31 4.29 9.38 10.29 13.56 15.6q20 25.47 38.74 51.94 9.33 13.2 18.31 26.64c3.08 4.61 6.4 8.55 5.14 14.43-1.14 5.33-3.64 10.56-5.54 15.65q-11.38 30.33-22.67 60.64c-7.52 20-15.3 39.88-24.62 59.09q-3.24 6.66-6.72 13.2a40.88 40.88 0 0 1-3.33 6c-3.06 3.85-5.06.77-7.16-2q-10.23-13.5-20.4-27c-27-35.76-54.41-71.26-81.12-107.24-1.72-2.32-4-5-4.11-8s1.92-5.66 3.54-8c3.54-5.07 7.25-10 10.88-15.07L64.66 97c14.64-20.22 29.68-40.29 43.27-61.25 1-1.59-1.44-3.57-2.67-2.06Z"
          fill="#1a1c3f" class="fill-1a1c3f"></path>
    <path d="M116.25 372.94a3.85 3.85 0 0 1-2-4.86c.52-1.17-1.21-2.18-1.72-1a5.38 5.38 0 0 0 3.07 7.29c.82.29 1.4-1 .6-1.42Z"
          fill="#fca9a9" class="fill-acfddf"></path>
    <path d="M128.06 138.66c-2.59 2.21-5.28 5.14-4 8.79.82 2.42 3.33 4.5 6 3.68 4.92-1.5 2.56-9.65-2.49-8.16a2.6 2.6 0 0 0-1.53 3.76c13.84 27 28 53.83 40.71 81.41 12.89 27.9 24.88 56.2 36.3 84.73 11.19 27.94 21.89 56.07 32.61 84.19 5.36 14.07 10.64 28.17 16 42.22 5.12 13.39 11 26.92 7.73 41.52-2.84 12.72-10.78 23.84-20.22 32.58-10.41 9.66-23.35 15.68-35.26 23.18-21.17 13.32-37.72 32.16-49.79 54a214.66 214.66 0 0 0-14.94 34c-4.09 11.88-9.29 25.52-8.42 38.24.75 11 8.09 22.88 20.48 22.24 10-.52 17.94-12.3 11.17-21a12.07 12.07 0 0 0-13-4.12c-6.08 2-8.11 8.64-8.92 14.32-1.63 11.42-.62 23.86 5.44 33.91 5.71 9.47 13.92 16.85 23.31 22.57 10 6.08 20.88 11 32.41 13 4.52.79 6.5-5.71 1.93-7-9.32-2.64-19.14-5.12-27.55-10a57.26 57.26 0 0 1-19.4-17.8 52.81 52.81 0 0 1-8.43-25.73c-.17-3.84-.85-12.9 2.7-15.59a4.58 4.58 0 0 1 7 2.47c1.21 3.92-2.47 7.62-6 8.26-7 1.24-12.1-5-13.85-11-2-7-.36-14.52 1.34-21.38a234.71 234.71 0 0 1 10.78-33c8.64-20.93 20.82-40.72 37.36-56.33 17.37-16.38 40.37-24.92 57.09-42.11C259.69 498.78 268 478.48 262 457c-3.57-12.65-8.45-25-12.85-37.41-4.51-12.68-9-25.37-13.62-38q-13.77-38-28.89-75.48c-11.07-27.53-22.68-54.86-35.12-81.8-12.56-27.18-25.61-54.44-41.06-80.12l-1.53 3.76c-.7-2.84-.06-5 1.91-6.49 1.83-1.78-.87-4.38-2.76-2.76Z"
          fill="#3d76bf" class="fill-3fc091"></path>
    <path d="M185.32 599.8a56 56 0 0 0 .61-27c-.56-2.47-1.34-5-3.1-6.84s-4.71-2.74-6.89-1.45c-2.64 1.57-2.55 6.12.15 7.58-3.12-4.21-6.3-8.49-10.53-11.58s-9.76-4.86-14.8-3.41a4 4 0 0 0-2.16 1.25c-1.34 1.73.23 4.25 2.05 5.48s4.11 2.18 4.85 4.24c-3-1.66-6.2-3.37-9.64-3.37s-7.15 2.35-7.37 5.79c-.27 4.29 4.46 7 8.45 8.55-4.26-2-9.53-4-13.44-1.38a8.69 8.69 0 0 0-3.4 7.48 17.49 17.49 0 0 0 2.7 8c1.07 1.84 2.64 3.78 4.77 3.82s3.67-3.34 1.75-4.25c.74 5.21 3.85 9.86 7.79 13.34s8.69 5.92 13.47 8.09"
          fill="#fca9a9" class="fill-acfddf"></path>
    <path d="M393.34 630.1c-7.09-5.18-16.63-5.92-25.57-6-33.14-.41-66.07 5.07-99.21 5.93a54.25 54.25 0 0 1-12.93-.78 46.49 46.49 0 0 1-13-5.48 123.44 123.44 0 0 1-25.29-19.09c-3.24-3.19-6.34-6.57-10.2-9.06s-8.7-4-13.21-2.88c-4-4.93-12.23-5-17.82-1.77s-9.1 8.85-12.17 14.35c-1.71 3.05-3.38 6.26-3.48 9.72s1.86 7.2 5.34 8.19c-3.27 2.82-3.84 7.67-2.52 11.68s4.2 7.35 7.08 10.53a290.26 290.26 0 0 0 28.92 28A121.41 121.41 0 0 0 215.13 685c18.23 10.79 40.29 14.12 61.76 14.69s43-1.38 64.41-.11"
          fill="#1a1c3f" class="fill-1a1c3f"></path>
    <path d="M394.52 628.92c-12.16-10.94-33.19-8.19-48.17-7.47-19.48.93-38.87 3.12-58.32 4.42-9.35.63-19.4 1.85-28.75.71s-17.94-7-25.45-12.37-13.41-11.92-20.22-17.92c-5.89-5.19-12.7-8.37-20.63-6.94l3.39.89c-8.93-9.65-23.09-4-30.05 4.92-6.6 8.42-16 25.56-1.47 31.4l-1.54-5.82c-9.79 10-.28 21.92 7 29.83A267.21 267.21 0 0 0 203 681c23.84 18.43 53.28 22.66 82.66 22.8 18.55.09 37.08-1 55.62.15 5.59.36 5.62-8.46 0-8.72-34.51-1.57-70.13 4.92-103.91-4.77-16.51-4.74-29.93-14.13-42.6-25.49-6.37-5.7-12.45-11.73-18.28-18-4.55-4.89-15.11-14.34-8.27-21.33 2-2 .84-4.87-1.54-5.82-8.16-3.27 3.44-19 6.9-22.5 2.72-2.79 6.05-4.85 10-5.11a10.4 10.4 0 0 1 4.94.78c1.57.7 2.47 2.28 4 2.88s2.87 0 4.38-.06a14.07 14.07 0 0 1 6.11 1.48c3.93 1.82 7 4.94 10 7.94a137.24 137.24 0 0 0 18.84 15.68c6.45 4.41 13.51 8.85 21.11 11 8.11 2.25 17 1.33 25.25.9 18.51-1 36.93-3 55.41-4.41 10.37-.76 20.74-1.24 31.14-1.35 9.43-.11 19 .2 27.65 4.49 1.6.8 3.5-1.28 2-2.61Z"
          fill="#1a1c3f" class="fill-1a1c3f"></path>
    <path d="M186.85 600.23a52.88 52.88 0 0 0 2.59-21.18c-.46-5.38-1.11-12.26-5.59-15.95-7.94-6.52-17.95 4.75-9.87 11.06 2.39 1.87 6.87-.6 4.68-3.61-6-8.34-13.41-17.76-24.83-17.36-3.93.13-8.68 1.69-9.08 6.24-.5 5.73 5.68 6.39 7.84 10.3l4.62-4.62c-6.5-3.53-16.82-6.71-21.13 1.84-3.83 7.58 4 12.79 10 15.3 3.5 1.47 6.06-4.56 2.6-6.16-5.43-2.52-12.22-5-17.54-.86C126.28 579 126 585.6 128 591c1.58 4.15 5.11 10.23 10.46 9.25 4.57-.84 6.8-6.62 3.24-9.88a3.4 3.4 0 0 0-5.64 3.28c2.24 11.85 12.58 18.67 22.56 23.88 4.93 2.58 8.27-5 3-7.1-8.78-3.53-17.16-8.56-19.05-18.57l-5.64 3.28a3.16 3.16 0 0 0-.71-2.94 12.28 12.28 0 0 1-1.33-2.23c-1-1.95-1.8-4.58-1.22-6.79 1.48-5.58 8.11-2.83 11.57-1.23l2.6-6.16c-2.35-1-8.18-3.75-4.67-6.69 3.09-2.58 7.71.3 10.63 1.88a3.4 3.4 0 0 0 4.62-4.62c-1.21-2.19-2.9-3.36-4.93-4.74-1.53-1-2.14-.75-.75-1.45s4.1 0 5.58.41c6.68 2 11.17 7.7 15.19 13l4.08-4.09-.58-.83c.42-2 1.29-2.41 2.58-1.33 1.75.55 2.34 2 3 3.56a35.33 35.33 0 0 1 2.1 10 65 65 0 0 1-.92 18.52 1.59 1.59 0 0 0 3.07.85Z"
          fill="#1a1c3f" class="fill-1a1c3f"></path>
    <path d="M230.71 613.5c10.71 13 27.4 16 43.39 16.09 9.66.07 19.35-.47 29-.9 10.49-.48 21.12-.67 31.55-1.85 2.89-.33 3.06-4.68 0-4.64-18.31.2-36.67 1.78-55 2.31-16.4.48-34.77-.45-46.71-13.26-1.42-1.53-3.53.69-2.25 2.25ZM285.68 703.69c12.06 2.62 25.31 2.06 37.52 1q8.85-.76 17.59-2.39c5.12-1 10.77-1.76 15-4.95 2.2-1.64.33-5.12-2.19-3.76-9.65 5.21-22.55 5.95-33.29 6.84-11.48.94-22.79 0-34.24.13-1.75 0-2.23 2.73-.43 3.12Z"
          fill="#82218f" class="fill-22906c"></path>
    <path d="M370.64 404.16c20.05-.52 40.08-1.19 60.14-1.05 2.22 0 3.83-3.13 1.94-4.69-6.06-5-8.39-14.43-3-20.86 5.14-6.11 16.34-5.72 21 .81 2.15 3 7.64 1.34 6.37-2.69-3.84-12.11-1.28-24.16 5.38-34.81 6.44-10.29 17.69-20.52 30.19-22 12.29-1.44 23.26 7.26 29.16 17.37 7.23 12.4 8.18 27.4 9.2 41.38.27 3.76 5.91 6.22 7.84 2.12 4.07-8.64 13.07-14.68 22.85-13.66 10.5 1.09 15.79 9.07 20.32 17.54 1.69 3.15 7 1.78 6.84-1.85-.65-12.77-13.63-22.77-25.71-24.17-13-1.55-26 6.09-31.54 17.9l7.84 2.13c-1.26-16.31-2.61-34.05-12.11-48-7.92-11.63-21.17-20.51-35.73-18.63-28.34 3.63-51.63 39.48-41.22 66.55l5.82-3.39c-7.63-9-22.7-10.41-30.93-1.32-7.85 8.67-5.66 23.71 4.1 29.91l1.39-5.13c-20 1.6-40.08 2.36-60.14 3.3-2.08.09-2.1 3.3 0 3.25ZM60.65 487.71l48.46.63a2.74 2.74 0 0 0 2.61-3.42c-1.54-8.29-5.34-23.41 6.17-26.7 10.21-2.92 18.16 7.43 23.42 14.49 2.16 2.9 7.95 1.36 6.43-2.71-5.12-13.7-8.74-34.9 7.39-43 7-3.54 14.93-.91 20.29 4.35 5.71 5.6 7.82 13.29 10.6 20.53 1.29 3.36 7.45 3.33 6.92-.94-2.23-18-18.23-40.29-38.91-32.21-8.28 3.23-14.33 10.89-16.83 19.29-3.37 11.27-.38 23.25 3.75 33.88l6.43-2.71c-7.5-9.94-18.74-22.46-32.75-17s-12.22 22.84-8.13 34.2l2.61-3.43-48.46.94a1.92 1.92 0 0 0 0 3.84Z"
          fill="#fca9a9" class="fill-acfddf"></path>
</svg>