<svg id="Layer_1" data-name="Layer 1" xmlns="http://www.w3.org/2000/svg" xmlns:xlink="http://www.w3.org/1999/xlink" viewBox="0 0 996.17 157.83"><defs><style>.cls-1{fill:#29abe2;}.cls-2{fill:url(#linear-gradient);}</style><linearGradient id="linear-gradient" x1="-44.14" y1="167.34" x2="952.03" y2="167.34" gradientUnits="userSpaceOnUse"><stop offset="0.01" stop-color="#d437ad"/><stop offset="0.5" stop-color="#7600ff"/><stop offset="0.62" stop-color="#6e2cff"/><stop offset="0.88" stop-color="#5c8eff"/><stop offset="1" stop-color="#55b5ff"/></linearGradient></defs><title>logo_full</title><path class="cls-1" d="M42,198.83c2.46,12.85,11.45,18.25,25.39,18.25,13.06,0,19.08-4.58,19.08-13.13,0-9.69-6.53-13.36-29.8-18.92C13.15,174.5,4.49,158.62,4.49,138.79c0-24.74,18.16-45.45,59.17-45.45,42.64,0,60.05,21.63,62.11,44.88H84.06c-1.13-7.91-5.18-16-20.5-16-9.89,0-16,3.73-16,11.71s5.4,11.09,28.12,16.66c45.4,11.34,54.41,27.7,54.41,48.66,0,27.68-21.34,46.91-64.59,46.91-40.75,0-62.34-19-65.6-47.37Z" transform="translate(0.06 -88.43)"/><path class="cls-1" d="M264.68,187.23c0,35-21.82,59-60.34,59-39.74,0-59.46-26.11-59.46-58.53,0-33.84,20.58-59.09,60.81-59.09C242.68,128.56,264.68,153.25,264.68,187.23Zm-77.13.22c0,21.36,6.3,30.73,17.44,30.73s16.95-9.51,16.95-30.37c0-23.12-5.82-31-17.16-31C194.43,156.79,187.55,164.18,187.55,187.45Z" transform="translate(0.06 -88.43)"/><path class="cls-1" d="M283.23,243.46v-155h41.71v155Z" transform="translate(0.06 -88.43)"/><path class="cls-1" d="M457.62,207.62c0,9.94,0,25.14.21,35.84H416.91c-.5-2.69-.72-8.85-.86-11.83-7.22,10.61-16.85,14.63-31,14.63-24.06,0-36.85-14.62-36.85-41.22V131.28h41.64v66.83c0,10.19,2.89,17.35,12.3,17.35,9.84,0,13.76-5.51,13.76-22.13V131.28h41.72Z" transform="translate(0.06 -88.43)"/><path class="cls-1" d="M481.33,162c0-10.3,0-21.15-.22-30.7h40c.43,2.57,1.07,8,1.29,12,6.07-7.69,15.45-14.68,31.57-14.68,16.79,0,24.91,8.27,28.61,15.44,6.48-7.57,15.74-15.44,34.39-15.44,20.88,0,36.35,13.18,36.35,41.93v73H612.53V174.1c0-8.29-2.75-15.09-11.67-15.09C591.51,159,588,165.08,588,178v65.51H547v-69c0-8.43-2.12-15.34-11.46-15.34s-13.08,5.23-13.08,19.79v64.53H481.33Z" transform="translate(0.06 -88.43)"/><path class="cls-1" d="M779.88,210.18c0,12.66.63,29.51,1.34,33.28H742.74A47.4,47.4,0,0,1,741,233.1c-5.34,7-13.59,13.08-31.64,13.08-25.15,0-38.75-15.81-38.75-35.77,0-26.37,21.14-37.76,55.39-37.76h13.76v-6.21c0-7.19-2.56-12.46-12.61-12.46-9.44,0-11.92,4.33-12.9,11.57h-38.5c1.49-18.73,12.59-37.13,52.46-37,36.76.14,51.66,14.32,51.66,41.37Zm-40.11-16.51h-9.23c-14.38,0-19.1,5-19.1,13.32,0,6.6,3.9,11.89,12.2,11.89,14.14,0,16.13-9.69,16.13-21.75Z" transform="translate(0.06 -88.43)"/><path class="cls-1" d="M792.93,131.28h16.16V102.2h41.26v29.08H870v28.13H850.35v48.14c0,6.94,2.19,9.57,10.95,9.57a57.52,57.52,0,0,0,5.82-.22v25.77c-6.5,2.14-17.37,2.59-24.31,2.59-26.51,0-33.95-12.95-33.95-34.14V159.41H792.93Z" transform="translate(0.06 -88.43)"/><path class="cls-1" d="M927.58,88.43V143c5.53-6.86,14.9-14.45,31.68-14.45,23.12,0,36.85,14.57,36.85,42.37v72.53h-41.5V175.93c0-11.23-3.51-16.79-12.78-16.79-12.56,0-14.25,9.77-14.25,23.51v60.81H885.87v-155Z" transform="translate(0.06 -88.43)"/><path class="cls-2" d="M42,198.83c2.46,12.85,11.45,18.25,25.39,18.25,13.06,0,19.08-4.58,19.08-13.13,0-9.69-6.53-13.36-29.8-18.92C13.15,174.5,4.49,158.62,4.49,138.79c0-24.74,18.16-45.45,59.17-45.45,42.64,0,60.05,21.63,62.11,44.88H84.06c-1.13-7.91-5.18-16-20.5-16-9.89,0-16,3.73-16,11.71s5.4,11.09,28.12,16.66c45.4,11.34,54.41,27.7,54.41,48.66,0,27.68-21.34,46.91-64.59,46.91-40.75,0-62.34-19-65.6-47.37Z" transform="translate(0.06 -88.43)"/><path class="cls-2" d="M264.68,187.23c0,35-21.82,59-60.34,59-39.74,0-59.46-26.11-59.46-58.53,0-33.84,20.58-59.09,60.81-59.09C242.68,128.56,264.68,153.25,264.68,187.23Zm-77.13.22c0,21.36,6.3,30.73,17.44,30.73s16.95-9.51,16.95-30.37c0-23.12-5.82-31-17.16-31C194.43,156.79,187.55,164.18,187.55,187.45Z" transform="translate(0.06 -88.43)"/><path class="cls-2" d="M283.23,243.46v-155h41.71v155Z" transform="translate(0.06 -88.43)"/><path class="cls-2" d="M457.62,207.62c0,9.94,0,25.14.21,35.84H416.91c-.5-2.69-.72-8.85-.86-11.83-7.22,10.61-16.85,14.63-31,14.63-24.06,0-36.85-14.62-36.85-41.22V131.28h41.64v66.83c0,10.19,2.89,17.35,12.3,17.35,9.84,0,13.76-5.51,13.76-22.13V131.28h41.72Z" transform="translate(0.06 -88.43)"/><path class="cls-2" d="M481.33,162c0-10.3,0-21.15-.22-30.7h40c.43,2.57,1.07,8,1.29,12,6.07-7.69,15.45-14.68,31.57-14.68,16.79,0,24.91,8.27,28.61,15.44,6.48-7.57,15.74-15.44,34.39-15.44,20.88,0,36.35,13.18,36.35,41.93v73H612.53V174.1c0-8.29-2.75-15.09-11.67-15.09C591.51,159,588,165.08,588,178v65.51H547v-69c0-8.43-2.12-15.34-11.46-15.34s-13.08,5.23-13.08,19.79v64.53H481.33Z" transform="translate(0.06 -88.43)"/><path class="cls-2" d="M779.88,210.18c0,12.66.63,29.51,1.34,33.28H742.74A47.4,47.4,0,0,1,741,233.1c-5.34,7-13.59,13.08-31.64,13.08-25.15,0-38.75-15.81-38.75-35.77,0-26.37,21.14-37.76,55.39-37.76h13.76v-6.21c0-7.19-2.56-12.46-12.61-12.46-9.44,0-11.92,4.33-12.9,11.57h-38.5c1.49-18.73,12.59-37.13,52.46-37,36.76.14,51.66,14.32,51.66,41.37Zm-40.11-16.51h-9.23c-14.38,0-19.1,5-19.1,13.32,0,6.6,3.9,11.89,12.2,11.89,14.14,0,16.13-9.69,16.13-21.75Z" transform="translate(0.06 -88.43)"/><path class="cls-2" d="M792.93,131.28h16.16V102.2h41.26v29.08H870v28.13H850.35v48.14c0,6.94,2.19,9.57,10.95,9.57a57.52,57.52,0,0,0,5.82-.22v25.77c-6.5,2.14-17.37,2.59-24.31,2.59-26.51,0-33.95-12.95-33.95-34.14V159.41H792.93Z" transform="translate(0.06 -88.43)"/><path class="cls-2" d="M927.58,88.43V143c5.53-6.86,14.9-14.45,31.68-14.45,23.12,0,36.85,14.57,36.85,42.37v72.53h-41.5V175.93c0-11.23-3.51-16.79-12.78-16.79-12.56,0-14.25,9.77-14.25,23.51v60.81H885.87v-155Z" transform="translate(0.06 -88.43)"/></svg>