<svg data-name="Layer 1" viewBox="0 0 1000 1000" xmlns="http://www.w3.org/2000/svg">
    <path d="M190.68 817.75c-12.62 14.32-28.12 25.07-40.88 39.23s-23 33.48-20.65 53.45a7 7 0 0 0 1.24 3.75c2.4 2.79 6.41-.34 8.61-3.32l22.16-30c-6.8 12.5-12.92 26.64-11.29 41.17.62 5.6 4.16 12.23 9.06 11 2.82-.71 4.58-3.78 6-6.59L185 887.59a91.7 91.7 0 0 0-10.82 37.3 10.89 10.89 0 0 0 .56 5.34c2.27 4.86 9.06 2.68 12.52-1.19 6.76-7.58 9.75-18.87 17.23-25.54 3.4-3 7.5-4.89 11.2-7.45 13.87-9.57 20.8-27.78 25.69-45.22 1.42-5.1 2.3-11.78-1.64-14.77"
          fill="#408dd6" class="fill-3fc091"></path>
    <path d="M190.05 817.12c-20.85 22.55-49.67 38.68-59.83 69.36-1.69 5.1-8.24 32.08 3.37 30.34 5.67-.85 9.69-9 12.67-13l16.29-22.09-2.77-1.62c-5.25 9.78-10 20-11.41 31.17-.87 6.91-1.14 17.71 5.46 22.28 7.23 5 11.77-4.66 14.39-9.75l18.22-35.4c.95-1.84-1.82-3.48-2.8-1.63-6.31 11.87-11.56 26.52-11.15 40.18.34 11.46 12.54 7.76 17.4 1.61 3.64-4.62 6.11-10 9.08-15 4.21-7.12 9.46-10.67 16.28-15C225.59 892 232.13 882 236.89 871a129.57 129.57 0 0 0 7-20.84c1.28-5.34 1.82-11.57-2.57-15.6-2.07-1.9-5.16 1.17-3.09 3.09 4.89 4.58.69 14.09-1 19.38a120.08 120.08 0 0 1-7.19 18.32 59.45 59.45 0 0 1-11.25 15.75c-4.63 4.53-10.75 6.9-15.53 11.21-4.12 3.72-6.86 8.65-9.49 13.46-2.74 5-5.73 12.38-11.27 14.8-10.36 4.53-5.7-14.59-4.61-19.38a90.7 90.7 0 0 1 8.52-22.74l-2.8-1.63-12.81 24.74q-3.2 6.18-6.4 12.37c-1.94 3.74-5.07 10.87-9.93 5.69-5.41-5.78-3.41-17.4-1.75-24.23 2-8.33 5.73-16.11 9.8-23.62a1.61 1.61 0 0 0-2.77-1.62l-12.87 17.32-5.84 7.87c-1.8 2.42-7.57 11.77-10.25 4.77-1.95-5.14.1-13.75 1.39-18.78a71.35 71.35 0 0 1 7.42-17.79c12.84-22.21 35.17-36 51.67-55.11.75-.86-.47-2.11-1.25-1.26Z"
          fill="#408dd6" class="fill-3fc091"></path>
    <path d="M189.42 816.49C168 838.91 139 855.05 128.64 886c-2.09 6.27-8.65 34.28 5 32.46 6.52-.87 10.64-9.15 14.09-13.86l16.25-22.11-5.54-3.24c-5.3 9.93-10.12 20.28-11.6 31.54-1 7.72-1.11 18.89 6 24 8.19 5.87 13.71-4.12 16.83-10.21l18.18-35.42c1.89-3.7-3.64-7-5.6-3.27-6.44 12.16-11.78 27-11.42 41 .33 13 14.39 10.21 20.27 2.81 3.76-4.72 6.31-10.18 9.37-15.34 4.07-6.86 9.09-10.16 15.71-14.29C227.1 893.33 234 883.29 239 871.6a129.16 129.16 0 0 0 7.07-20.9c1.44-6.09 1.84-13.17-3.17-17.73-4.15-3.78-10.3 2.3-6.19 6.18s-.24 13-1.58 17.23a122.55 122.55 0 0 1-6.91 17.82 62.11 62.11 0 0 1-10.77 15.45c-4.51 4.65-10.61 7.05-15.37 11.38-4.21 3.83-7.05 8.88-9.75 13.82-2.53 4.63-5.43 12-10.63 14.21-4.69 2-4.27-2.67-4-6a86 86 0 0 1 1.81-11.52 88.51 88.51 0 0 1 8.34-22.36l-5.6-3.27-12.83 24.73Q166.2 916.86 163 923c-1.38 2.65-3.68 9.07-7.19 5.53-5.13-5.19-3-16.62-1.49-22.8 2-8.2 5.61-15.86 9.62-23.24 2-3.72-3.12-6.48-5.54-3.24l-12.89 17.3-5.87 7.87c-1.13 1.51-2.5 3.92-3.9 5.15l-1 1c-1.65.88-2.39.61-2.21-.83-1.15-2.06-.35-7-.17-9.31a51.35 51.35 0 0 1 1.48-8.8A69.17 69.17 0 0 1 141 874.3c12.73-22.14 34.81-36 50.92-55.29 1.45-1.73-.9-4.2-2.51-2.52Z"
          fill="#3b165c" class="fill-1a1c3f"></path>
    <path d="M800.6 948.55c6.67-66.15-1.78-138.37-24.69-200.75-2.08-5.69-4.43-11.54-8.87-15.64-5.09-4.69-12.17-6.41-19-7.55-34-5.69-68.8-1.25-102.74 4.7q-46.35 8.13-91.94 20c-7.94 2.07-16.32 4.49-21.86 10.58-5.18 5.7-7 13.62-8.59 21.16l-35.1 164.71"
          fill="#ffffff" class="fill-22906c"></path>
    <path d="M802.21 949c5.71-41.8 4.34-84.91-2.61-126.49A431.29 431.29 0 0 0 784.3 760c-2.87-8.82-5.45-18.84-10.87-26.5s-13.85-10.82-22.72-12.5c-45-8.42-92.12 1-136.36 9.86-22.28 4.47-44.79 9.09-66.62 15.42-8.53 2.47-16.77 6.21-21.94 13.76-5.48 8-6.79 18.31-8.75 27.59-11.11 52.34-21.9 104.74-32.85 157.11-1 4.72 6.22 6.75 7.25 2 9.47-43.55 19.15-87 28.49-130.62q3.44-16 6.86-32c1.9-8.86 3.56-18.89 11.62-24.36 7.87-5.35 18.49-6.91 27.54-9.2q16.15-4.08 32.43-7.71c42.37-9.41 86.73-19.14 130.37-16.45 10 .62 21.92 1 31.08 5.58 8.66 4.34 11.38 14.1 14.36 22.58a430 430 0 0 1 15.75 57.5 526 526 0 0 1 9 136.43c-.12 1.84 3 2.32 3.27.44Z"
          fill="#3b165c" class="fill-1a1c3f"></path>
    <path d="M455.33 509.67c5-17.69 19.9-32.07 37.22-41.43s37.06-14.33 56.67-18.65q43.53-9.6 87.89-15.67c22.59-3.09 45.68-5.47 68.21-2.05s44.75 13.38 57.49 30.55c9.66 13 13.14 28.89 15.91 44.37a735 735 0 0 1 10.79 162.51c-.45 10-1.1 20.19 1.24 30 1.1 4.63 2.87 9.2 2.87 13.94 0 10.25-8.2 19-16.93 25.5-23 17.21-52.23 26.12-81.47 31.47-48.86 8.95-99.11 8.93-149 8.86-12.45 0-25.13-.06-36.95-3.58-18.56-5.51-33.1-19.16-42.63-34.6S452 708.18 447 691.09"
          fill="#d13232" class="fill-acfddf"></path>
    <path d="M456.24 509.92c9.39-30.15 41.33-45.12 69.43-53 32.4-9.09 66.13-14.68 99.39-19.55 32.74-4.8 67.82-9.91 99.85 1.26 13.52 4.72 26.51 12.4 35.41 23.82 9.67 12.42 13.35 28 16.13 43.21a724.91 724.91 0 0 1 11.28 104.44q.93 25.71 0 51.44c-.29 8.54-1 17.12-.64 25.66.35 7.91 3 15.07 4.14 22.8 2.45 16.37-15.47 27.82-27.6 34.93-13.51 7.91-28.28 13.44-43.35 17.56-32.53 8.91-66.58 12-100.18 13.47-17.48.74-35 .93-52.49 1-16.94 0-34.76 1.34-51.46-2-31.17-6.25-49.72-33.23-59.76-61.42-2.7-7.58-5-15.29-7.32-23-.82-2.73-5.09-1.58-4.29 1.18 8.5 29.34 19.13 60.11 46 77.62 13.62 8.89 29.17 11.51 45.18 11.88 18.32.43 36.7.15 55-.14 36.79-.6 73.78-2.63 109.93-9.83 16-3.19 31.92-7.5 47-13.9 13.92-5.9 28.65-13.65 39-24.93 4.12-4.48 7.58-9.85 8.48-16 1.23-8.33-3-16.35-3.85-24.52-1-9.11-.15-18.33.2-27.44q.54-14.07.54-28.15A737.9 737.9 0 0 0 784 526.4c-2.49-16.59-4.65-34-11-49.63a68.38 68.38 0 0 0-26.9-32.25c-28-17.93-63-17.84-94.83-14.17a977.63 977.63 0 0 0-107.84 18.91c-29.42 6.79-61.84 16.6-80.33 42.32a58.36 58.36 0 0 0-8.71 17.84 1 1 0 0 0 1.83.5Z"
          fill="#d13232" class="fill-acfddf"></path>
    <path d="M457.15 510.17c9.52-29.55 41.28-44.15 68.92-51.79 32.44-9 66.17-14.52 99.45-19.33 32.44-4.69 67.18-9.68 98.88 1.44 13.1 4.6 25.72 12.1 34.34 23.19 9.48 12.18 13 27.66 15.73 42.54a720.1 720.1 0 0 1 11.21 103.88q.93 25.71.05 51.44c-.29 8.54-1 17.12-.64 25.66.35 8 3 15.25 4.17 23.07 2.34 15.37-15.33 26.29-26.62 32.9-13.37 7.83-27.95 13.28-42.86 17.36-32.35 8.86-66.22 11.92-99.64 13.31-17.48.72-35 .9-52.49.91-16.73 0-34.39 1.35-50.88-2-30.36-6.12-48.37-32.41-58.15-59.9-2.69-7.57-5-15.29-7.36-23-1.68-5.45-10.16-3.17-8.58 2.37 8.49 30 19.64 61.15 47 79 13.94 9.08 29.92 11.78 46.3 12.15 18.32.4 36.7.11 55-.2 37-.63 74.15-2.72 110.48-10 16.13-3.22 32.07-7.58 47.23-14 14.16-6 29.13-13.89 39.67-25.35 4.42-4.83 8.08-10.57 9-17.15 1.24-8.51-2.9-16.46-3.82-24.79-1-9.1-.14-18.33.21-27.44q.54-14.07.54-28.15A743.75 743.75 0 0 0 786 525.86c-2.5-16.6-4.66-34-11-49.64a70.66 70.66 0 0 0-27.88-33.4c-28.34-18.05-63.61-18-95.82-14.25A978 978 0 0 0 543 447.74c-29.75 6.95-62.43 17.07-80.89 43.27a59.29 59.29 0 0 0-8.64 18.16c-.66 2.36 2.91 3.31 3.65 1Z"
          fill="#3b165c" class="fill-1a1c3f"></path>
    <path d="M675.37 425.79c14.91-2.79 30.19.92 44.81 5A903.52 903.52 0 0 1 809 460.41c7.41 2.91 15 6.07 20.54 11.82 13.09 13.62 9.83 35.77 4.08 53.79a318.33 318.33 0 0 1-33.4 72.08c-3.11 5-6.53 10-11.58 13-14.26 8.31-31.45-3.9-47.87-5.36"
          fill="#d13232" class="fill-acfddf"></path>
    <path d="M675.64 426.78c13.72-2.21 27.3.63 40.51 4.28 11.66 3.22 23.24 6.78 34.76 10.45q18.21 5.81 36.17 12.38c11.12 4.07 23.09 7.7 33.39 13.63 20.41 11.76 17.91 36.43 12 55.91a308.87 308.87 0 0 1-29.26 66c-6.51 11.11-13.19 23.56-28 22.52-11.83-.84-22.68-6.86-34.49-8.14-2.48-.27-2.46 3.61 0 3.88 11.82 1.29 22.6 7.32 34.49 8.15 10.74.75 18.6-4.74 24.46-13.33 14.68-21.52 25.74-46.15 34-70.78 6.07-18.08 12.21-42-1.06-58.53-7.09-8.82-18.35-12.54-28.55-16.45q-19.64-7.51-39.6-14.11c-15.12-5-30.37-9.58-45.77-13.65-14.29-3.77-28.84-6.75-43.61-4.14-1.31.23-.74 2.18.54 2Z"
          fill="#d13232" class="fill-acfddf"></path>
    <path d="M675.91 427.76c13.53-2.06 26.91.91 39.89 4.6 11.63 3.31 23.18 7 34.69 10.66q18.21 5.85 36.15 12.46c11 4 22.8 7.64 33 13.53 19.63 11.36 16.79 35.27 11.07 53.93a309.34 309.34 0 0 1-29.16 65.45C795.36 598.87 789.2 611 775.23 610c-11.8-.85-22.68-6.85-34.49-8.13-5-.53-4.92 7.22 0 7.76 11.82 1.29 22.58 7.32 34.49 8.16 11.44.79 19.91-5.17 26.14-14.3 14.78-21.65 25.86-46.46 34.12-71.26 6.26-18.76 12.21-43.29-1.62-60.27-7.35-9-18.84-12.83-29.35-16.83q-19.63-7.47-39.62-14c-15.14-5-30.39-9.49-45.82-13.43-14.54-3.72-29.3-6.58-44.26-3.81-2.61.48-1.47 4.34 1.09 3.94ZM492.19 283.73a99 99 0 0 0-9 48.54c.29 4.21.85 8.45.29 12.63-.6 4.53-2.47 8.73-3.77 13.08a53.46 53.46 0 0 0 .87 32.95c1.21 3.37 2.79 6.78 2.55 10.39a21.74 21.74 0 0 1-2.2 7.12c-3.31 7.58-6.35 15.53-6.76 23.89s2.21 17.32 8.43 22.4c3.8 3.1 8.57 4.52 13.28 5.4a73.71 73.71 0 0 0 46.37-6.61 30.39 30.39 0 0 0 8.51-5.85c4.33-4.48 6.44-10.94 7.26-17.33a54.37 54.37 0 0 0-4.23-28.91"
          fill="#3b165c" class="fill-1a1c3f"></path>
    <path d="M490.55 282.77a96.18 96.18 0 0 0-9.55 29.87 101.48 101.48 0 0 0-1 16.06c.15 6 1.32 12 0 17.9-1.07 4.75-3.18 9.2-4.29 13.94a56.47 56.47 0 0 0-1.35 16.64 57.49 57.49 0 0 0 2.93 14.63c.76 2.24 1.88 4.51 2.22 6.86.56 3.9-1.22 7-2.7 10.47-6.8 15.88-11.65 40 6.51 50.63 8.11 4.77 19.06 5.63 28.26 5.34a79.07 79.07 0 0 0 31-7.46c10.65-5 17-13 19-24.66a56 56 0 0 0-4.55-33.46c-1.81-3.8-8.41-1.09-6.88 2.9 3.48 9.05 5.33 18.78 3.82 28.46-1.6 10.17-6.85 16.2-16.1 20.42a69.73 69.73 0 0 1-28 6.25c-8.68.11-20.46-.5-26.72-7.4-6-6.56-6.26-16.64-4.44-24.82a80 80 0 0 1 4.15-12.71c1.49-3.64 3.49-7.3 3.66-11.31.17-4.29-1.67-8.16-3-12.11a50.3 50.3 0 0 1-2.76-15.56c-.16-9.74 4-17.76 5.52-27.1 1.65-9.9-.91-20.29-.08-30.35a106.2 106.2 0 0 1 7.8-32c.83-2-2.51-3.37-3.46-1.46Z"
          fill="#3b165c" class="fill-1a1c3f"></path>
    <path d="M497.5 273.07a586.36 586.36 0 0 0 .5 100.74c1.08 11.94 2.64 24.2 8.48 34.66s16.95 18.8 28.85 17.88c2.65-.2 5.74-.7 7.58 1.22a7.68 7.68 0 0 1 1.61 4.27l6 37.12c.66 4.09 1.56 8.6 4.89 11.06a13.71 13.71 0 0 0 5.74 2.12c18.2 3.32 44.36-4.38 61.28-11.9 4.77-2.13 9.64-4.31 13.52-7.83s6.67-8.65 6.07-13.87c-12-21-17.71-51.68-15.27-75.35 4.47-43.36 21.59-104.07-19.46-135.11-7.73-5.84-17.2-9-26.73-10.62-26.33-4.63-77.92-2.85-83.2 41.11"
          fill="#ffffff" class="fill-ffffff"></path>
    <path d="M641.94 448.54c-12-21-18.07-45.29-15.63-69 4.46-43.36 22-110.46-19.1-141.5-7.73-5.84-17.2-9-26.73-10.62a121.52 121.52 0 0 0-27.68-1.53c-20 4.22-38.22 15.55-41.25 40.76l.22 4.49a587.49 587.49 0 0 0 .45 100.75c1.09 11.94 2.64 24.2 8.48 34.66s16.95 18.79 28.85 17.88c2.65-.21 5.74-.7 7.58 1.21a7.74 7.74 0 0 1 1.61 4.28l6 37.11c.66 4.09 1.57 8.61 4.89 11.06a13.59 13.59 0 0 0 5.74 2.13 59 59 0 0 0 13.67.67 165 165 0 0 0 33.34-10.69c4.77-2.13 9.64-4.31 13.52-7.83s6.64-8.61 6.04-13.83Z"
          fill="#408dd6" class="fill-3fc091"></path>
    <path d="M644.75 446.9c-12.93-23.08-17.62-47.93-14.41-74.11 2.31-18.84 5.51-37.58 6.47-56.57 1-18.77-.13-38.38-7.9-55.77-8.6-19.24-25.28-31.81-45.88-35.82-10.95-2.13-23.84-3.81-34.74-1A60.69 60.69 0 0 0 524 235.74a45.31 45.31 0 0 0-14.18 22.79 39.49 39.49 0 0 0-1.35 11.32c.12 6.32-.79 12.77-1.11 19.09a562.52 562.52 0 0 0 2 87.26c2.21 21 10.1 48.09 34.89 51.33 2.65.34 5.45-.38 8 0s2.55.87 3.32 3.3a42.11 42.11 0 0 1 .95 5.86l4.08 25.4c.88 5.47 1.16 11.94 4.79 16.44 3.9 4.85 10.72 5.45 16.52 5.71 13.77.64 28.17-5.17 40.64-10.56 10.79-4.67 23.32-11.51 22.62-25.13-.22-4.17-6.73-4.19-6.51 0 .65 12.69-15 17.94-24.64 21.64-11.18 4.3-23.36 8.71-35.48 7.29-3.41-.4-6.78-1-8.76-4-1.28-2-1.57-4.95-2-7.23-1.11-6.5-2.09-13-3.14-19.54-1-6.28-1.46-13-3.12-19.12-1.14-4.25-4.29-6.43-8.63-6.53-5.21-.12-9.64.39-14.59-1.86a32.6 32.6 0 0 1-12.86-11c-6.81-9.74-8.66-22.08-9.79-33.64a573.37 573.37 0 0 1-2.19-78.63q.38-9.39 1-18.76c.27-3.81 0-7.73.4-11.49a39.17 39.17 0 0 1 12.25-24.05c15.53-14.4 37.92-14.53 57.43-9.94s34 18.16 40.56 37c5.76 16.47 6 34.38 4.86 51.62-1.27 19.15-4.67 38.05-6.78 57.11-2.81 25.45 3.39 50.61 15.84 72.82 2.16 3.6 7.79.32 5.73-3.34Z"
          fill="#408dd6" class="fill-3fc091"></path>
    <path d="M495.72 273.07a557.84 557.84 0 0 0-1 96.8c1.76 23 6.92 55.75 35.32 59.48a40.52 40.52 0 0 0 6.61.08c2.15-.07 3.34-.65 4.47 1.72.69 1.47.66 3.86.91 5.45l4.06 25.4c.87 5.42 1.09 11.71 3.86 16.6 2.93 5.19 8.31 6.56 13.86 7.2 12.15 1.41 24.73-.95 36.43-4.17s24.94-7.33 34.89-14.39a24.28 24.28 0 0 0 9.28-11.69c.78-2.29 1.47-5.5.77-7.89-.81-2.77-2.79-5.44-3.88-8.14-4.49-11.07-6.81-23.18-8.92-34.89-4.31-23.95-9.61-48.77-6.8-73.14 2.4-20.87 8.6-42.34 4.42-63.37-4.81-24.15-25.26-39.5-48.67-43.67-34.72-6.18-82.26 1.82-86.76 44.12-.33 3 4.89 3.77 5.37.73 2.65-16.9 12.89-29.55 29-35.44 14-5.12 29.41-5.86 44.09-4.32 21.36 2.24 42.49 12.47 49.52 34.19 6.11 18.89.88 39.64-1.88 58.66-1.42 9.81-2.6 19.72-2.15 29.64.5 10.9 2.87 21.8 4.3 32.61 2.92 21.95 6.21 43 15.11 63.39 5.15 11.79-16.56 19.32-24.37 22.31-11.15 4.26-22.92 7.67-34.83 8.9a58.68 58.68 0 0 1-16.74-.23c-7.75-1.48-7.95-8.3-9-14.82l-3.48-21.48c-.83-5.12-.44-13.41-4.33-17.4s-10-1.57-14.86-2.31c-6.86-1.06-12.91-5.35-17.3-10.57-9.33-11.09-11-26.74-12.26-40.59a631.22 631.22 0 0 1-1.42-98.77c.14-2.31-3.35-2.25-3.56 0Z"
          fill="#3b165c" class="fill-1a1c3f"></path>
    <path d="M554.18 325.86c-.44-.27-.52-.3-.25-.11.45.36.56.44.32.24a.58.58 0 0 1-.14-.24c0-.13 0-.12 0 0s0 .17 0 0l-.12.51c0 .14-.08.28-.13.42-.13.41 0 .24.3-.52l1.09-.64h-.16 1.31l.28.12.89.89-.07-.13.25 1.9v-.15a2.47 2.47 0 0 0-4.76-1.31 2.76 2.76 0 0 0 .94 2.87 2.86 2.86 0 0 0 2.61.53c1.69-.51 2.18-2.2 2.19-3.77a4.43 4.43 0 0 0-1.73-3.81 2.62 2.62 0 0 0-3.82.65c-.72.94.11 2.11 1 2.45ZM513.42 330.54c-.44-.26-.53-.3-.26-.1.46.36.56.44.33.24a.61.61 0 0 1-.15-.24c0-.14 0-.12 0 0s0 .18 0 0c0 .17-.08.34-.13.51l-.12.41c-.13.42 0 .24.3-.52l1.08-.63h-.16 1.31l.29.12.89.88-.08-.13.25 1.9v-.14a2.53 2.53 0 0 0-1.73-3 2.5 2.5 0 0 0-3 1.73 2.79 2.79 0 0 0 .93 2.87 2.88 2.88 0 0 0 2.62.53c1.68-.51 2.17-2.2 2.18-3.77a4.42 4.42 0 0 0-1.72-3.81 2.63 2.63 0 0 0-3.83.65c-.71.93.12 2.1 1 2.44ZM507.4 317.72a28.94 28.94 0 0 1 7.28-6.24c2.68-1.51 5.38-1.63 8.13-2.69s3.22-5.18 0-5.93c-3.73-.87-8.19 1.1-11.14 3.32a21.66 21.66 0 0 0-7.24 9.81c-.67 1.64 1.86 3 3 1.73ZM572.83 305.88c-5.05-5.9-15.9-16.25-24.32-10.69-2.92 1.92-2.67 6.77 1 7.71 3.29.84 6.68.3 10 1.21 3.81 1 7.19 3.36 10.56 5.35 2.32 1.36 4.38-1.67 2.75-3.58ZM528.47 319.75c0 3.75 0 7.5-.17 11.24s.31 8.81-.86 12.45c-.72 2.26-2.72 3.64-3 6.14s1 4.94 2.34 7c1.6 2.57 5.71.17 4.06-2.38-1.81-2.78-.72-5.25.47-7.83 1-2.14.87-4.69 1-7 .24-6.56 0-13.13-.44-19.67-.14-2.12-3.34-2.16-3.33 0ZM533 374.81a164.19 164.19 0 0 1 18.58-7.42 4.2 4.2 0 0 1 2.46-.27 3.49 3.49 0 0 1 2 2.63c1.17 4.42-.89 9.09-3.67 12.71a15.39 15.39 0 0 1-4.7 4.29 7.48 7.48 0 0 1-6.17.59 8 8 0 0 1-4.33-5.19 23.45 23.45 0 0 1-.71-6.95"
          fill="#3b165c" class="fill-1a1c3f"></path>
    <path d="M533.47 376.46c4.26-.82 8.45-2.79 12.56-4.19a36.67 36.67 0 0 1 4.76-1.54c3.09-.58 2.88 1.15 2.12 4.12-.85 3.28-3.54 7.7-6.78 9.23-6 2.85-6.53-5.07-6.76-8.88a2.89 2.89 0 0 0-5.77 0c-.33 6.14 1.25 13.94 8.33 15.44s12.83-4.91 15.61-10.52c2.25-4.55 3.87-14.53-3.08-16-3.57-.74-8.25 2.12-11.44 3.45-3.86 1.62-7.95 3.36-11.21 6-1.44 1.17.16 3.13 1.66 2.85ZM490.12 291a108 108 0 0 1 50.1-18.54 7.08 7.08 0 0 0 3.46-1 7.49 7.49 0 0 0 2.08-3.36 40.93 40.93 0 0 1 12.77-16.77 30.31 30.31 0 0 1 3.9 17 4.53 4.53 0 0 0 .31 2.64c.68 1.13 2.19 1.35 3.5 1.48a64.93 64.93 0 0 1 18.33 4.65c2.15.89 4.44 2.1 5.27 4.28.7 1.85.17 3.9.13 5.87-.11 5.87 4 10.8 6.55 16.11 3.35 7.08 3.77 15.16 4.14 23 1.41-3.22 2.88-6.53 5.39-9s6.37-3.86 9.61-2.52a10.56 10.56 0 0 1 4.6 4.31 23.62 23.62 0 0 1-1.26 26.63c-1.9 2.42-4.41 4.74-4.62 7.83a11.74 11.74 0 0 0 .72 4.08c2.41 7.95 2.23 16.37 8.38 21.94.82.74 1.73-.08 2.84-.05 2.34.07.57.09 1.16-2.19 10.7-40.8 30.26-97.08-2.16-131.89a54 54 0 0 0-10.84-9c-9.87-6.18-20.78-13.86-32.24-16.43-15.16-3.39-32-3.47-46.71 2-13 4.81-24.18 14-32.39 25.22s-13.54 24.37-16.63 37.94a19.78 19.78 0 0 0-.64 7.56c.86 5.11 5.2 8.79 9.25 12l-.93-18.54"
          fill="#3b165c" class="fill-1a1c3f"></path>
    <path d="M491 292.46a117.88 117.88 0 0 1 42.3-16c5.29-.91 11.73-.14 14.6-5.57 3.6-6.81 6.69-12.41 12.84-17.36l-4.88-.63a28.47 28.47 0 0 1 3.53 13.87c0 2.76-.39 5.41 2.07 7.33s6.25 1.67 9.07 2.23a56 56 0 0 1 12.57 3.95c4.83 2.26 2.79 6.77 3.83 11.07.82 3.42 2.66 6.47 4.38 9.49 4.6 8.1 5.51 16.37 5.92 25.56.14 3.11 4.94 5.1 6.43 1.74 1.61-3.63 4.2-10.42 9.14-10.27 4.64.14 6.64 7.47 7 11.08a20.88 20.88 0 0 1-2.53 12.37c-2.1 3.62-5.6 6.23-6.55 10.48-.81 3.65.74 7.15 1.54 10.66.89 3.89 1.49 7.85 3 11.57 2.25 5.76 6.5 11.71 13.4 9.27a4.07 4.07 0 0 0 2.77-4.88c-.35-1.54 1.23-4.77 1.67-6.34q.9-3.28 1.82-6.56c1.53-5.47 3-11 4.41-16.46a288 288 0 0 0 6.51-32.66c2.73-20.78 2.08-43.05-8.72-61.62-6.12-10.52-14.78-17.9-25-24.33-11.3-7.14-22.34-13.28-35.74-15.23-25.1-3.67-50.41 2.51-68.28 21.16-9.79 10.23-16.65 22.92-21 36.32-2 6.22-5.08 14.17-3.79 20.76 1.11 5.72 5.59 9.71 9.93 13.19 1.67 1.33 4.73.65 4.6-1.91-.31-6.19-.81-12.36-1.3-18.54-.24-2.93-4.69-3-4.63 0 .12 6.19.23 12.36.54 18.54l4.6-1.9c-5.06-4.05-9.44-8-8.29-15.06a88.07 88.07 0 0 1 5.24-17.64 85.14 85.14 0 0 1 19.77-30.3c17.77-17.1 42-21.66 65.74-16.51 12 2.6 22.1 9.53 32.26 16.06a56.9 56.9 0 0 1 21 24.22c8 17.35 7.31 37.62 4.39 56.07a330.79 330.79 0 0 1-7.25 32.8q-2 7.44-3.94 14.87c-1.09 4.09-3.29 9-2.26 13.2l2.77-4.88a9.84 9.84 0 0 1-1.77.18c-.52-.72.83 1.06-.13-.86a34.73 34.73 0 0 1-2.92-6.49c-1.16-4.15-2.65-8.95-3.18-13.2s5.14-8.76 6.85-12.67a26.61 26.61 0 0 0 2.14-12.91c-.59-7-4.08-16.38-11.6-18.42-9.24-2.51-15.06 6.19-18.21 13.38l6.43 1.74c-.42-8.41-1-17-4.66-24.7-1.89-4-5-7.8-5.76-12.22-.74-4.07 1-7.77-1.72-11.4-4.4-5.79-15.22-7.35-21.89-8.27a13.67 13.67 0 0 1-3.23-.4c-1.76-.79-.85-.07-1.25-1.84s-.07-4.11-.35-6a35.38 35.38 0 0 0-4-11.77c-1-1.91-3.4-1.83-4.88-.62a44.54 44.54 0 0 0-11.85 14.42c-2 3.91-3 5.6-7.72 6.23a88 88 0 0 0-10.19 1.95 106.44 106.44 0 0 0-37.31 17.76c-1.7 1.28-.2 4.12 1.72 2.94Z"
          fill="#3b165c" class="fill-1a1c3f"></path>
    <path d="M610 329.33c-1.46 2.24-3 4.72-2.8 7.5a2.17 2.17 0 0 0 3.23 1.85 3.26 3.26 0 0 0 1.65-2.27 2.19 2.19 0 0 0-1.49-2.61 2.14 2.14 0 0 0-2.61 1.48l.28-.3 3.23 1.85a12.33 12.33 0 0 1 1.52-5.74 1.74 1.74 0 0 0-3-1.76ZM579.6 407.41a53.09 53.09 0 0 1-20.8 12 82.87 82.87 0 0 1-13.23 2.74c-4.43.59-9.15.29-13.43 1.57-3.09.92-2.18 4.95.72 5.3 4.74.56 10-.73 14.77-1.47a76.31 76.31 0 0 0 15.54-3.93c7.63-2.91 14.52-7.31 19.16-14.14 1.15-1.69-1.33-3.4-2.73-2.11Z"
          fill="#3b165c" class="fill-1a1c3f"></path>
    <path d="M308.74 313c-5.69 26-24.6 46.86-46.33 59.67s-46.27 18.7-70.48 24.33-48.77 11.18-70.8 23.38c-14.95 8.29-28.93 20.14-36.21 36.51s-6.38 37.81 5.31 50.88c6.7 7.49 18.67 11.24 25.82 4.26a8.26 8.26 0 0 0 2.78-6.37c-.49-5.68-7.74-6.8-13-5.91-27.26 4.66-53.34 20.73-68.27 45.81s-17.3 59.24-3.27 85c18.73 34.29 60.14 46.06 96.88 43.51 38.66-2.69 76.49-17.92 107.34-43.22 55.95-45.88 86.43-121 142.37-166.91 16.46-13.51 35-24.34 49.42-40.31 25.89-28.61 35.58-73.11 24.24-111.23"
          fill="#408dd6" class="fill-3fc091"></path>
    <path d="M307.72 312.68c-5.05 21-18.41 38.63-35.59 51.42-18.65 13.9-41.13 21.2-63.44 26.76-40.4 10.05-89.89 15.85-117.47 51-11.34 14.42-16.65 33.66-11.22 51.58 4 13.36 20.17 32.11 35.53 21.52 5.17-3.57 7.78-11.47 1.6-15.48-6.64-4.31-16.53-1-23.35 1a102.33 102.33 0 0 0-47.6 29.85c-25.9 29.2-32.24 76.44-8.72 109 21 29.11 59.44 39.09 93.77 36.72 42.41-2.93 82.83-20.84 114.52-49 30.65-27.22 53.19-62 77.1-94.92C335 515.46 347.59 499 361.92 484c14.92-15.56 32.21-27.59 49.19-40.71 16.6-12.81 30.45-27.72 39.13-47A124.59 124.59 0 0 0 461 339.45a119.88 119.88 0 0 0-4.63-27.63c-.67-2.3-4.26-1.32-3.6 1 10.34 35.76 3 77.1-20.86 106-13.11 15.91-30.76 26.92-46.89 39.42a260.37 260.37 0 0 0-39.14 38.2c-24.06 28.5-43.78 60.3-67 89.48-24.43 30.74-53.36 57.23-90.11 72.3C155.34 672 116 677.8 81.11 665.7 64.73 660 49.72 650 39.88 635.5c-11-16.14-14.52-36.23-12-55.4 5.2-38.83 35.64-69 73.37-77.47 3.85-.86 8.46-2.08 12.3-.52s3.85 5.71 1.06 8.51a11.07 11.07 0 0 1-7.84 3.08c-10.06 0-17.65-8.75-21.1-17.38-7.13-17.84-1.48-38.49 10.38-52.84 26.62-32.18 73-38.4 111.09-48 36.39-9.21 73.74-24.13 93.36-58.29a84 84 0 0 0 9.22-23.92c.29-1.33-1.73-1.9-2-.57Z"
          fill="#408dd6" class="fill-3fc091"></path>
    <path d="M306.7 312.4c-5.19 20.63-18.46 37.74-35.43 50.23-18.6 13.7-40.92 20.84-63.12 26.26-41 10-90.63 15.74-118.65 51.23-11.92 15.1-17.57 35.15-11.72 53.93 4.6 14.75 22 33.81 38.71 22.6 6.38-4.29 9.16-14.16 1.61-18.87-7.27-4.54-17.35-1.38-24.86.83a104.46 104.46 0 0 0-48.53 30.3c-26.54 29.83-33.2 78.17-9.1 111.53 21.49 29.73 60.45 40.18 95.6 37.74 43-3 83.79-21.13 115.85-49.75 30.69-27.43 53.34-62.29 77.34-95.33 12.06-16.6 24.58-33 38.81-47.78 14.93-15.56 32.22-27.58 49.21-40.69 16.7-12.89 30.72-27.94 39.47-47.33a126.37 126.37 0 0 0 11-57.85 121.36 121.36 0 0 0-4.72-28.12c-1.34-4.6-8.51-2.65-7.18 2 10.12 35.08 3 75.76-20.4 104.21-13.08 15.92-30.74 27-46.85 39.46a260.85 260.85 0 0 0-39.14 38.2c-24.05 28.51-43.77 60.31-67 89.49-24.2 30.47-52.92 56.73-89.38 71.61-33.18 13.54-72.08 19.39-106.6 7.39-15.83-5.5-30.45-15.25-40-29.24C31 618.68 27.5 599.11 30 580.38c5.11-38 34.84-67.52 71.8-75.84 3.28-.74 8-2.19 11.26-.54 5.77 2.95-3.12 7.71-6.26 7.71-9.07 0-15.87-8.24-19-16-6.73-16.92-1.25-36.93 10-50.53 26.22-31.83 72.39-38.09 109.92-47.76 36.78-9.49 74.45-24.82 94-59.61a85.21 85.21 0 0 0 9.09-24.3c.55-2.66-3.42-3.8-4.09-1.13Z"
          fill="#3b165c" class="fill-1a1c3f"></path>
    <path d="M211 948.55c6.06-51.28 18.89-103.15 42.11-149.23 3.76-7.46 7.88-15 14.25-20.37 7.37-6.22 17-8.91 26.39-11.05 39.34-9 79.88-11 120.17-13l105.65-5.29c3.3-.16 6.93-.23 9.51 1.83s3.33 5.52 3.93 8.72c11.48 60.72 21 126.74 24.92 188.42"
          fill="#ffffff" class="fill-ffffff"></path>
    <path d="M212.62 949c6.15-39.5 14.46-78.51 29.28-115.75 3.89-9.77 8.16-19.4 12.83-28.81 4-8.12 8.19-16.89 15.34-22.76 7.47-6.13 17.36-8.34 26.57-10.35 10-2.19 20.1-4 30.22-5.41 42.93-6.16 86.61-7 129.87-9.15l32.89-1.64c10.64-.54 21.4-1.61 32-1.56 5.72 0 6.6 3.65 7.54 8.52q1.47 7.73 2.85 15.45 2.75 15.23 5.27 30.49c7.69 46.56 13.54 93.42 16.83 140.5.33 4.75 7.73 4.81 7.45 0-2.58-44.33-8-88.49-14.86-132.36q-2.54-16.29-5.38-32.53-1.36-7.78-2.8-15.56c-.88-4.77-1.34-10-3.19-14.49-3.83-9.33-13.44-8.22-21.84-7.8l-33.89 1.7c-46.12 2.33-92.6 3.28-138.6 8.51-10.84 1.23-21.67 2.74-32.4 4.71-10 1.85-20.38 3.69-29.91 7.37a45.8 45.8 0 0 0-21.41 16.26c-5.86 8.17-10 17.77-14.05 26.92-19.13 43-30.1 90.49-34 137.29-.16 1.94 3.12 2.41 3.42.47Z"
          fill="#3b165c" class="fill-1a1c3f"></path>
    <path d="M222.6 745.5c-7-31.09-19.62-66.94-20.21-98.81s5.7-64.7 23.39-91.17c20.7-30.95 55.29-50.47 91.28-59.64s73.63-9 110.72-7.41c24.2 1 48.67 2.64 71.78 9.92s45.05 20.8 58.16 41.26c11.07 17.3 15.1 38.21 16.71 58.71 3.6 46-3.87 92-12.51 137.32-6.75 35.39-38.6 48.35-69.69 55.92-56 13.61-114.17 15-171.44 11.89-30.55-1.64-81.86.66-93.91-36.06-2.33-7.11-.94-15.23-4.28-21.93"
          fill="#3b165c" class="fill-1a1c3f"></path>
    <path d="M224.39 745c-3.65-19.26-9.37-38-13.5-57.19s-6.31-38.53-4.93-58.26c2.65-38 17.34-74.09 47.27-98.63 29.42-24.12 67.35-34.8 104.66-38.13 21-1.88 42.2-1.68 63.28-.9s42.35 1.71 63 6.24c18 3.94 35.57 10.77 50.33 22 15.1 11.52 25.31 27.16 30.6 45.33 5.64 19.35 6.66 40 6.49 60.07-.19 22.39-2.5 44.71-5.86 66.84-1.61 10.62-3.45 21.2-5.4 31.76-1.61 8.73-2.89 17.57-7 25.57-6.74 13.3-18.74 22.31-32 28.45-15.35 7.1-32.33 10.81-48.84 14a488.41 488.41 0 0 1-64.49 7.99c-36.76 2.19-73.67.81-110.4-1.24-23.87-1.33-56.73-4.79-66.7-30.69-3-7.91-1.85-16.58-5.37-24.4-1.77-3.93-7.47-.51-5.77 3.38 2.13 4.9 1.92 10.36 2.63 15.56a39.13 39.13 0 0 0 3.22 10.89 42.79 42.79 0 0 0 11.88 15.41c10.36 8.51 23.62 12.48 36.65 14.61 13.45 2.21 27.08 2.6 40.67 3.14 21.17.85 42.29 1.86 63.49 1.59 42.89-.55 87.32-4.3 128.51-17 14.42-4.45 28.75-10.7 40-21a59.73 59.73 0 0 0 13.57-18.13c4.1-8.6 5.58-17.79 7.3-27.08 8.2-44.4 14.92-90.19 9.69-135.35-2.27-19.66-7.23-39.61-19-55.86-10.71-14.77-25.79-25.84-42.35-33.26-18.73-8.38-39-12.16-59.29-14.09A651.42 651.42 0 0 0 390 484c-40.84.33-82.6 5.89-118.77 26-33.71 18.78-57.66 48.83-66.84 86.48a183.3 183.3 0 0 0-4.43 60.18c2 20.5 7.49 40.47 12.94 60.26 2.67 9.68 5.39 19.34 8 29 .62 2.33 4 1.33 3.58-1Z"
          fill="#3b165c" class="fill-1a1c3f"></path>
    <path d="M427.78 488.47c-37.09-1.55-74.74-1.75-110.72 7.41a193.63 193.63 0 0 0-19.92 6.23c10.13 20.31 28.33 36.09 49.19 44.9s44.45 10.94 67 7.82a100.92 100.92 0 0 0 24.38-6.19c16.94-6.92 31.06-20 40.58-35.71a106 106 0 0 0 8.66-18c-19.31-4.39-39.33-5.62-59.17-6.46Z"
          fill="#d13232" class="fill-acfddf"></path>
    <path d="M427.78 485.22c-44.14-1.82-89.5-1.68-131.51 13.75a3.31 3.31 0 0 0-1.94 4.78c14.15 27.73 41.53 46.39 71.64 52.82 31.17 6.64 68 3.3 93.5-17.16 14.18-11.36 24.15-26.72 30.61-43.57a3.27 3.27 0 0 0-2.27-4c-19.73-4.42-39.89-5.76-60-6.62-4.19-.18-4.18 6.33 0 6.51 19.57.83 39.13 2.09 58.29 6.38l-2.27-4c-11 28.78-33.59 50.43-64.24 56.41-30 5.85-62.85 1.66-88.6-15.46a91.57 91.57 0 0 1-31-34.6l-1.99 4.78c41.51-15.24 86.17-15.31 129.78-13.51 4.22.17 4.22-6.34 0-6.51Z"
          fill="#d13232" class="fill-acfddf"></path>
    <path d="M427.78 485.22c-44.14-1.82-89.5-1.68-131.51 13.75a3.31 3.31 0 0 0-1.94 4.78c14.15 27.73 41.53 46.39 71.64 52.82 31.17 6.64 68 3.3 93.5-17.16 14.18-11.36 24.15-26.72 30.61-43.57a3.27 3.27 0 0 0-2.27-4c-19.73-4.42-39.89-5.76-60-6.62-4.19-.18-4.18 6.33 0 6.51 19.57.83 39.13 2.09 58.29 6.38l-2.27-4c-11 28.78-33.59 50.43-64.24 56.41-30 5.85-62.85 1.66-88.6-15.46a91.57 91.57 0 0 1-31-34.6l-1.99 4.78c41.51-15.24 86.17-15.31 129.78-13.51 4.22.17 4.22-6.34 0-6.51Z"
          fill="#3b165c" class="fill-1a1c3f"></path>
    <path d="M331 480.31c-27 36.77 1.3 88.88 31.68 114.35a107.89 107.89 0 0 0 25.39 16.17c4.69 2.08 9.71 4.35 14.95 3.45 4.6-.78 8.31-3.72 11.35-7.12 14.38-16.08 24.69-36.88 31.42-57.23 7.22-21.86 14.49-51.67 1.07-72.51a2.32 2.32 0 0 0-4 2.34c8.47 18.22 4.15 40-1.15 58.56a174.32 174.32 0 0 1-24.91 52.11 101.25 101.25 0 0 1-8.8 11.39c-4.4 4.68-8.4 4.74-14.2 2.27a112 112 0 0 1-22.53-13 118 118 0 0 1-34.42-41.33C326.49 529.35 321 502.68 334 482c1.19-1.9-1.68-3.45-2.95-1.72Z"
          fill="#ffffff" class="fill-22906c"></path>
    <path d="M427.78 488.47c-37.09-1.55-74.74-1.75-110.72 7.41a193.63 193.63 0 0 0-19.92 6.23c10.13 20.31 28.33 36.09 49.19 44.9s44.45 10.94 67 7.82a100.92 100.92 0 0 0 24.38-6.19c16.94-6.92 31.06-20 40.58-35.71a106 106 0 0 0 8.66-18c-19.31-4.39-39.33-5.62-59.17-6.46Z"
          fill="none"></path>
    <path d="M322.2 352.21c1.46-3.43-2.17-5.75-5.12-6.09-4.64-.54-6.86 3.13-8 7.2-1.71 6.19 1.59 26.22 11.9 23a1.37 1.37 0 0 0 .81-2.15"
          fill="#d13232" class="fill-acfddf"></path>
    <path d="M323.87 352.67c2.89-7.32-7.29-11.46-12.74-7.93s-5.91 11.28-5.19 17.1 2.64 13.2 8 16.58c4.56 2.9 14.63.3 9.68-6-1.5-1.92-4.07-.09-4.28 1.77.19-1.66 1.26 0-.07-.81-.29-.16-1.08 0-1.47-.11a5.72 5.72 0 0 1-2.67-2.54 21.93 21.93 0 0 1-2.86-8.1 24.13 24.13 0 0 1-.43-7.34 10.51 10.51 0 0 1 1.54-4.37 3.52 3.52 0 0 1 2.89-1.88c1.47-.23 4.63.18 4.28 2.75a1.74 1.74 0 0 0 3.35.92Z"
          fill="#3b165c" class="fill-1a1c3f"></path>
    <path d="M461.51 354.44c-1.49-3.41 2.11-5.77 5.05-6.14 4.64-.59 6.89 3.05 8.06 7.11 1.76 6.17-1.33 26.24-11.66 23.1a1.36 1.36 0 0 1-.84-2.13"
          fill="#d13232" class="fill-acfddf"></path>
    <path d="M463.19 354c-.16-1.1 2-2.65 2.95-2.91a3.86 3.86 0 0 1 3.86 1.41 9.76 9.76 0 0 1 1.86 4.57 23.23 23.23 0 0 1-.29 7.62 22.9 22.9 0 0 1-2.53 7.73 6.32 6.32 0 0 1-2.55 2.81c-.39.17-1.07.16-1.39.33-1.62.88-.81-1.8-.49.82a2.53 2.53 0 0 0-4.67-1.27c-1.87 2.45-.53 5.35 2.14 6.49s6 .34 8.27-1.26c5.18-3.59 6.94-10.93 7.56-16.82.59-5.73 0-13.21-5.4-16.65s-15.66.73-12.7 8a1.74 1.74 0 0 0 3.36-.92Z"
          fill="#3b165c" class="fill-1a1c3f"></path>
    <path d="M339.44 503.48c2.16-12.08 3.15-61.89-.07-71s-8-17.58-11.17-26.71c-6.34-18.43-5.6-38.46-4.66-57.93 1.13-23.38 3.55-49.24 20.68-65.11 11.9-11 28.76-14.88 44.93-15.72 24-1.24 51.15 5.22 63.46 25.93 6.87 11.55 7.91 25.59 8.12 39a413.42 413.42 0 0 1-3.54 61c-1.54 11.58-3.73 23.51-10.29 33.16-2.38 3.51-5.35 6.72-6.8 10.71a32 32 0 0 0-1.39 9.66c-.28 7.06-1.08 49.37-1.36 56.43"
          fill="#ffffff" class="fill-ffffff"></path>
    <path d="M440.1 436.87c1.45-4 4.42-7.2 6.8-10.71 6.56-9.65 8.75-21.58 10.29-33.16a413.42 413.42 0 0 0 3.54-61c-.21-13.45-1.25-27.49-8.12-39-9.71-16.33-28.65-23.8-48-25.62-14.41 1.4-28.87 5.52-39.43 15.3-17.13 15.86-19.56 41.73-20.68 65.11-.95 19.47-1.69 39.5 4.66 57.93 3.14 9.13 7.94 17.61 11.16 26.7s2.24 58.92.08 71l76.94-.41c.28-7.06 1.08-49.37 1.36-56.43a32 32 0 0 1 1.4-9.71Z"
          fill="#d13232" class="fill-acfddf"></path>
    <path d="M341.19 504c2.36-12.35 2.85-25.18 3.17-37.71.29-11.26 1.55-24.62-2.16-35.49-3.82-11.17-10-21.31-12.82-32.86s-3.28-23.53-3-35.39c.4-20.23.38-42.84 9-61.59 9.11-19.82 28.27-28.38 49.1-30.25 18.16-1.63 38.45.47 53.66 11.4 18.95 13.63 19.43 37.56 19.3 58.79-.07 12.82-.67 25.65-1.86 38.41-1.06 11.43-2.07 23.26-5.76 34.2-2.09 6.2-5.54 11-9.14 16.38a27.79 27.79 0 0 0-4.66 15c-.27 5.46-.25 11-.33 16.43-.2 13.87-.35 27.77-.88 41.63-.13 3.32 5 3.32 5.16 0 .49-12.8.65-25.62 1-38.43.15-5.67.31-11.34.55-17 .21-4.8.67-9.25 3.31-13.4 3.26-5.14 7-9.53 9.37-15.21 4.26-10.06 5.64-21 7-31.78a388.61 388.61 0 0 0 3-40.34c.42-21.3 1.11-45.83-13.93-62.82-12.34-13.94-31.77-19.34-49.77-20.28-19.71-1-41.95 2.37-57.33 15.67-15.12 13.07-19.84 33.55-21.75 52.59-2.27 22.61-4 47.36 2.06 69.5 3.2 11.65 10.67 22 13.36 33.69 1.51 6.6 1.27 13.76 1.52 20.48.33 9.08.22 18.16.24 27.24 0 6.68.2 13.52-.79 20.14-.34 2.26 3.06 3.3 3.5 1Z"
          fill="#3b165c" class="fill-1a1c3f"></path>
    <path d="M352.14 440.81c-7.35-6.86-11.35-14.92-16-23.62-1.19-2.22-4.5-.66-3.95 1.67 2.29 9.79 9.73 18.36 17.37 24.53 1.78 1.43 4.31-.94 2.57-2.58ZM390.08 350.32 388.39 367c-.18 1.78-.75 3.95-.31 5.72.49 2 1.62 2.2 2.85 3.57 2 2.22 5.36-1.13 3.28-3.27-2.6-2.67-1.55-6.18-1.34-9.73l.77-13c.14-2.31-3.33-2.24-3.56 0ZM353.4 357.25c4.36 1.91 10.61 3.48 15.28 1.9a1.73 1.73 0 0 0-.92-3.33c-4.54 1-9.3 0-13.89-.29-.89-.06-1.32 1.35-.47 1.72ZM430.57 360.11c-4.65-.26-9.47.13-13.92-1.42-1.83-.65-3.1 2.31-1.33 3.16 4.54 2.15 10.82 1.5 15.5.08a.93.93 0 0 0-.25-1.82ZM385.66 405.78c2.14 0 3.58-2.23 5.54-3 2.22-.86 4.46-.34 6.72-.83s2.25-3.51.61-4.71c-2.68-2-6.81-.93-9.51.43-2.21 1.12-6 3.93-5 6.84a1.77 1.77 0 0 0 1.65 1.25Z"
          fill="#3b165c" class="fill-1a1c3f"></path>
    <path d="M348 366a29 29 0 0 0-9 11.07 11.15 11.15 0 0 0-1.27 5.28 5.09 5.09 0 0 0 2.76 4.41c2.28 1 5-.5 6.28-2.63s1.45-4.72 1.6-7.2l.62-10.17"
          fill="#408dd6" class="fill-3fc091"></path>
    <path d="M347.54 365.25a28.89 28.89 0 0 0-10.34 12.35c-1.47 3.52-1.46 8.62 2.56 10.49 3.63 1.7 7.38-1 8.82-4.32 2.16-4.91 1.42-11.76 1.69-17 .09-1.61-2.39-1.59-2.5 0q-.31 4.37-.61 8.71a35.29 35.29 0 0 1-.48 4.82 9.66 9.66 0 0 1-1.14 3.1c-1 2-2.35 2.23-4 .66-2.39-.3-3.06-1.63-2-4a11 11 0 0 1 .84-2.38 27 27 0 0 1 2-3.92 31.24 31.24 0 0 1 6.19-7.13c.75-.66-.25-2-1.08-1.4ZM433.53 371.13a29 29 0 0 1 7.58 12.06 11.07 11.07 0 0 1 .64 5.39 5.08 5.08 0 0 1-3.26 4.05c-2.38.7-4.91-1.09-5.92-3.36s-.89-4.86-.75-7.34l.59-10.16"
          fill="#408dd6" class="fill-3fc091"></path>
    <path d="M432.9 371.76c3.15 3.46 9.23 11.76 7.09 16.79-1.73 4.06-5.17 2.09-6.52-1.05-.63-1.47-.35-4-.3-5.57.12-3.39.33-6.78.49-10.16.08-1.62-2.39-1.6-2.5 0-.37 5.43-2.31 13.1.16 18.24 1.56 3.27 5.51 5.53 8.92 3.49 8.73-5.21-1.44-18.81-6.08-23a.89.89 0 0 0-1.26 1.26ZM426.42 270.42c-6.19 11.9-17.2 20.63-28.4 28.23a305.89 305.89 0 0 1-62.09 32.43c-6.21 2.38-13.85 6.85-12.27 13.21a8.52 8.52 0 0 0-11.5-.27c-2.33-12.13-4.67-24.59-2.44-36.73 12.11-65.93 108.65-80.65 148.13-29.89a70.34 70.34 0 0 1 5 7.29 57.68 57.68 0 0 1 5.65 12.48 61.64 61.64 0 0 1-6.55 50 199.52 199.52 0 0 1-33.12-74.48"
          fill="#408dd6" class="fill-3fc091"></path>
    <path d="M425.67 270c-5.93 10.6-15.14 18.35-25 25.22a295.11 295.11 0 0 1-31.14 18.87 366.23 366.23 0 0 1-34.05 15.52c-6.53 2.65-14.68 6.85-13.35 15.11l2.57-1.5a10.24 10.24 0 0 0-13.63-.23l2.49.66c-2.61-13.38-4.8-26.9-1.44-40.35a66.73 66.73 0 0 1 9.92-21.89c9.06-13 22.73-22.34 37.59-27.54 29.84-10.45 66.46-5.72 89.8 16.66 20.87 20 26.07 50.74 11 75.83h2.89a200 200 0 0 1-33-74.07c-.45-2.06-3.6-1.19-3.15.87a205.64 205.64 0 0 0 33.3 74.84 1.7 1.7 0 0 0 2.89 0 62.73 62.73 0 0 0-4.36-71.75c-10.75-13.69-26.15-23.09-42.89-27.57-32.42-8.69-71.59 0-93.34 26.72a69.53 69.53 0 0 0-13 24.91c-4.17 14.74-1.81 29.36 1 44.11.23 1.22 1.71 1.28 2.5.66a7.05 7.05 0 0 1 9.35.3 1.55 1.55 0 0 0 2.57-1.5c-1-6.44 7.29-9.74 12-11.64s9.72-3.92 14.51-6.06a295.46 295.46 0 0 0 30.3-15.73c17-10.08 35.68-21.58 45.13-39.59.52-1-.95-1.86-1.5-.88Z"
          fill="#408dd6" class="fill-3fc091"></path>
    <path d="M310.67 321.7c-.08-33.85 24.76-60.15 56.42-68.64 28.72-7.72 62.61-1.05 83.58 20.8 18.83 19.63 22.6 48.22 8.26 71.57h6a196.66 196.66 0 0 1-33-73.6c-.88-4.1-7.21-2.37-6.3 1.74a209.28 209.28 0 0 0 33.29 75.35c1.47 2.08 4.56 2.38 6 0a65 65 0 0 0-3.29-71.69 81.19 81.19 0 0 0-40-28.5c-30.89-10.27-68.6-4.21-92.83 18.16a67.06 67.06 0 0 0-21.56 54.81c.18 2.2 3.49 2.27 3.48 0Z"
          fill="#3b165c" class="fill-1a1c3f"></path>
    <path d="M430.89 263.33c-6.33 9.46-15.44 17.5-24.1 24.77-9.52 8-20.13 14.56-30.94 20.68a281.46 281.46 0 0 1-37.47 17.67c-8.28 3.19-19.64 7.89-17.81 18.69l5.35-3.11c-4.86-4.23-11-4.27-16.07-.32-3.29 2.59 1.36 7.25 4.62 4.62a5.31 5.31 0 0 1 6.93.22c2.55 2.23 5.79 0 5.34-3.11-.85-5.91 9.51-8.75 13.47-10.36 5.27-2.15 10.42-4.58 15.58-7a312.11 312.11 0 0 0 34-18.4c16.74-10.48 36-23.84 44.11-42.61a1.74 1.74 0 0 0-3-1.75ZM348.46 338.18a36.13 36.13 0 0 0 25.24-2c2.9-1.32.38-5.5-2.49-4.26a38.93 38.93 0 0 1-21.83 2.86c-2.16-.34-3.13 2.74-.92 3.36ZM434.76 333.73c-6-1.94-10.73-5.77-16.07-9-2.7-1.61-5 1.48-3.94 4 1.43 3.29 5.86 4.54 8.93 5.87a39.21 39.21 0 0 0 10.56 2.93c2.24.29 2.49-3.17.52-3.8ZM427.68 445.3c12.17-4.77 22.72-14.89 26.71-27.6.95-3-3.52-4.86-5.06-2.14-6 10.59-12.92 19.46-23 26.56-1.49 1-.63 3.95 1.34 3.18ZM297.14 502.11c-57.57 19.82-111.29 76.1-141.35 120S107 718.83 109.71 772c1.36 27 10 56.28 32.82 70.57 10 6.25 21.75 9 33.42 10.46a176.17 176.17 0 0 0 87.54-11.41c20.53-8.3 39.28-20.38 57.89-32.39 6.82-4.4 13.76-8.91 18.88-15.22 6.43-7.93 9.46-18 11.88-28a332.2 332.2 0 0 0 8.22-50.14c1.12-12.92 1.38-26.43-3.8-38.31-9.81-22.52-37.32-33-61.62-30s-45.89 16.61-65.7 31c-12.52 9.12-25 19-33 32.27l46.87-43"
          fill="#3b165c" class="fill-1a1c3f"></path>
    <path d="M296.64 500.28c-29.75 9.38-55.93 26.73-79.33 47.05a392.06 392.06 0 0 0-61.14 67.22c-19.42 27-34.61 57.3-43.27 89.51-8.23 30.62-11.45 65-3.38 96 3.48 13.39 9.48 26.46 19 36.61 11.07 11.75 26.19 17.5 41.87 20a181.37 181.37 0 0 0 103.69-14.91c16.49-7.62 31.86-17.4 47.1-27.22 6.74-4.35 13.72-8.64 19.38-14.39s9.44-12.94 12.13-20.54c5.9-16.67 8.68-34.87 10.81-52.37 2-16.86 4-35.2-3-51.24-11-25.36-41.38-36-67.31-32.53-16.31 2.21-31.59 9-45.59 17.43s-27.82 18.01-39.81 29.1a92.37 92.37 0 0 0-15.62 18.59c-2.91 4.62 3.52 9.13 7.32 5.65q23.49-21.45 46.89-43c4.45-4.09-2.18-10.68-6.61-6.62q-23.46 21.49-46.87 43l7.32 5.65c8.16-13.1 20.36-22.74 32.7-31.7 12.57-9.14 25.77-18 40.3-23.72 24-9.46 54.93-9.44 73.1 11.59 10.28 11.9 11 28 10 42.94a315 315 0 0 1-7.87 50.71c-1.82 7.68-3.81 15.49-7.66 22.44s-9.61 12-16.12 16.42a484.54 484.54 0 0 1-41.71 25.68c-29.88 16.15-63 24.33-97 22.05-15.72-1.05-32.71-3.77-45.44-13.79-10.37-8.17-17-20.1-21-32.51-8.93-27.95-6.81-59.52-.51-87.78 6.88-30.82 19.72-60 36.93-86.44C186.39 582.33 228.38 539.4 278 513a177.55 177.55 0 0 1 19.69-9c2.23-.86 1.36-4.4-1-3.65Z"
          fill="#3b165c" class="fill-1a1c3f"></path>
    <path d="M319.5 726.37a191.62 191.62 0 0 1-14.41-56c-.32-3.18-.53-6.54.76-9.46 2-4.49 6.88-6.75 11.28-8.88A145.19 145.19 0 0 0 366 613.66c5.92-7.19 11.4-15.17 19.5-19.74s19.91-4.31 25.13 3.41L389 614.47c6.69-7.33 14.65-14.11 24.3-16.33s21.2 1.39 25.49 10.35c1.37 2.86 1.74 6.74-.64 8.84-4.19 3.68-11.78-1.85-16 1.77 7.21-1.91 16.29-.67 19.9 5.89a11.56 11.56 0 0 1-2.34 13.74 11.43 11.43 0 0 1-13.86.76c6.28-4.76 16.35-1 19.64 6.16s.8 16-4.36 22c-2.36 2.72-5.69 5.12-9.24 4.6s-6.13-5.47-3.51-7.93c-2.21 10.27-11.88 17.21-21.63 21s-20.34 5.53-29.5 10.61c-16.55 9.19-26.34 28.16-43.5 36.14-2.48 1.15-5.63 2-7.75.25"
          fill="#ffffff" class="fill-ffffff"></path>
    <path d="M435.93 669a14.31 14.31 0 0 0-6.29-6.51c.18-.13.35-.27.51-.41a11.56 11.56 0 0 0 2.34-13.74c-3.6-6.56-12.69-7.8-19.89-5.89 4.25-3.62 11.83 1.91 16-1.77 2.38-2.1 2-6 .65-8.84-4.3-9-15.84-12.58-25.49-10.36a33.49 33.49 0 0 0-6.72 2.36l4-3.16c-5.22-7.72-17-8-25.13-3.41s-13.58 12.55-19.5 19.74a145.28 145.28 0 0 1-48.83 38.32l-1.81.88a191.64 191.64 0 0 0 13.72 50.19l6.49 6c2.12 1.72 5.27.9 7.75-.25 17.16-8 26.95-27 43.5-36.14 9.16-5.08 19.75-6.81 29.5-10.61 8.68-3.39 17.28-9.26 20.63-17.74a5.77 5.77 0 0 0 4.51 4.65 7.92 7.92 0 0 0 4.89-1 15.91 15.91 0 0 0-.83-2.31Z"
          fill="#d13232" class="fill-acfddf"></path>
    <path d="M321.4 725.85c-6.07-16.93-11-34-12.94-51.92-.41-3.91-1.49-9.26.74-12.8 2-3.26 6.18-4.84 9.5-6.47a150.94 150.94 0 0 0 20.54-12.07c12.62-8.88 23.23-19.58 32.89-31.55 4.55-5.64 9.4-11.74 16.08-14.95 6.16-3 15.15-3.1 19.6 2.87l.5-3.91-21.59 17.11 4.6 4.61c8.65-9.31 21-19.43 34.6-14.9a17.79 17.79 0 0 1 7.5 4.65c2 2.18 5.19 7.6.8 8.68-2 .5-4.89-.69-7-.8a10.59 10.59 0 0 0-6.85 1.73 3.46 3.46 0 0 0 2.65 6.29c5.26-1.24 13.1-1.27 16 4.29 4 7.58-4.94 13.85-11.5 9.8v6c6.86-4.55 15.09 1.35 15.84 8.8a18.34 18.34 0 0 1-2.73 11 16 16 0 0 1-4.85 5.48 3.82 3.82 0 0 1-4.29.55 1.5 1.5 0 0 1-.68-1.46l-5.81-3.52c-5.56 21.9-36.21 20.81-52 30.92-7.7 4.92-13.95 11.65-20.25 18.17a129 129 0 0 1-10.58 10.07c-2.75 2.26-10.51 8.94-14.31 6.74s-7.5 3.82-3.57 6.11c8.78 5.11 20.09-5.08 26.22-10.65 8.4-7.65 15.46-17 24.94-23.37 18.13-12.26 50-10.23 56.41-36.11.79-3.14-3.6-6.39-5.91-3.44a8.64 8.64 0 0 0 5.54 13.89c8.76 1.37 15.49-8.32 17.83-15.52 2.47-7.59 1.16-16.49-5.12-21.83-5.58-4.76-13.79-6-20-1.83a3.49 3.49 0 0 0 0 6c10.31 6.35 23.7-1.24 22.58-13.61-1.13-12.55-15.3-15.46-25.45-13.08l2.65 6.29c3-2 7.48.21 10.88 0a8.68 8.68 0 0 0 7.79-5.17c3.14-7.31-3.17-15.38-9.17-18.93-17-10.06-35 1.6-46.66 14.19-2.92 3.16 1.38 7.18 4.6 4.61l21.56-17.15a3.23 3.23 0 0 0 .5-3.92c-6.66-8.91-18.82-9.91-28.4-5.13-12.37 6.16-19.6 19.8-28.93 29.45a142.57 142.57 0 0 1-35.45 26.64c-5.43 2.9-12.17 5-16 10.16-4.14 5.52-2.84 12.41-1.95 18.76 2.47 17.74 7.2 35.61 15.05 51.75 1 2 4.36.59 3.6-1.52Z"
          fill="#3b165c" class="fill-1a1c3f"></path>
    <path d="M201 706.68q28.44-20.38 58.35-38.58 14.76-9 29.85-17.35c8.16-4.54 23-15.46 30.95-5.24 2.25 2.89 6.25-1.16 4-4-6.16-7.94-16.77-6.44-24.78-2.55-11.9 5.78-23.27 13.18-34.53 20.12q-33.79 20.82-65.66 44.55c-1.81 1.34-.08 4.42 1.79 3.07Z"
          fill="#ffffff" class="fill-22906c"></path>
    <path d="M305.44 652.34c-5.75 33.53 4.21 69.27 26.36 95.14 2.78 3.25 7.14-1.39 4.62-4.62a132 132 0 0 1-27.48-90.05c.12-2-3.16-2.46-3.5-.47ZM362.34 722.81c12.24 23.93 8.45 53.43-15.84 67.67-3.23 1.89-.41 6.4 2.87 4.91 12.05-5.46 20.68-18 23.62-30.62 3.49-15-.14-30.53-7.71-43.68-1.1-1.91-3.94-.22-2.94 1.72Z"
          fill="#ffffff" class="fill-22906c"></path>
    <path d="M505.43 501c57.57 19.82 111.3 76.1 141.35 120s48.76 96.76 46.08 149.94c-1.36 27-10 56.28-32.82 70.58-10 6.25-21.75 9-33.42 10.46a176.29 176.29 0 0 1-87.54-11.42c-20.52-8.29-39.27-20.37-57.89-32.38-6.82-4.4-13.76-8.91-18.88-15.23-6.43-7.92-9.46-18-11.88-28a332.2 332.2 0 0 1-8.22-50.14c-1.12-12.93-1.38-26.43 3.8-38.32 9.81-22.51 37.33-33 61.62-30s45.9 16.62 65.71 31c12.51 9.12 25 19 33 32.27l-46.87-43"
          fill="#3b165c" class="fill-1a1c3f"></path>
    <path d="M504.93 502.78c27.14 10.45 51.75 27.68 73.52 46.75a391.89 391.89 0 0 1 57 62.31c35.44 48.1 60.46 110.28 52 171-1.81 13-5.53 26.13-12.53 37.37-8 12.86-20.06 21-34.65 24.8-31.64 8.2-67.29 4-97.49-7.67-15.71-6.06-30.38-14.58-44.61-23.49-12.82-8-28.77-15.75-36.36-29.45-7.74-14-10.11-31.82-12.57-47.39-2.53-16.06-5.49-34.08-1.94-50.19 5.89-26.77 34.58-39 59.92-36 15.49 1.88 30 8.57 43.17 16.59s26 17 37.27 27.35a83.75 83.75 0 0 1 14.7 17.34l7.32-5.65q-23.38-21.56-46.87-43c-4.43-4.06-11.06 2.53-6.61 6.62q23.41 21.53 46.89 43c3.77 3.44 10.25-1 7.32-5.65-8.79-14-21.56-24.27-34.77-33.85-13.51-9.8-27.57-18.91-43.13-25.12-26.1-10.45-58.51-9.87-79.73 10.76-11 10.74-15.31 25.37-15.57 40.45-.31 17.83 2.66 36.12 6.19 53.54 3.25 16 6.73 33.67 18.57 45.72 5.66 5.76 12.64 10.05 19.38 14.4 7.77 5 15.55 10 23.51 14.68 30.94 18.27 64.65 29.71 100.87 29.56 17.14-.08 35.48-1.88 51.09-9.43 12.85-6.2 22.72-17.13 29-29.79 13.77-27.64 13.52-61.05 9-90.89-5.11-33.54-18-65.81-35.57-94.72-15.69-25.73-35.25-49.38-56.73-70.55-22.23-21.94-47.36-42.25-76-55.17a184.82 184.82 0 0 0-20.58-7.88c-2.37-.75-3.24 2.79-1 3.65Z"
          fill="#3b165c" class="fill-1a1c3f"></path>
    <path d="M483.07 725.22a191.7 191.7 0 0 0 14.41-56.05c.32-3.19.54-6.54-.76-9.47-2-4.48-6.88-6.75-11.28-8.87a145.18 145.18 0 0 1-48.83-38.32c-5.93-7.19-11.41-15.17-19.51-19.74s-19.91-4.31-25.12 3.41l21.57 17.13c-6.69-7.33-14.65-14.1-24.3-16.33s-21.2 1.4-25.49 10.36c-1.37 2.86-1.74 6.74.64 8.83 4.19 3.69 11.78-1.84 16 1.77-7.21-1.9-16.29-.66-19.9 5.89a11.58 11.58 0 0 0 2.34 13.75 11.45 11.45 0 0 0 13.86.76c-6.28-4.76-16.35-1-19.64 6.16s-.8 16 4.36 22c2.36 2.72 5.69 5.12 9.24 4.6s6.13-5.47 3.51-7.94c2.21 10.27 11.88 17.22 21.63 21s20.34 5.53 29.5 10.62c16.55 9.19 26.34 28.16 43.5 36.14 2.48 1.15 5.63 2 7.75.24"
          fill="#ffffff" class="fill-ffffff"></path>
    <path d="M366.64 667.82a14.31 14.31 0 0 1 6.29-6.51c-.18-.14-.35-.27-.51-.42a11.56 11.56 0 0 1-2.34-13.74c3.6-6.55 12.69-7.79 19.9-5.89-4.26-3.62-11.84 1.92-16-1.77-2.38-2.09-2-6-.64-8.84 4.29-9 15.83-12.57 25.48-10.35a33.49 33.49 0 0 1 6.72 2.36l-4-3.16c5.22-7.72 17-8 25.13-3.41s13.58 12.55 19.5 19.73A145.24 145.24 0 0 0 495 674.15l1.8.88a191.75 191.75 0 0 1-13.72 50.19l-6.49 5.94c-2.12 1.72-5.27.91-7.75-.24-17.16-8-26.95-26.95-43.5-36.14-9.16-5.09-19.75-6.82-29.5-10.62-8.67-3.38-17.28-9.25-20.63-17.73a5.78 5.78 0 0 1-4.51 4.65 7.87 7.87 0 0 1-4.89-1 15.79 15.79 0 0 1 .83-2.26Z"
          fill="#d13232" class="fill-acfddf"></path>
    <path d="M484.77 726.21c6.94-14.25 11.38-29.87 14.08-45.47 1.13-6.54 3.31-14.62 1.11-21.11-2-6-7.65-8.87-13-11.47a145.22 145.22 0 0 1-36.39-25.23c-10.07-9.62-17.37-22.61-28.67-30.82-9.95-7.23-24.84-8.15-32.75 2.44a3.21 3.21 0 0 0 .5 3.91l21.56 17.16c3.22 2.56 7.52-1.45 4.61-4.61-11.63-12.59-29.63-24.26-46.67-14.19-5.91 3.49-12 11.26-9.34 18.51a8.63 8.63 0 0 0 7.42 5.55c3.57.42 8.3-2.08 11.42 0l2.65-6.29c-10.14-2.38-24.34.53-25.45 13.07-1.1 12.38 12.25 20 22.58 13.62a3.5 3.5 0 0 0 0-6c-6.11-4.09-14.08-3-19.67 1.56-6.55 5.31-8 14.35-5.47 22.11 2.33 7.16 8.76 16.43 17.36 15.58a8.66 8.66 0 0 0 6-14c-2.31-2.94-6.7.3-5.91 3.44 6.45 25.85 38.27 23.91 56.41 36.12 9.49 6.38 16.54 15.72 24.94 23.36 6.13 5.57 17.44 15.77 26.22 10.65 3.93-2.29.38-8.38-3.57-6.1s-11.54-4.46-14.31-6.74a122.75 122.75 0 0 1-10.07-9.55c-6.48-6.68-12.85-13.64-20.75-18.69-15.84-10.11-46.49-9-52.05-30.93l-5.91 3.44a1.49 1.49 0 0 1-.68 1.46 3.84 3.84 0 0 1-4.29-.54 16 16 0 0 1-4.85-5.48 18.43 18.43 0 0 1-2.73-11c.75-7.45 9-13.36 15.84-8.8v-6c-6.61 4.1-15.34-2.22-11.5-9.79 2.83-5.59 10.85-5.52 16-4.3a3.46 3.46 0 0 0 2.66-6.29 10.42 10.42 0 0 0-6.29-1.74c-2.13 0-4.9 1.21-7 .8-4.87-1-2.07-6.12.24-8.66a17.48 17.48 0 0 1 7.5-4.65c13.67-4.43 25.89 5.52 34.6 14.9l4.61-4.61-21.6-17.11.5 3.91c4.47-6 13.42-5.79 19.6-2.87 6.67 3.15 11.55 9.33 16.08 14.95 9.66 12 20.27 22.67 32.89 31.55a150.94 150.94 0 0 0 20.54 12.07c3.34 1.63 7.45 3.19 9.51 6.47 2.24 3.57 1.14 8.89.73 12.8-1.89 18-6.87 35-12.94 51.92-.75 2.08 2.62 3.52 3.6 1.51Z"
          fill="#3b165c" class="fill-1a1c3f"></path>
    <path d="M603.33 702.45q-31.86-23.67-65.66-44.55c-11-6.8-22.15-13.85-33.72-19.71-8.17-4.13-19.18-6.12-25.59 2.14-2.22 2.86 1.78 6.92 4 4 7.77-10 22.06.31 30.13 4.78q15.51 8.6 30.67 17.8 29.91 18.15 58.35 38.59c1.87 1.34 3.6-1.73 1.79-3.08Z"
          fill="#ffffff" class="fill-22906c"></path>
    <path d="M493.64 651.66a132.08 132.08 0 0 1-27.48 90c-2.53 3.24 1.83 7.88 4.62 4.62 22.14-25.87 32.1-61.6 26.35-95.13-.34-2-3.62-1.53-3.49.47ZM437.29 719.94c-7.57 13.15-11.2 28.68-7.71 43.67 2.94 12.64 11.57 25.16 23.62 30.63 3.27 1.48 6.11-3 2.88-4.92-24.3-14.23-28.09-43.74-15.84-67.66 1-1.94-1.84-3.63-2.95-1.72Z"
          fill="#ffffff" class="fill-22906c"></path>
    <path d="M609.14 239.93c9.1-1.39 17.69 4.72 23.77 11.65 13.83 15.77 20.33 37 21.29 58 .33 7.13.38 15.09 5.36 20.18 2.58 2.64 6.11 4.05 9.19 6.09 11.41 7.55 15.07 24.76 7.72 36.33a30.71 30.71 0 0 1 21.8 44.35c-7.29 14.13-23.83 20.25-38.9 25.18-10.31 3.36-22.52 6.46-31.21 0-6.56-4.91-8.71-13.68-10.12-21.76a337.29 337.29 0 0 1-5-58.14 28.49 28.49 0 0 1 .85-8.25c1.62-5.3 6-9.18 9.65-13.31 14.7-16.63 19.27-41.63 11.4-62.42"
          fill="#3b165c" class="fill-1a1c3f"></path>
    <path d="M609.14 241.75c15.13-1.22 25.6 14.75 31.6 26.55 6.48 12.74 9.48 27.08 10.14 41.29.26 5.66.28 11.57 2.55 16.87 2.5 5.84 7.11 8.29 12.23 11.54a23.93 23.93 0 0 1 7.49 32.25 3.87 3.87 0 0 0 2.3 5.65c20.36 4.31 29 28.72 15 44.59C684.71 427 676.56 431 668.62 434c-8.46 3.25-17.85 7-27 7.24-10.73.26-16.11-7-18.61-16.63-2.83-10.94-4.16-22.46-5.28-33.67q-.84-8.25-1.25-16.53c-.31-5.91-1.24-12.64-.08-18.49 1-4.89 4.5-8.4 7.73-11.93a68.5 68.5 0 0 0 7.87-10.15c10.38-16.78 12.74-38.32 5.69-56.78-1.27-3.32-6.61-2-5.42 1.49a61.15 61.15 0 0 1-12.85 61.79c-3 3.32-6.22 6.71-7.87 11-2.23 5.66-1.55 12.27-1.55 18.23a338.32 338.32 0 0 0 2.8 40.73c1.32 10.24 2.15 22.05 8.68 30.54s16.89 9.78 26.7 8.14c10.16-1.69 20.47-5.53 29.83-9.79 8.84-4 17.21-9.7 22.51-18 13.05-20.52.45-48.09-23-52.69l2.3 5.65a31.6 31.6 0 0 0-2.82-35.43c-4.64-5.71-13.5-7.67-16.93-14s-2.32-15.26-3.11-22.37c-1.7-15.16-6.3-30.41-14.82-43.19-7.41-11.13-18.94-22.92-33.46-20.95-2 .27-1.55 3.73.48 3.57Z"
          fill="#3b165c" class="fill-1a1c3f"></path>
    <path d="M542.8 384.93a27.77 27.77 0 0 1 4.89-4.8c1.87-1.29 3.92-1.84 6-2.75a1.41 1.41 0 0 0-.71-2.61c-4.85.44-10.05 4.72-11.79 9.21-.36.92 1 1.67 1.65.95Z"
          fill="#408dd6" class="fill-3fc091"></path>
    <path d="M226.6 947.09a181 181 0 0 1 18.54-30.62l-4.56.59c7.23 9.06 14 18.44 21.1 27.58 2.3 3 7-.85 5.13-4-6-9.89-14.07-19.42-22.13-27.72a2.93 2.93 0 0 0-4.55.59 243.67 243.67 0 0 0-16.53 31.78c-.87 2 2 3.81 3 1.76ZM306.26 869.8c-10.71 2.8-21.08 8.65-30.4 14.47a3.44 3.44 0 0 0-.69 5.33C285.84 900 297 909.93 307.92 920a3.72 3.72 0 0 0 6.28-2.6 213.09 213.09 0 0 1 3.6-33.22c.6-3.16 2.57-7.74.42-10.72s-6.82-2-10-1.25c-4.7 1.16-2.71 8.44 2 7.26A9.78 9.78 0 0 1 314 879l-2.25-1.73c.16.33-1.09 4.6-1.15 4.94-.3 1.57-.57 3.14-.83 4.72q-.78 4.74-1.36 9.51c-.87 7-1.35 14-1.56 21l6.28-2.6c-11-10-21.87-20.27-33.15-30l-.69 5.33c9-6.64 18.72-11.5 28.35-17.08a1.79 1.79 0 0 0-1.37-3.25ZM235.83 872.94c6.12-4.47 12.79-8.61 18.44-13.65 1.67-1.49-.5-4.29-2.39-3.09-6.38 4-12.19 9.34-18.16 14-1.54 1.21.51 3.91 2.11 2.74ZM363.06 822a118.37 118.37 0 0 0-20.87.69c-5.88.75-13.26 1.32-18.63 4-4.81 2.37-3.06 6.7-1 10.52a196.38 196.38 0 0 0 11 17.87c3.18 4.62 14.87 25.65 20.72 13.51 2.93-6.09 4.53-13.24 6.69-19.64 2.53-7.51 5.28-15 7.53-22.58l-5.91 1.57 1.31 1.42c2.26 3.83 7.58.47 5.84-3.42a7.66 7.66 0 0 0-2.15-3c-2-2-5-.89-5.92 1.56-2.54 6.81-4.66 13.79-6.95 20.68l-3.13 9.41-1.88 5.64c-.27.8-1.31 5.33-1.49 5.39l2.72.36c-2.5-1.08-5-5.7-6.54-7.75-2-2.67-4-5.4-5.86-8.16-3.61-5.28-7-10.72-10.21-16.25-.31-.52-.61-1-.91-1.58q-1.14-1.47.51-.3c1-.81 3.17-1 4.34-1.4 3.19-1 6.43-1.79 9.69-2.47a118.46 118.46 0 0 1 21.06-2.47 1.78 1.78 0 0 0 0-3.56ZM350.9 938.94c4.19-4.75 8.42-9.46 12.78-14.05q3.27-3.43 6.62-6.8c1.3-1.3 4.92-6.27 6.76-6.68 3.36-.73 7.29 10.61 8.49 13.3q2.06 4.6 3.74 9.36c.13.36 1.73 4.07 1.46 4.31l.16-2.1a5 5 0 0 0-2.21 0c-2.32.2-4 3.77-1.34 5s5.31 2.83 8 1 1.93-4.79 1.07-7.35c-3-8.92-6.78-18.89-12.35-26.55-5-6.84-10-2.19-14.25 2.56q-11.08 12.44-21.53 25.44c-1.43 1.78 1 4.35 2.57 2.57Z"
          fill="#d13232" class="fill-acfddf"></path>
    <path d="M352.32 941.36a58.49 58.49 0 0 0 29.15-.09c2.32-.6 1.34-4.16-1-3.58a58.55 58.55 0 0 1-27.29.46c-2.08-.47-3 2.69-.88 3.21ZM422.7 848.53c-11.63 2.81-22.8 6.71-34.19 10.27-1.71.54-3.11 2.87-1.85 4.54 5.24 6.93 11 13.76 16.89 20.13 3.26 3.51 10.56 11.94 16 10.84 2.94-.58 3.81-3.28 4.83-5.74q2.62-6.27 5.14-12.57c1.7-4.19 3.44-8.36 5.05-12.58 1.41-3.72 2.13-6.16-.48-9.39-1.8-2.23-6.25-.46-5.9 2.45.57 4.77-3.35 11.3-5.05 15.76q-1.38 3.62-2.77 7.22c-.83 2.13-1.87 7.39-3.74 8.9l2.48-1c-1.45 0-5.51-3.64-7.18-5.14a80.62 80.62 0 0 1-6.44-6.63c-4.7-5.28-9.09-10.88-14-16l-.63 4.84c10.43-5.07 21.82-8.65 32.9-12a2 2 0 0 0-1.08-4ZM429.93 816.2c3.82 3.7 8 7.27 11.95 10.83 3 2.69 7.23 7.08 11.2 8.25s5.13-2.39 6-5.35c1.69-5.55 4.37-10 7.12-15a2.93 2.93 0 0 0-4.59-3.54 30.33 30.33 0 0 0-6.38 10 40 40 0 0 0-1.87 5.29c-.28 1-.51 2.07-.7 3.12 1.29-1 1.09-1.73-.59-2.14-1.21-1.52-4-2.71-5.56-3.91-2-1.55-3.93-3.23-5.88-4.88-2.74-2.33-5.44-4.83-9-5.66a1.79 1.79 0 0 0-1.73 3ZM457.79 900c4.16-9.18 7.14-18.9 11-28.21.41-1 2.6-8 3.59-8.22s5.37 4.11 6.37 4.91c3.94 3.18 7.83 6.42 11.57 9.85 3.52 3.22 6.88 6.61 10.21 10 1 1 1.2-.52.16.14a25.26 25.26 0 0 1-2.8 1.52 41 41 0 0 1-7.31 2.51c-8.73 2.21-17.78 2.49-26.15 6-3.78 1.6-1 7.39 2.73 6.46 11.59-2.87 24.58-3.1 35.29-8.76 3.82-2 8.11-5.31 5.74-10.15-2.53-5.14-9.15-9.78-13.39-13.53a160.69 160.69 0 0 0-14.67-11.73c-3.66-2.55-8.92-6-12.43-1.25-3.32 4.48-4.77 11.79-6.59 17-2.5 7.21-5.16 14.52-6.52 22-.32 1.79 2.31 3.28 3.18 1.34ZM432.34 941.89c4.32-7.7 6.67-17 9.69-25.32l-5.28.69a164.29 164.29 0 0 0 18.14 23.4c2.89 3.12 7.62-1.6 4.68-4.68a195.26 195.26 0 0 1-17.83-21.63 2.93 2.93 0 0 0-5.28.69c-2.5 8.27-6.15 16.94-7.31 25.51-.24 1.8 2.13 3.22 3.19 1.34ZM303.86 949.74c1.74-1.71 2.78-4.09 3.89-6.22h-4.45a6.21 6.21 0 0 1 1 2c.05.21.09.41.12.62 0-.23-.06-.18 0 .15.13-.13 0-.51.29-.65-3.1 1.78-.31 6.57 2.79 4.79 4.06-2.33 2.29-7.22-.08-10.07-1.37-1.65-3.67-.47-4.31 1.14-.9 2.25-2 4.53-2.15 7-.12 1.55 1.95 2.23 3 1.23ZM509.07 948.22c5.82-7.05 11.08-14.43 17.42-21.06 1-1.08 3.44-4.5 4.88-4.85q-2.52-.67 0 1.52c.63.94 1.24 1.9 1.84 2.86a110.19 110.19 0 0 1 6.44 12c1.39 3 6.67 1.58 6.37-1.73a14.35 14.35 0 0 0-2.11-6.63c-2.13-3.48-7-.44-5.38 3.14a5.92 5.92 0 0 1 .65 3.49l6.37-1.73c-2.37-5.27-9.75-24.18-18-18.06-4.34 3.21-8.09 8.6-11.3 12.9a80.18 80.18 0 0 0-9.8 16.11c-.68 1.6 1.32 3.71 2.67 2.07ZM519.85 850a53.45 53.45 0 0 0 2.22 12c.87 2.73 1.95 7.18 4.5 8.89 4.59 3.09 11.51-3.63 12.76-7.66 1.16-3.75-5-5.42-5.86-1.61-.43 1.83-1.72 2.8-3.25 3.76-.42.27-.86.53-1.31.77l.06-.38c-.62-.26-1.29-2.5-1.54-3.06a57.64 57.64 0 0 1-4.09-13.15c-.36-2-3.66-1.53-3.49.48Z"
          fill="#d13232" class="fill-acfddf"></path>
    <path d="M786.2 604.41a212.52 212.52 0 0 1 24.2-108.34c2.22-4.2 5.08-8.71 9.69-9.78a16.1 16.1 0 0 1 7 .38c15.08 3.18 21 8.47 30.09 10.28-16-30.63-15.6-56.37-23.45-90.07-1.4-6-2.68-12.13-5.15-17.81-3.71-8.53-9.91-15.67-15.23-23.3-6.8-9.78-12.38-21.1-12-33s8.1-24.25 19.76-26.5l-10.29-32.08c-1.66-5.17-3-11.69 1-15.35 5.07-4.63 13.41.24 16.6 6.32s4.2 13.52 9.08 18.33c5.6-8.76 20.05-9.65 26.67-1.64 3.75-3.95 10.43-3.71 15-.79s7.48 7.85 9.82 12.77a109.17 109.17 0 0 1 10.54 49.46c-.14 5.79-.75 11.6-.17 17.36.66 6.46 2.78 12.67 5.21 18.67 9.21 22.8 22.58 43.61 33.48 65.58 13.81 27.84 26.27 57.29 33 87.74 7 31.72 8.21 71.56-25.45 88.62-22.29 11.28-49.52 9.64-73.62 7.38-29.8-2.79-58.67-11.54-85.73-24.21"
          fill="#ffffff" class="fill-ffffff"></path>
    <path d="M971 532.62c-6.75-30.45-19.21-59.9-33-87.74-10.9-22-24.27-42.78-33.48-65.58-2.43-6-4.55-12.21-5.21-18.67-.58-5.76 0-11.57.17-17.36a109.17 109.17 0 0 0-10.54-49.46 44.66 44.66 0 0 0-4.44-7.63 9.52 9.52 0 0 0-5 2.71c-6.62-8-21.08-7.12-26.67 1.65-3.61-3.56-5.1-8.53-6.92-13.34a15.46 15.46 0 0 0-8.47 6.27c-4.88-4.81-5.89-12.25-9.08-18.33l-.06-.11a7.09 7.09 0 0 0-1.16.86c-4 3.66-2.66 10.17-1 15.35l10.29 32.08c-11.66 2.25-19.43 14.57-19.76 26.49s5.25 23.25 12.06 33c5.31 7.63 11.51 14.77 15.22 23.31 2.47 5.67 3.75 11.78 5.15 17.81 7.86 33.7 7.4 59.43 23.45 90.06 5.78 10.77 6.45 18.55-8.63 15.37-1.87-.4-40.94-12.69-56.69-17a212.48 212.48 0 0 0-21 102c27.06 12.67 55.93 21.42 85.73 24.21 24.1 2.26 51.33 3.9 73.62-7.38 33.63-17.01 32.42-56.85 25.42-88.57Z"
          fill="#408dd6" class="fill-3fc091"></path>
    <path d="M788 604.41a216.49 216.49 0 0 1 14.18-83.23 202 202 0 0 1 8.69-19.7 65 65 0 0 1 4.27-7.7c2.89-4.16 6.13-5.15 11.13-4.23 10.59 1.95 19.67 8.06 30.08 10.33a3.08 3.08 0 0 0 3.43-4.47c-16.19-31.5-15.89-66.81-25.67-100.2-5-16.95-18.73-28.51-25.74-44.39-6.4-14.51-5.32-37.21 13.51-41.52a3.19 3.19 0 0 0 2.21-3.89l-7.27-22.64c-1.59-5-7.43-16.45-3.21-21.15 5.37-6 12.19 5 13.79 9.11 2.1 5.39 3.81 10.63 7.82 14.95a3.17 3.17 0 0 0 4.92-.63c5-7.17 16.06-7.33 21.76-1a3.18 3.18 0 0 0 4.41 0c8.09-7.34 16.47 4.27 19.61 10.68a104.33 104.33 0 0 1 8.88 27.61c1.76 9.91 1.5 19.63 1.19 29.63a65.79 65.79 0 0 0 4.84 26.54c6.78 17.41 16.05 33.7 24.92 50.11a535.21 535.21 0 0 1 25 52.36c11.76 28.85 23.1 61.72 20.3 93.4-1.15 12.93-5.56 25.82-15 35.06-12 11.7-29.55 15.87-45.75 16.89-41.84 2.62-84.47-7.48-122.26-25-4.14-1.92-7.77 4.22-3.6 6.17 36.83 17.14 76.7 26.72 117.43 26.39 17.66-.14 36.59-2.93 51.53-13 11.81-8 19.54-20.1 22.88-33.85 7.79-32.08-3.32-67.84-14.73-97.59a500.9 500.9 0 0 0-25.72-56c-10.09-18.91-21.55-37.31-29.23-57.39a59.1 59.1 0 0 1-4.28-17.29c-.4-6.36.4-12.73.34-19.09a112.06 112.06 0 0 0-5.32-33.1c-2.86-8.88-6.52-19.48-13.66-25.9-6.16-5.55-15.37-6.79-21.76-1h4.41c-8.57-9.52-24.36-8-31.58 2.27l4.92-.63c-5.67-6.13-5.72-15.4-11.36-21.58-4.3-4.7-11.85-8.05-17.63-4-6.08 4.3-5 12.4-3.15 18.62 3.29 11 7 21.84 10.49 32.74l2.2-3.89c-11.35 2.6-19.3 12.73-21.44 23.89-2.65 13.84 3.29 27.6 10.86 38.88 4.21 6.26 9.12 12 13 18.54 4.44 7.47 6.33 15.73 8.25 24.11 3.32 14.47 5.36 29.16 8.2 43.72 3.14 16.09 7.92 31.55 15.47 46.14L858 494c-11.8-2.53-22-10.18-34.39-10.89-6.25-.35-10.67 3.28-13.87 8.33-3.92 6.19-6.84 13.22-9.65 20a212.58 212.58 0 0 0-15.62 93c.12 2.27 3.63 2.3 3.56 0Z"
          fill="#3b165c" class="fill-1a1c3f"></path>
    <path d="M822.15 475.62c-7.37 4.21-11.88 13.78-15.51 21.09-1.52 3 2.83 5.65 4.58 2.68 2.11-3.56 4.21-7.12 6.38-10.63s3.83-7.48 6.66-10.4a1.75 1.75 0 0 0-2.11-2.74ZM869.28 512.66a173 173 0 0 1-11.73-21c-1.49-3.16-6.1-.85-5.42 2.28.94 4.3 3.69 8.51 5.92 12.26 2 3.46 5 7.31 8.8 8.94 1.47.64 3.52-.78 2.43-2.43ZM825.74 311c6.49.65 18.74 2.94 20.93 10.28 2.38 7.95-11.94 9.27-16.89 10.44-3.58.84-2.66 6.13.84 6.24 8.54.28 15.25 3.95 16.72 12.84.58 3.45 5.78 2.44 5.9-.8.44-12.18-12.24-18-22.62-18.39l.85 6.24c8.34-1.95 24-4.53 21.4-16.84-2.37-11.16-17.73-13.55-27.13-13.57-2.33 0-2.23 3.34 0 3.56Z"
          fill="#3b165c" class="fill-1a1c3f"></path>
    <path d="M839.66 279.72c-9 9.29-12.29 25.29-.66 34.09 4.34 3.28 10.48 4.85 15.57 2.36a8.93 8.93 0 0 0 4.65-5.13c1.27-3.8-.62-8.11 1.67-11.56l-4.61-1.94c-2.11 9.24-1.68 22.48 10.88 23 11.56.44 13.8-12.4 13.57-21.24-.11-4.1-6.37-4.12-6.38 0 0 4.77.18 12.74-5.4 14.65-9.49 3.25-8.82-9.63-7.8-15 .51-2.74-3-4.49-4.62-1.94-1.82 3-1.59 5.92-1.76 9.28-.37 7.29-8.28 6.28-12.53 2.8-8.74-7.16-5.23-19.15.22-27.15 1.15-1.68-1.41-3.58-2.8-2.15Z"
          fill="#3b165c" class="fill-1a1c3f"></path>
    <path d="M768.16 458.7c-13.1 20.14-19 46.21-20.74 69.87-.91 12.55 1.1 25.27-.4 37.74-.71 5.88-3.34 10.83-4.78 16.47-1.06 4.13-.9 8.18 2.16 11.36 2.26 2.35 6.5-.75 4.59-3.54-3-4.33.26-9.42 1.78-13.74a51.92 51.92 0 0 0 2.61-15.39c.43-11.57-.8-23.09 0-34.67a169.27 169.27 0 0 1 5.94-34.32c3.15-11.21 7.79-21.64 12.12-32.41.78-1.94-2.21-3-3.26-1.37ZM724.05 443c-10 15.13-12 33.06-14.52 50.6-2.82 20-5.22 40-6.34 60.18-2.33 42.13.11 83.82 5.35 125.64q4.38 34.92 9.38 69.76c.44 3.06 5.82 2.37 5.45-.74-4.91-40.7-11.23-81.3-14.15-122.21-2.89-40.43-.19-80.37 4.33-120.56 2.28-20.29 3-42.84 13.44-60.95a1.7 1.7 0 0 0-2.94-1.72ZM748 618.15a258.32 258.32 0 0 0 2.24 53.85q1.92 13.44 5.17 26.63c1 4.23 2.48 8.4 3.44 12.64 1.19 5.28-1 9.61-.76 14.89.18 3.64 5.81 3.68 5.69 0-.14-4.39 2.06-8.39 1.37-12.76s-2.47-8.44-3.63-12.57c-2.44-8.7-4.45-17.53-6-26.43a298 298 0 0 1-4.08-56.21c0-2.21-3.26-2.16-3.41 0ZM675.91 450.48A312.15 312.15 0 0 0 663.12 532c-.25 14.07.72 28.11 1.14 42.17.2 6.69.27 13.39 0 20.08-.31 7.33-1.76 14.49-2.25 21.77-.22 3.17 4.47 3.56 5.36.72 4-12.59 3.07-27.63 2.66-40.66-.44-13.74-1.52-27.46-1.49-41.22a329.9 329.9 0 0 1 10.68-83.44 1.71 1.71 0 0 0-3.29-.91ZM626.37 482.46a324.72 324.72 0 0 0-8 86.4c.14 3.22 5.15 3.23 5 0a365.16 365.16 0 0 1 6.3-85.47c.42-2.18-2.86-3.13-3.36-.93ZM584.35 492.6c-1.13 13.49-2 27-2.54 40.51-.11 3 4.55 3 4.62 0 .33-13.51.7-27 1.32-40.51.1-2.21-3.22-2.16-3.4 0ZM547 490.27c-1.22 5.74-2.45 11.46-3.51 17.23-.46 2.53 3.41 3.61 3.88 1.07 1.06-5.79 2-11.6 2.84-17.41.32-2.07-2.75-3-3.21-.89ZM523.62 471.87q-2.48 12.64-5.75 25.1c-.64 2.46 3.22 3.52 3.8 1q3-12.56 5.16-25.26c.36-2.09-2.8-3-3.21-.89ZM499.59 473.28l-1.42 12.54c-.29 2.58 4 2.67 4.09 0l.66-12.54c.11-2.18-3.1-2.08-3.33 0Z"
          fill="#ffffff" class="fill-ffffff"></path>
    <ellipse cx="785.98" cy="148.54" rx="92.35" ry="92.74" fill="#d13232" class="fill-acfddf"></ellipse>
    <path d="M727.15 167a92.83 92.83 0 0 1 53.63-111.06 91.78 91.78 0 0 0-20 3.4c-49.06 14-77.53 65.28-63.59 114.55a92.17 92.17 0 0 0 124 60.39A92.4 92.4 0 0 1 727.15 167Z"
          fill="#ffffff" class="fill-ffffff"></path>
    <path d="M694 170.42c11.16 38.33 45 66.51 85 69.54 40.31 3.07 79-20.87 94.8-57.91 15.72-36.8 6.59-81-22.87-108.27a96.32 96.32 0 0 0-108.78-14.9C701.87 79.59 682.1 127.07 694 170.42c1.11 4 7.39 2.32 6.28-1.73-9.85-35.84 3.18-75.15 33.53-97.07a89.71 89.71 0 0 1 102.8-1c30.81 21.22 45.12 60.94 35.38 97-9.7 35.86-41.53 62.85-78.68 65.86-42.28 3.43-81.24-24.22-93-64.73-1.19-4.07-7.47-2.36-6.31 1.67Z"
          fill="#3b165c" class="fill-1a1c3f"></path>
    <path d="M739.35 139.89a1.07 1.07 0 0 1-1.66-.07c-1.36-1.58-.74-5.25-.12-7a2.49 2.49 0 0 1 .73-1.18c2.22-1.71 4.63 3.28 5.31 4.67a20 20 0 0 1 1.83 11.83c-.22 1.35-1.5 2.23-2.77 1.28-2.2-1.65-2.17-6.32-2-8.8"
          fill="#3b165c" class="fill-1a1c3f"></path>
    <path d="M738.87 138.14c1-.24.82-1.92.79-2.79a9.37 9.37 0 0 1 .29-1.16c-.91-.2-1.12-.08-.64.37a43.61 43.61 0 0 1 2.41 4.78 18 18 0 0 1 .9 4c0 .25-.12 4-.08 4 1.6.72.65-2.78.59-3.14a19.46 19.46 0 0 1-.1-3.58c.09-3.09-4.6-3-4.78 0-.24 4 .69 15.53 7.73 11.64 3.23-1.79 2.86-6.69 2.46-9.76a24 24 0 0 0-3.36-9.51c-1.25-2-3.06-4.4-5.66-4.45s-4.15 2.24-4.72 4.59-.9 5.85.8 7.89a3.27 3.27 0 0 0 5.42-.22c1-1.36-.62-3-2-2.67ZM791.65 125a1.09 1.09 0 0 1-1.67-.07c-1.35-1.58-.73-5.25-.11-7a2.49 2.49 0 0 1 .73-1.19c2.21-1.7 4.63 3.29 5.3 4.68a20.13 20.13 0 0 1 1.84 11.83c-.22 1.35-1.51 2.23-2.77 1.28-2.2-1.65-2.18-6.32-2-8.8"
          fill="#3b165c" class="fill-1a1c3f"></path>
    <path d="M791.17 123.22c1-.24.81-1.92.79-2.79a9.37 9.37 0 0 1 .29-1.16c-.91-.2-1.13-.08-.65.36a44.74 44.74 0 0 1 2.42 4.79 18.62 18.62 0 0 1 .9 4c0 .25-.13 4-.09 4.05 1.61.72.65-2.78.6-3.14a19.46 19.46 0 0 1-.11-3.58c.1-3.09-4.59-3-4.78 0-.24 4 .7 15.53 7.73 11.64 3.23-1.79 2.86-6.69 2.46-9.76a23.63 23.63 0 0 0-3.36-9.51c-1.24-2-3.06-4.4-5.66-4.45s-4.15 2.23-4.72 4.59-.89 5.85.81 7.89a3.27 3.27 0 0 0 5.42-.22c1-1.37-.63-3-2.05-2.67ZM765.63 168.08a36.53 36.53 0 0 0 28.37-13.2c2.09-2.56-1.36-6.22-3.7-3.7a42.63 42.63 0 0 1-25.17 13.48c-2 .32-1.44 3.39.46 3.42Z"
          fill="#3b165c" class="fill-1a1c3f"></path>
    <path d="M790.11 148.09a6.34 6.34 0 0 0 .51 4.24c.64 1.32 2.14 2.77 3.7 2.68a2 2 0 0 0 1.43-3.43c-.57-.69-1.24-.8-1.8-1.51a2.5 2.5 0 0 1-.49-1.53c0-1.88-2.92-2.36-3.35-.45ZM761.18 164.05a5.62 5.62 0 0 1 .71 5.08c-.53 2.12 2.67 3.69 3.67 1.55a7.63 7.63 0 0 0-1.76-8.68c-1.3-1.28-3.77.45-2.62 2ZM727.27 109.59a20.78 20.78 0 0 1 14.65-9.85c3.06-.48 1.79-5.21-1.29-4.68a22 22 0 0 0-16.49 12.7c-1 2.09 1.91 3.88 3.13 1.83ZM798.13 92.89c-6.07-5.38-17.29-1.21-23.33 2.25-2.93 1.67-.32 6.14 2.64 4.52a36.74 36.74 0 0 1 8.39-3.31c2.53-.66 7.69-2 10.19-.73 1.67.85 3.67-1.35 2.11-2.73Z"
          fill="#3b165c" class="fill-1a1c3f"></path>
    <ellipse cx="178.51" cy="232.77" rx="92.35" ry="92.74" fill="#ffffff" class="fill-22906c"></ellipse>
    <path d="M240.14 234.06a92.6 92.6 0 0 0-82.31-91.69A92.46 92.46 0 0 1 178 140c51-.28 92.57 41 92.85 92.24S230 325.23 179 325.51a91.66 91.66 0 0 1-10.53-.55 92.69 92.69 0 0 0 71.67-90.9Z"
          fill="#408dd6" class="fill-3fc091"></path>
    <path d="M266.4 230.82c-.07 37.34-23.38 71.95-58.78 84.69a89.82 89.82 0 0 1-98.69-26.79c-24-28.64-27.28-70.73-8.36-102.88s57.1-49.63 93.83-42.36c41.5 8.21 71.46 45.27 72 87.34.06 4.19 6.57 4.2 6.51 0-.51-39.91-25.6-76.13-63.26-89.84-37.86-13.79-81.68-1.3-106.78 30.14C78 202.25 74.83 246.77 95.46 281a96.47 96.47 0 0 0 101 44.43c44.52-9 76.37-49.53 76.46-94.57 0-4.22-6.51-4.23-6.52-.04Z"
          fill="#3b165c" class="fill-1a1c3f"></path>
    <path d="M226.31 214.14a1.09 1.09 0 0 0 1.58-.54c.86-1.9-.75-5.25-1.82-6.74a2.54 2.54 0 0 0-1-.94c-2.6-1-3.53 4.45-3.79 6a20 20 0 0 0 1.51 11.87c.59 1.24 2.07 1.72 3 .46 1.66-2.21.33-6.68-.49-9"
          fill="#3b165c" class="fill-1a1c3f"></path>
    <path d="M225 215.42c1.75 1.37 4 1.18 5.11-.87 1.42-2.52 0-6.14-1.33-8.4-3.41-5.7-8.4-2.19-9.85 2.77s-2.08 15.42 3.26 18.43c2.78 1.57 5.89-.15 6.72-3.09.89-3.13-.3-6.76-1.34-9.69s-5.56-1.68-4.61 1.27a15.77 15.77 0 0 1 1 3.93v1q-1.07 2 1.38 1.48c0 .07-1.16-3.59-1.22-3.88a17.82 17.82 0 0 1-.21-4.67c.1-1.24 1.09-3.49.92-4.66.54-.8.31-.86-.66-.19l.45.77a8 8 0 0 1 .85 2.1c-.27 1.42 0 1.62.83.6-1.41.06-2.61 2.06-1.29 3.1ZM166.53 214.43a1.08 1.08 0 0 0 1.58-.53c.86-1.9-.75-5.25-1.83-6.75a2.43 2.43 0 0 0-1-.93c-2.6-1-3.53 4.45-3.79 6a20 20 0 0 0 1.51 11.84c.59 1.24 2.07 1.73 3 .46 1.66-2.2.33-6.68-.49-9"
          fill="#3b165c" class="fill-1a1c3f"></path>
    <path d="M165.24 215.72a3.24 3.24 0 0 0 5.11-.87c1.42-2.52 0-6.15-1.33-8.41-3.41-5.69-8.4-2.18-9.85 2.77s-2.08 15.42 3.26 18.44c2.78 1.57 5.89-.15 6.72-3.09.89-3.13-.3-6.76-1.34-9.69s-5.56-1.69-4.61 1.27a15.68 15.68 0 0 1 .94 3.92l.05 1q-1.06 2 1.38 1.48c0 .07-1.17-3.59-1.22-3.89a17.75 17.75 0 0 1-.21-4.66c.1-1.24 1.09-3.49.92-4.66.54-.8.31-.87-.66-.19l.45.76a8 8 0 0 1 .85 2.1c-.27 1.42 0 1.62.83.6-1.41.07-2.61 2.06-1.29 3.11ZM148.63 201.32c9.4.26 21.54.07 28.48-7.34 4-4.27-1-10.35-6.09-7.88-7.82 3.8-13.12 9.81-22.39 10.52-3 .22-3.06 4.62 0 4.7ZM234.55 194c-3.17.57-9.12-3.18-11.82-4.85-3-1.84-4.91-5.26-8.82-4.91a5.43 5.43 0 0 0-5 3.83l-.2.65c-1.37 4.5 3.56 7.13 7.21 5.54-3.52-.88-4.59-.73-3.19.44a9.45 9.45 0 0 0 1.48 1.27 14.1 14.1 0 0 0 3.36 2 21.28 21.28 0 0 0 7 1.71c4 .31 8.7.07 11.77-2.75 1.42-1.3-.12-3.26-1.73-3ZM179 265.2c1.77-1.38 4.36-4.58 6.55-5.18.9-.24 2.37.44 3.43.32a6.51 6.51 0 0 0 3.47-1.42c1-.8 1.52-1.89 2.74-2.43 1.68-.74 2.56.34 4.25.34 2.28 0 3.73-1.51 6-1.63a3.1 3.1 0 0 0 1.55-5.73 6.08 6.08 0 0 0-4.7-1.05c-2 .35-2.06.55-3.85.31-4.36-.59-6.21.66-9.91 2.45-.81.39-.86.3-.58.27-.74.08-1.56-.38-2.32-.35a8.68 8.68 0 0 0-5.17 2.27 12.72 12.72 0 0 0-4.34 10.63 1.73 1.73 0 0 0 2.91 1.2Z"
          fill="#3b165c" class="fill-1a1c3f"></path>
    <path d="M173 266.61a8.17 8.17 0 0 1 2.43 1c.9.6 1.4 1.64 2.55 1.8a2.23 2.23 0 0 0 2.78-2.12c0-1.91-1.75-3-3.33-3.65a7 7 0 0 0-4.43-.42c-1.72.36-1.6 2.92 0 3.36ZM208.63 250c-.91 1.45-2.1 2.65-3 4.12a2.36 2.36 0 0 0 3.7 2.85 10.11 10.11 0 0 0 2.59-5.57 1.83 1.83 0 0 0-3.33-1.4Z"
          fill="#3b165c" class="fill-1a1c3f"></path>
    <path d="M151 238.1a51.26 51.26 0 0 0-11.29 6.62c-4.75 3.55-9.47 8.27-9.7 14.21a7.25 7.25 0 0 0 1.41 4.9 6.9 6.9 0 0 0 2.83 1.95 10.37 10.37 0 0 0 9.24-.83 13.83 13.83 0 0 0 5.46-7.57 42 42 0 0 0 1.55-9.4l.83-9.66"
          fill="#408dd6" class="fill-3fc091"></path>
    <path d="M150.73 237.05c-7 2.67-14.4 6.95-19 13-3.4 4.46-5.6 12.11-.36 16.15s12.78 2 16.52-2.93c5.1-6.69 4.42-17 4.86-25 .1-1.79-2.53-1.71-2.73 0-.64 5.39-.74 11-2 16.32a15.32 15.32 0 0 1-3.65 7.34c-2.89 2.89-8.55 3.94-11.23.4-6.77-9 12.17-20.31 18.47-23.35 1.08-.53.31-2.41-.84-2ZM128.52 282.23a74.28 74.28 0 0 0-17 18.15 19.24 19.24 0 0 0-3.16 6.81 7.93 7.93 0 0 0 1.76 7.05c2.49 2.52 6.77 2.29 9.85.54a12.87 12.87 0 0 0 4.57-4.35c1.92-3.05 2.49-6.74 2.93-10.31q1-8.5 1.4-17.05"
          fill="#408dd6" class="fill-3fc091"></path>
    <path d="M128 281.38a74.11 74.11 0 0 0-18.14 18c-3.64 5.24-6.47 14 .75 17.87 6 3.19 13.21-1 16.17-6.44 4.25-7.85 3.5-19.15 3.64-27.76 0-2-2.89-1.93-3 0-.49 6.27-1.06 12.62-2.15 18.82a19.5 19.5 0 0 1-2.5 7.46c-1.61 2.43-8.1 7.16-11 3.32-3.94-5.2 2.17-12.69 5.24-16.79a80.7 80.7 0 0 1 12.24-12.95c.84-.72-.28-2.2-1.2-1.55Z"
          fill="#408dd6" class="fill-3fc091"></path>
    <path d="M146.54 244.87c-.92 6-3.7 10.78-6.49 16.09-1.21 2.3 1.77 4.84 3.7 2.85 4.68-4.85 6.26-11.92 6.29-18.47 0-1.94-3.19-2.51-3.5-.47ZM124.19 289.33c-.51 6.05-2.64 11.4-5.51 16.68-1.55 2.86 2.52 5.18 4.33 2.53a30 30 0 0 0 4.66-19.21 1.74 1.74 0 0 0-3.48 0ZM113.82 315.68a1.78 1.78 0 0 0 0-3.56 1.78 1.78 0 0 0 0 3.56Z"
          fill="#d13232" class="fill-acfddf"></path>
</svg>