<svg data-name="Layer 1" viewBox="0 0 1000 1000" xmlns="http://www.w3.org/2000/svg">
    <rect height="67.6" rx="30" width="67.6" x="249.3" y="86.94" fill="#272836" class="fill-1a1c3f"></rect>
    <path d="M286.9 151.36c-4.68 0-9.51.34-14.09-.8a27 27 0 0 1-17.3-13.56c-5.13-9.78-4.53-26.09 1.66-35.18C264.53 91 277.5 89 289.63 90.24c15.58 1.58 24.09 14.93 24.09 29.55 0 6.93-.41 13.37-4.33 19.38a27.29 27.29 0 0 1-22.49 12.19c-4.09.09-4.1 6.45 0 6.35a33.67 33.67 0 0 0 33.18-33.18c.13-6.35.24-12.85-2-18.91a33.47 33.47 0 0 0-16.73-18.54c-12.61-6-31.63-4.86-42.64 3.86-12.13 9.61-15.23 27.23-11.58 41.77a33.38 33.38 0 0 0 17.7 21.68c7.1 3.4 14.4 3.32 22.06 3.32 4.11 0 4.11-6.35.01-6.35Z"
          fill="#272836" class="fill-1a1c3f"></path>
    <path d="M293.07 105.68c-6.44 7.07-11.32 15.82-16.58 23.78l5.45-.7c-2.47-2.39-3.8-5.36-6-7.89-1.74-2-5.5-.44-5.32 2.21.3 4.36 3.15 7.86 6.43 10.58 1.66 1.39 4.27 1.4 5.44-.7 4.64-8.32 10.12-16.66 13.43-25.63.59-1.6-1.74-2.87-2.84-1.65Z"
          fill="#b0445a" class="fill-3fc091"></path>
    <path d="m344.49 108.77 23 .45c7 .13 14.57 1.07 21.5.21 8.46-1 10.25-14.17 2.35-17.64-9.7-4.27-7.9 12-5.94 16.39s5.56 7.34 10.42 7.14c6-.25 10.22-5 14.74-8.36l-3.83-1.56c.52 3.74 4.26 4.67 7.52 4.8 7.47.3 15.22-.61 22.7-.91 14.79-.6 29.66-.78 44.42-1.85 2.77-.2 2.85-4.36 0-4.37-11.83 0-23.71.62-35.53 1-3.45.1-33.74 2.33-34.08 0a2.61 2.61 0 0 0-3.83-1.56c-4.56 3.42-13 12.6-17.63 4.41-.92-1.63-2.82-6.87-1.84-8.67 1.06-2 2.47-.34 2.92 1.4.8 3.06-2.37 4.77-4.71 5.33-2.82.67-6.68 0-9.59 0h-11.51l-21.1.11a1.85 1.85 0 0 0 0 3.7ZM345.58 139.73c6.25 3.15 9.8-2.88 10.81-8.28l-4.57-.62c.47 4.24 1.81 9.56 7 10a11.81 11.81 0 0 0 2.91-.48 10.91 10.91 0 0 1 4.19.23c3.24.47 6.88 0 10.15-.1q24.83-.63 49.65-1.43c2.75-.09 2.77-4.32 0-4.29q-18.87.19-37.74.53c-5.95.11-11.91.31-17.87.33-2.47 0-5-1-7.39-.83-.57 0-1.28.56-1.78.51a4.89 4.89 0 0 1-4.43-4.5c-.31-2.31-4.09-3.48-4.57-.62-.33 2-.91 7.51-4.87 6.07-2-.73-3.36 2.49-1.45 3.45ZM443.35 137.76l.45-.45a1.59 1.59 0 0 0 .39-.61 1.75 1.75 0 0 0 0-1.46 1.49 1.49 0 0 0-.39-.6l-.38-.3a2 2 0 0 0-1-.26l-.5.07a1.86 1.86 0 0 0-.83.49l-.45.45a1.28 1.28 0 0 0-.39.61 1.63 1.63 0 0 0 0 1.45 1.28 1.28 0 0 0 .39.61l.38.29a1.86 1.86 0 0 0 .95.26l.5-.07a2 2 0 0 0 .84-.48ZM452.44 138.88c2.57 0 2.58-4 0-4s-2.57 4 0 4ZM467.18 136.88v-.46a1.52 1.52 0 0 0-.17-.76 1.46 1.46 0 0 0-.42-.65 1.5 1.5 0 0 0-.64-.41 1.45 1.45 0 0 0-.77-.17l-.53.07a1.91 1.91 0 0 0-.88.51l-.31.41a2 2 0 0 0-.28 1v.46a2.07 2.07 0 0 0 2 2l.54-.07a2 2 0 0 0 .9-.52l.32-.41a2.07 2.07 0 0 0 .28-1Z"
          fill="#81c4e6" class="fill-22906c"></path>
    <rect height="67.6" rx="30" width="67.6" x="249.3" y="192.21" fill="#272836" class="fill-1a1c3f"></rect>
    <path d="M286.9 256.64c-4.68 0-9.51.34-14.09-.8a27 27 0 0 1-17.3-13.61c-5.13-9.78-4.53-26.09 1.66-35.18 7.36-10.8 20.33-12.77 32.46-11.54 15.58 1.59 24.09 14.94 24.09 29.56 0 6.92-.41 13.37-4.33 19.38a27.29 27.29 0 0 1-22.49 12.19c-4.09.09-4.1 6.44 0 6.35a33.67 33.67 0 0 0 33.18-33.18c.13-6.35.24-12.85-2-18.91a33.47 33.47 0 0 0-16.73-18.54c-12.61-6-31.63-4.86-42.64 3.86-12.13 9.61-15.23 27.23-11.58 41.77a33.38 33.38 0 0 0 17.7 21.68c7.1 3.4 14.4 3.32 22.06 3.32 4.11.01 4.11-6.35.01-6.35Z"
          fill="#272836" class="fill-1a1c3f"></path>
    <path d="M293.07 211c-6.44 7.07-11.32 15.82-16.58 23.78l5.45-.7c-2.47-2.39-3.8-5.36-6-7.89-1.74-2-5.5-.44-5.32 2.2.3 4.37 3.15 7.87 6.43 10.59 1.66 1.39 4.27 1.4 5.44-.7 4.64-8.32 10.12-16.66 13.43-25.63.59-1.6-1.74-2.87-2.84-1.65Z"
          fill="#b0445a" class="fill-3fc091"></path>
    <path d="m344.49 214 23 .46c7 .13 14.57 1.07 21.5.21 8.46-1 10.25-14.18 2.35-17.64-9.7-4.27-7.9 12-5.94 16.39s5.56 7.34 10.42 7.14c6-.25 10.22-5 14.74-8.37l-3.83-1.55c.52 3.74 4.26 4.67 7.52 4.8 7.47.3 15.22-.61 22.7-.91 14.79-.6 29.66-.78 44.42-1.85 2.77-.2 2.85-4.36 0-4.37-11.83 0-23.71.62-35.53 1-3.45.1-33.74 2.33-34.08 0a2.61 2.61 0 0 0-3.83-1.56c-4.56 3.42-13 12.6-17.63 4.41-.92-1.63-2.82-6.87-1.84-8.67 1.06-2 2.47-.34 2.92 1.4.8 3.06-2.37 4.77-4.71 5.33-2.82.67-6.68 0-9.59 0l-11.51.05-21.1.11a1.85 1.85 0 0 0 0 3.69ZM345.58 245c6.25 3.15 9.8-2.88 10.81-8.28l-4.57-.62c.47 4.23 1.81 9.56 7 10a11.81 11.81 0 0 0 2.91-.48 10.72 10.72 0 0 1 4.19.23c3.24.47 6.88 0 10.15-.1q24.83-.64 49.65-1.43c2.75-.09 2.77-4.32 0-4.29q-18.87.19-37.74.53c-5.95.11-11.91.31-17.87.33-2.47 0-5-1-7.39-.83-.57 0-1.28.56-1.78.51a4.89 4.89 0 0 1-4.43-4.5c-.31-2.31-4.09-3.48-4.57-.62-.33 2-.91 7.51-4.87 6.07-2-.73-3.36 2.49-1.45 3.45ZM443.35 243l.45-.46a1.49 1.49 0 0 0 .39-.6 1.75 1.75 0 0 0 0-1.46 1.49 1.49 0 0 0-.39-.6l-.38-.3a2 2 0 0 0-1-.26l-.5.07a1.86 1.86 0 0 0-.83.49l-.45.45a1.28 1.28 0 0 0-.39.61 1.37 1.37 0 0 0-.17.72 1.41 1.41 0 0 0 .17.73 1.28 1.28 0 0 0 .39.61l.38.29a1.86 1.86 0 0 0 .95.26l.5-.07a2 2 0 0 0 .84-.48ZM452.44 244.16c2.57 0 2.58-4 0-4s-2.57 4 0 4ZM467.18 242.16v-.46a1.58 1.58 0 0 0-.17-.77 1.83 1.83 0 0 0-1.06-1.05 1.45 1.45 0 0 0-.77-.17l-.53.07a1.91 1.91 0 0 0-.88.51l-.31.41a2 2 0 0 0-.28 1v.46a1.49 1.49 0 0 0 .17.78 1.55 1.55 0 0 0 .42.66 2.26 2.26 0 0 0 1.44.59l.54-.07a2 2 0 0 0 .9-.52l.32-.41a2.07 2.07 0 0 0 .28-1Z"
          fill="#81c4e6" class="fill-22906c"></path>
    <rect height="67.6" rx="30" width="67.6" x="298.08" y="297.49" fill="#272836" class="fill-1a1c3f"></rect>
    <path d="M335.68 361.92c-4.68 0-9.51.34-14.09-.8a27 27 0 0 1-17.29-13.61c-5.14-9.78-4.54-26.09 1.66-35.18 7.35-10.8 20.33-12.77 32.45-11.54 15.58 1.58 24.1 14.94 24.1 29.56 0 6.92-.41 13.37-4.34 19.38a27.26 27.26 0 0 1-22.49 12.19c-4.08.09-4.1 6.44 0 6.35a33.66 33.66 0 0 0 33.18-33.18c.14-6.36.24-12.86-2-18.91a33.45 33.45 0 0 0-16.72-18.54c-12.62-6-31.64-4.86-42.65 3.86-12.13 9.61-15.23 27.23-11.57 41.77a33.33 33.33 0 0 0 17.7 21.73c7.1 3.4 14.4 3.32 22.06 3.32 4.09-.05 4.1-6.4 0-6.4Z"
          fill="#272836" class="fill-1a1c3f"></path>
    <path d="M341.85 316.24c-6.44 7.07-11.32 15.82-16.57 23.78l5.44-.7c-2.47-2.4-3.79-5.36-6-7.89-1.73-2-5.5-.44-5.32 2.2.3 4.37 3.16 7.86 6.43 10.59 1.66 1.38 4.28 1.39 5.45-.7 4.63-8.32 10.11-16.67 13.42-25.63.59-1.6-1.73-2.87-2.84-1.65Z"
          fill="#b0445a" class="fill-3fc091"></path>
    <path d="m393.27 319.32 23 .45c7 .14 14.57 1.08 21.51.22 8.45-1 10.25-14.18 2.35-17.65-9.71-4.26-7.9 12-5.95 16.4s5.57 7.34 10.42 7.14c6.05-.25 10.23-5 14.75-8.37l-3.81-1.51c.51 3.75 4.25 4.67 7.51 4.81 7.48.3 15.23-.61 22.71-.92 14.78-.59 29.66-.77 44.42-1.84 2.77-.21 2.84-4.36 0-4.37-11.84-.05-23.71.62-35.54 1-3.44.1-33.73 2.33-34.07 0a2.61 2.61 0 0 0-3.83-1.56c-4.56 3.42-13 12.6-17.64 4.41-.92-1.63-2.81-6.87-1.83-8.68s2.46-.33 2.91 1.41c.8 3.06-2.37 4.77-4.71 5.33-2.82.67-6.67 0-9.59 0h-11.51l-21.1.1a1.85 1.85 0 0 0 0 3.7ZM394.36 350.29c6.26 3.15 9.8-2.89 10.81-8.28l-4.57-.62c.48 4.23 1.81 9.56 7 10a11.88 11.88 0 0 0 2.91-.48 10.67 10.67 0 0 1 4.18.23c3.25.47 6.88 0 10.15-.1q24.84-.65 49.65-1.43c2.75-.09 2.77-4.32 0-4.29q-18.87.19-37.73.53c-6 .11-11.92.31-17.87.32-2.47 0-5-.95-7.39-.82-.58 0-1.28.56-1.79.51a4.9 4.9 0 0 1-4.43-4.5c-.3-2.31-4.09-3.48-4.56-.62-.33 2-.92 7.51-4.88 6.07-2-.73-3.35 2.49-1.45 3.45ZM492.13 348.32l.45-.46a1.31 1.31 0 0 0 .39-.6 1.65 1.65 0 0 0 0-1.46 1.31 1.31 0 0 0-.39-.6l-.38-.3a1.86 1.86 0 0 0-.95-.26l-.5.07a1.8 1.8 0 0 0-.83.49l-.46.45a1.46 1.46 0 0 0-.39.61 1.36 1.36 0 0 0-.16.72 1.4 1.4 0 0 0 .16.73 1.52 1.52 0 0 0 .39.61l.38.29a1.92 1.92 0 0 0 1 .26l.5-.07a1.93 1.93 0 0 0 .83-.48ZM501.23 349.44c2.57 0 2.57-4 0-4s-2.58 4 0 4ZM516 347.44v-.46a1.47 1.47 0 0 0-.17-.77 1.78 1.78 0 0 0-1-1 1.38 1.38 0 0 0-.77-.17l-.54.07a2 2 0 0 0-.88.51l-.31.4a2 2 0 0 0-.27 1v.46a1.5 1.5 0 0 0 .18.78 1.82 1.82 0 0 0 1.07 1.08 1.63 1.63 0 0 0 .79.17l.54-.07a2.15 2.15 0 0 0 .9-.52l.31-.42a1.94 1.94 0 0 0 .28-1Z"
          fill="#81c4e6" class="fill-22906c"></path>
    <rect height="67.6" rx="30" width="67.6" x="249.3" y="402.77" fill="#272836" class="fill-1a1c3f"></rect>
    <path d="M286.9 467.2c-4.68 0-9.51.34-14.09-.8a27 27 0 0 1-17.3-13.62c-5.13-9.78-4.53-26.08 1.66-35.17 7.36-10.8 20.33-12.77 32.46-11.54 15.58 1.58 24.09 14.94 24.09 29.56 0 6.92-.41 13.36-4.33 19.38a27.29 27.29 0 0 1-22.49 12.19c-4.09.09-4.1 6.44 0 6.35a33.67 33.67 0 0 0 33.18-33.18c.13-6.36.24-12.86-2-18.91a33.47 33.47 0 0 0-16.73-18.54c-12.61-6-31.63-4.86-42.64 3.86-12.13 9.61-15.23 27.23-11.58 41.77a33.38 33.38 0 0 0 17.7 21.68c7.1 3.4 14.4 3.32 22.06 3.32 4.11 0 4.11-6.35.01-6.35Z"
          fill="#272836" class="fill-1a1c3f"></path>
    <path d="M293.07 421.52c-6.44 7.07-11.32 15.82-16.58 23.78l5.45-.7c-2.47-2.4-3.8-5.36-6-7.89-1.74-2-5.5-.45-5.32 2.2.3 4.36 3.15 7.86 6.43 10.59 1.66 1.38 4.27 1.39 5.44-.7 4.64-8.33 10.12-16.67 13.43-25.63.59-1.6-1.74-2.87-2.84-1.65Z"
          fill="#b0445a" class="fill-3fc091"></path>
    <path d="m344.49 424.6 23 .45c7 .14 14.57 1.08 21.5.22 8.46-1 10.25-14.18 2.35-17.65-9.7-4.26-7.9 12-5.94 16.4s5.56 7.34 10.42 7.14c6-.25 10.22-5 14.74-8.37l-3.83-1.56c.52 3.75 4.26 4.67 7.52 4.81 7.47.3 15.22-.62 22.7-.92 14.79-.59 29.66-.77 44.42-1.84 2.77-.21 2.85-4.36 0-4.37-11.83-.05-23.71.62-35.53 1-3.45.1-33.74 2.32-34.08 0a2.61 2.61 0 0 0-3.83-1.56c-4.56 3.42-13 12.59-17.63 4.41-.92-1.63-2.82-6.87-1.84-8.68s2.47-.33 2.92 1.41c.8 3.06-2.37 4.77-4.71 5.33-2.82.67-6.68 0-9.59 0l-11.51.05-21.1.1a1.85 1.85 0 0 0 0 3.7ZM345.58 455.57c6.25 3.15 9.8-2.89 10.81-8.28l-4.57-.62c.47 4.23 1.81 9.56 7 10a11.81 11.81 0 0 0 2.91-.48 10.72 10.72 0 0 1 4.19.23c3.24.47 6.88 0 10.15-.1q24.83-.64 49.65-1.43c2.75-.09 2.77-4.32 0-4.29q-18.87.19-37.74.53c-5.95.11-11.91.31-17.87.32-2.47 0-5-1-7.39-.82-.57 0-1.28.56-1.78.51a4.89 4.89 0 0 1-4.43-4.5c-.31-2.31-4.09-3.48-4.57-.62-.33 2-.91 7.51-4.87 6.07-2-.73-3.36 2.49-1.45 3.45ZM443.35 453.6l.45-.46a1.49 1.49 0 0 0 .39-.6 1.75 1.75 0 0 0 0-1.46 1.49 1.49 0 0 0-.39-.6l-.38-.3a1.89 1.89 0 0 0-1-.26l-.5.07a1.86 1.86 0 0 0-.83.49l-.45.45a1.28 1.28 0 0 0-.39.61 1.37 1.37 0 0 0-.17.72 1.43 1.43 0 0 0 .17.73 1.33 1.33 0 0 0 .39.61l.38.29a1.86 1.86 0 0 0 .95.26l.5-.07a2 2 0 0 0 .84-.48ZM452.44 454.71c2.57 0 2.58-4 0-4s-2.57 4 0 4ZM467.18 452.72v-.46a1.58 1.58 0 0 0-.17-.77 1.43 1.43 0 0 0-.42-.64 1.41 1.41 0 0 0-.64-.41 1.46 1.46 0 0 0-.77-.18l-.53.08a1.91 1.91 0 0 0-.88.51l-.31.4a2 2 0 0 0-.28 1v.46a1.49 1.49 0 0 0 .17.78 1.55 1.55 0 0 0 .42.66 1.7 1.7 0 0 0 .66.42 1.59 1.59 0 0 0 .78.17l.54-.07a2 2 0 0 0 .9-.52l.32-.42a2 2 0 0 0 .28-1Z"
          fill="#81c4e6" class="fill-22906c"></path>
    <path d="M742 821.37c1.39 26.67-17.35 50.71-39.56 65.55-4.94 3.3-10.84 9.08-7.57 14.05 1.37 2.09 3.94 3 6.33 3.68a169.24 169.24 0 0 0 80.8 3.42c7 .88 16 .72 18.82-5.77 1-2.26.9-4.81.8-7.27q-1.53-39.35-3.07-78.7"
          fill="#ffffff" class="fill-ffffff"></path>
    <path d="M719.7 892.81c-5 3.31-10.85 9.09-7.58 14.06a5.13 5.13 0 0 0 .54.69 169.39 169.39 0 0 0 69.33.51c7 .88 16 .72 18.82-5.77 1-2.26.9-4.81.8-7.27q-1.38-35.65-2.78-71.3l-39.58 3.53c1.4 26.67-17.34 50.74-39.55 65.55Z"
          fill="#96e1ff" class="fill-acfddf"></path>
    <path d="M740.35 821.37c-.37 19.85-10.61 37.3-24.73 50.74a102.48 102.48 0 0 1-11.16 9.22c-3.86 2.76-8 5.17-10.92 9-4.78 6.1-3.54 13.59 3.89 16.71 10.07 4.23 22.08 5.73 32.87 6.84a173.54 173.54 0 0 0 33.34.15c5.23-.47 10.38-1.3 15.57-2.1 4.45-.68 8.9.13 13.37-.62 8-1.34 12.31-6.75 12.28-14.76 0-13.59-1.11-27.25-1.63-40.83-.5-13.25-.06-27-1.9-40.12-.48-3.39-5.49-2.29-5.68.77-.65 10.39.54 21.08 1 31.48s.83 21 1.22 31.48c.2 5.24.47 10.49.6 15.74.12 4.72-.65 8.38-5.69 9.67-3.67.94-7.09 0-10.74.14-5.11.16-10.46 1.84-15.58 2.37a167.42 167.42 0 0 1-59.8-4.66c-4.37-1.15-12-2.73-7.24-8.45 2.71-3.28 6.79-5.44 10.13-8A106 106 0 0 0 727 869.37c11-13.43 18.38-30.36 16.7-48-.2-2.1-3.28-2.18-3.33 0Z"
          fill="#272836" class="fill-1a1c3f"></path>
    <path d="M730.4 854.45c2.45-2.79 8-1.31 11.18-1 4 .43 8 1 12 1.73l1.81.32c1.85-.15 2.32.06 1.41.62.44.58.28 1.82.73 2.52a3.4 3.4 0 0 0 3.07 1.68 3 3 0 0 0 2.56-4.47l-.08-.15c-1-1.83-3.22-1.74-4.66-.61l-.09.08c-3 2.36 1.22 6.53 4.19 4.19l.09-.07-4.66-.6.09.16 2.56-4.47c1.44-.1 1.69 1.4 1.94-.16a3.5 3.5 0 0 0-.48-1.73 5 5 0 0 0-2.36-2.12c-3.62-1.74-9.65-1.51-13.55-1.82-5.74-.47-16-2.83-18.54 4.25a1.67 1.67 0 0 0 2.78 1.62ZM720.62 868.47c2.68-2.2 6.84-1.39 10-1.07 4.48.46 9 1 13.44 1.75 1.49.24 2.79.33 3.85 1.29.54.49.59 1.42 1.27 1.94a3.73 3.73 0 0 0 4.3.11 3 3 0 0 0 1.51-2.62v-.39c-.41-3.86-6.52-3.88-6.08 0v.39l1.5-2.63q4 1.85 2.71-.33c-.37-.5-.75-1-1.13-1.48a8.17 8.17 0 0 0-3.51-1.61c-4.11-1.18-8.85-1.3-13.1-1.43-6-.19-13.34-1.37-17.3 4.11-1.16 1.61 1.23 3 2.55 2Z"
          fill="#b0445a" class="fill-3fc091"></path>
    <path d="M905.29 824c3.14 26.53-14 51.74-35.17 68-4.72 3.63-10.23 9.78-6.64 14.53 1.5 2 4.12 2.71 6.56 3.25a169.21 169.21 0 0 0 80.82-1.87c7.06.42 16-.34 18.4-7 .83-2.31.58-4.86.33-7.3q-4.12-39.17-8.23-78.33"
          fill="#ffffff" class="fill-ffffff"></path>
    <path d="M887.7 896.76c-4.72 3.62-10.23 9.78-6.64 14.52a5.17 5.17 0 0 0 .58.65 169.31 169.31 0 0 0 69.22-4c7.06.42 16-.34 18.4-7 .83-2.31.58-4.86.33-7.3q-3.74-35.49-7.45-71l-39.26 6.11c3.12 26.54-13.99 51.76-35.18 68.02Z"
          fill="#96e1ff" class="fill-acfddf"></path>
    <path d="M903.63 824c1 20.63-8.8 39.4-22.87 54a109.55 109.55 0 0 1-10 9.14c-3.52 2.84-7.27 5.48-9.72 9.38-4.69 7.49-.77 14.38 7.34 16.46 21.06 5.41 43.85 5.31 65.21 2 5.51-.87 10.87-2.39 16.34-3.41 4-.75 8.11-.14 12.13-1.17 8-2 11.5-8 10.8-16-1.17-13.31-2.84-26.6-4.23-39.9s-1.77-27-4.48-39.93c-.68-3.23-5.69-2.45-5.68.77 0 10.4 1.92 21 3 31.33s2.19 20.88 3.27 31.33c.55 5.22 1.15 10.44 1.63 15.67.43 4.62 0 8.45-4.83 10.17-3.34 1.17-6.65.7-10.07.92-4.7.31-9.48 2.11-14.15 3a165.54 165.54 0 0 1-60.93-.13c-3.69-.69-12.71-1.28-9.7-7 2-3.84 6.32-6.38 9.54-9.12a108.89 108.89 0 0 0 16.82-18.1c10.52-14.29 16.7-32 13.83-49.82-.3-1.85-3.36-1.41-3.27.44Z"
          fill="#272836" class="fill-1a1c3f"></path>
    <path d="M896.06 857.52c2-2.63 7.83-1.56 10.73-1.44 4 .16 8 .48 11.94.9 1.44.15 2.93 0 3.62.81.49.57.44 1.87 1 2.55a3.49 3.49 0 0 0 3.64 1.24c1.89-.26 2.72-2.9 1.78-4.35l-.1-.16a3 3 0 0 0-4.66-.6l-.08.08c-2.85 2.56 1.36 6.75 4.19 4.2l.09-.08-4.66-.6.09.15 1.78-4.36h-.27l2.88.76a11.52 11.52 0 0 0-.59-2.71 4.94 4.94 0 0 0-2.41-2.08c-3.71-1.61-9.7-.93-13.64-1-5.63-.08-16.36-1.8-18.37 5.36-.55 2 2 2.69 3 1.28ZM887 872.49c2.57-2.41 6.59-1.92 9.81-1.8 4.13.15 8.27.44 12.4.76 1.64.13 3.94 0 5.13 1 .54.41.67 1.44 1.32 1.92a3.68 3.68 0 0 0 4.29 0 3.18 3.18 0 0 0 1.4-3.43l-.07-.38c-.66-3.84-6.55-2.22-5.86 1.62l.07.38 1.39-3.44c2.59 1.29 3.46 1.21 2.62-.22a16.68 16.68 0 0 0-1.19-1.45 7.53 7.53 0 0 0-3.61-1.45c-4.23-.92-8.87-.77-13.17-.62-5.9.19-13.56-.55-17.13 5.15-1 1.6 1.23 3.21 2.55 2Z"
          fill="#b0445a" class="fill-3fc091"></path>
    <path d="M547.22 261.61a71.77 71.77 0 0 0-11-22.62c-3.45-4.75-7.77-9.27-13.41-10.92a33.2 33.2 0 0 0-6.44-1l-7-.59c-2.63-.23-5.27-.46-7.91-.47a50.46 50.46 0 0 0-19.7 3.86c-2.66 1.1-5.36 2.56-6.82 5s-1.11 6.22 1.4 7.63a8.46 8.46 0 0 0 3.38.79l8.86.81c-3.43 2.93-6.41 6.8-6.83 11.29s2.56 9.47 7 10c-4.25 1.08-6.55 5.9-6.58 10.29a17.56 17.56 0 0 0 6.83 13.77c2.24 1.75 5.37 2.93 7.89 1.63s2.8-5.88.05-6.58c5.59 9.45 18.25 14 28.59 10.31"
          fill="#96e1ff" class="fill-acfddf"></path>
    <path d="M536.27 239a43 43 0 0 0-4.45-5.28c-1.16-.17-2.34-.28-3.51-.38l-7-.6c-2.63-.22-5.26-.45-7.9-.47a50.67 50.67 0 0 0-19.71 3.87c-2.66 1.1-5.36 2.56-6.82 5a6.54 6.54 0 0 0-.84 2.74l2.59.24a26.49 26.49 0 0 0-2.3 2.2 4.36 4.36 0 0 0 2 2.45 8.63 8.63 0 0 0 3.38.79l8.86.8c-3.43 2.94-6.41 6.81-6.83 11.3s2.56 9.46 7 10c-4.25 1.08-6.55 5.9-6.57 10.29a17.44 17.44 0 0 0 2.6 9.16h.07a4.12 4.12 0 0 0 2-3.82 24.59 24.59 0 0 0 11.71 7.71 4.57 4.57 0 0 0 .18-1.46 23.42 23.42 0 0 0 1.86 2 23.37 23.37 0 0 0 12.89-.7l21.74-33.2A71.77 71.77 0 0 0 536.27 239Z"
          fill="#b0445a" class="fill-3fc091"></path>
    <path d="M548.9 261.15c-2.17-10.93-7.39-21.91-15.43-29.79s-20.18-8.05-31-8.3a53.38 53.38 0 0 0-18 2.65c-4.43 1.47-9.61 3.43-12.07 7.7-1.84 3.2-1.74 7.8.93 10.53 3.48 3.56 10.79 2.81 15.31 3.23L486.5 242c-4.49 4.05-8.4 9.54-7.63 15.89a12 12 0 0 0 9.13 10.47v-5.9c-12.77 4.17-10.4 21.57-2 28.88 3.75 3.26 10.31 5.59 14.21 1.2 2.93-3.28 2.58-9-1.67-11-2.83-1.31-6.56 1.51-4.61 4.61a29.13 29.13 0 0 0 32.53 12.36c4.84-1.41 2.64-9.18-2.07-7.51a20.7 20.7 0 0 1-24.64-8.25l-4.61 4.61a2.19 2.19 0 0 1-3.37 0 12.58 12.58 0 0 1-2.63-2.24 14.39 14.39 0 0 1-3-5.38c-1.17-3.8-.92-9.73 3.48-11.42 2.53-1 3.26-5.27 0-5.9-9.41-1.81-2.86-12.59 1.11-16.18 2.11-1.9.28-4.94-2.13-5.15-2.7-.25-13.41.31-11.05-4.69 1.72-3.66 8.63-5.14 12-6 8.36-2.13 16.63-1.27 25.09-.55s14 3.55 19.22 10.48a93.56 93.56 0 0 1 11.66 21.69 1.74 1.74 0 0 0 3.35-.92Z"
          fill="#272836" class="fill-1a1c3f"></path>
    <path d="M789.8 223.67c-49.1 14.92-81.74 60.13-123.23 90.33-19.69-6-37.8-16.16-55.73-26.24-11.14-6.26-24.18-20.38-35.31-26.64-8.72-4.9-14.64 3.51-23.89-.3-1.7-.7-4.41-6.83-6.24-6.75-2.48.1-4.68 1.53-6.63 3.05a53.89 53.89 0 0 0-19.3 30.5c-.9 4-1 9.07 2.44 11.42 1.4 1 3.22 1.32 4.36 2.57 2 2.24.84 5.74.12 8.68-2.84 11.65 4.18 23.37 12.07 32.4 18 20.59 41.73 35.18 65.06 49.44 11.87 7.26 24 14.61 37.39 18.24 24.3 6.57 50.65.1 72.63-12.18s40.38-29.95 58.5-47.42c1.48-1.42.8-5.26-.55-3.71"
          fill="#b0445a" class="fill-3fc091"></path>
    <path d="M789.24 221.64c-51.07 13.76-83.88 58.55-124.86 88.62l3.34-.44c-19.85-6.17-39.51-16-57-27.17-7.89-5-14.65-11.62-21.94-17.42-6-4.77-12.66-10.62-20.83-9.85-3.24.31-6.24 1.66-9.45 2.08-4.67.61-5.26-1.33-8-4.41-5.43-6.19-12.68-.6-17.46 3.73a57.72 57.72 0 0 0-14.62 21c-2.62 6.41-5.73 15.63-1.28 21.95a12.22 12.22 0 0 0 3.32 3.05c2.58 1.79 3.11 1.73 2.41 5.12a33.47 33.47 0 0 0-.64 12.92c1.53 8.85 6.62 16.71 12.26 23.5 12.56 15.12 28.65 27.26 45 38 16.83 11.06 34.39 23.1 53.36 30.13 18.42 6.82 38.68 6.12 57.33.53 21.48-6.45 40.27-19 57.25-33.4 8.74-7.39 17-15.28 25.28-23.21 2.87-2.76 5.75-5.79 4.38-10.16-1.06-3.4-4.77-5.12-7.84-3.05-4.78 3.21-.29 11 4.53 7.76l.53-.36-3.46.45.42.17-2.68-2.06c-.68-1.29-5.23 3.77-6 4.55q-3.18 3-6.39 6.06c-4.28 4-8.62 8-13.07 11.79a199.78 199.78 0 0 1-28.74 21c-20.15 11.88-44.65 19.36-68.07 14.48-12.08-2.51-23-8.27-33.49-14.53-9.95-5.92-19.82-12-29.52-18.34a248.48 248.48 0 0 1-28-20.65c-8.46-7.39-17.23-15.71-22.36-25.86-2.57-5.08-3.9-10.67-2.69-16.32.89-4.17 2.19-8.5-.84-12.16-1.24-1.5-2.91-1.88-4.37-3-2.2-1.64-2.3-3.7-2-6.3.68-5.29 3-10.65 5.67-15.23a50.33 50.33 0 0 1 9.33-11.77c1.24-1.15 4.86-5.1 6.92-4.81-1.6-.23-.26.31.08 1.09a12.88 12.88 0 0 0 2 2.85c6.17 7.37 14.45 2 22.05 1.78 4.2-.13 8.2 3.35 11.38 5.75 4.84 3.64 9.36 7.7 14 11.56 8.38 6.93 17.32 12.21 26.85 17.41A287.23 287.23 0 0 0 653.45 314c3.58 1.41 10.36 5.2 14.27 4.2 2.09-.54 4.2-2.77 5.92-4.09q3.48-2.65 6.89-5.42c35.52-28.75 65.45-67.27 109.83-83 2.53-.9 1.53-4.79-1.12-4.07ZM750.78 414.67l-32 110.33c-5.59 19.28-11.2 38.62-14.47 58.43-8 48.31-1.93 97.71 4.15 146.3 2.64 21.1 5.3 42.29 11.24 62.7 1.23 4.21 2.68 8.53 5.69 11.7 1.63 1.71 3.66 3 5 5 1.8 2.53 2.21 5.76 3.39 8.63 2.75 6.69 9.58 11 16.63 12.59s26.1.91 33.29.22c8-.77 17.95-3.33 19.15-11.25.73-4.89-2.53-10.07-.67-14.66 1.59-3.9 6.13-5.53 9.25-8.36 5.29-4.81 6.13-12.7 6.59-19.83 3.18-49-6.4-98.06-5.35-147.14.14-6.41.31-13 3.06-18.83 1.62-3.39 4-6.31 6.17-9.42 7.73-11.32 11.28-24.9 14.69-38.18 12.64-49.18 25.23-101.51 9.82-149.89"
          fill="#272836" class="fill-1a1c3f"></path>
    <path d="M749 414.18c-10.13 32.47-19.92 65-29.69 97.62-9.61 32.07-19.15 63.9-21.56 97.48-2.39 33.17.59 66.4 4.57 99.32 1.94 16 3.85 32.13 6.33 48.11 1.24 8 2.68 16 4.51 23.94 1.63 7 3.12 14.77 6.56 21.19a25.06 25.06 0 0 0 5.4 6.6c3.23 3 3.89 6.23 5.46 10.18a23.68 23.68 0 0 0 10.7 11.75c9.33 5.2 20.79 4.48 31.11 4.17 9.31-.28 20.77-.13 28.51-6.1a13.65 13.65 0 0 0 5.32-12.56c-.27-3.1-1.9-6.56-.83-9.6 1.19-3.39 5.3-4.92 7.92-7.17 9.69-8.32 8.46-24.72 8.7-36.21.36-16.79-.53-33.58-1.71-50.32s-2.69-33.54-3.57-50.35c-.43-8.39-.71-16.78-.71-25.18 0-7.72-.61-16.34 2.21-23.66 2.6-6.74 8.11-12.22 11.32-18.74a118.36 118.36 0 0 0 7.45-20.08c4.36-15.28 8.1-30.81 11.5-46.33 6.66-30.39 11.07-61.85 6.5-92.87a154.55 154.55 0 0 0-5.34-23.28c-1.27-4.09-7.72-2.34-6.44 1.78 9.24 29.7 8.14 61 3 91.36-2.63 15.45-6.22 30.71-10 45.9-3.45 13.72-6.34 28.16-12.8 40.87-3 5.9-7.62 10.82-10.5 16.76-3.09 6.39-3.38 13.57-3.53 20.54-.34 15.51.39 31 1.44 46.49 2.13 31.57 5.66 63.16 4.24 94.84-.28 6.33-.08 13.73-3.08 19.5-2.91 5.59-9.92 7-12.6 12.8-2.4 5.16.57 9.7.32 14.89-.31 6.34-8 8.16-13.1 9-9.81 1.61-20.49 1.56-30.37.87a26 26 0 0 1-13.35-4.23 16.48 16.48 0 0 1-6.3-8.07c-1.1-3-1.72-6-3.71-8.64s-4.72-4.18-6.49-6.86c-2-3-2.9-6.69-3.86-10.13-2.11-7.52-3.77-15.16-5.17-22.84-2.81-15.49-4.58-31.15-6.47-46.77-3.8-31.34-7.28-62.9-6.65-94.52a288 288 0 0 1 5.71-52.7c3.68-17.79 8.8-35.27 13.71-52.75 9.8-35 19.6-69.93 29-105a1.85 1.85 0 0 0-3.57-1Z"
          fill="#272836" class="fill-1a1c3f"></path>
    <path d="M848.91 428.38a370.28 370.28 0 0 0-11.06 178.35c2.83 15.3 6.63 30.41 10.42 45.5l36 143.21c1.48 5.9 3.46 12.46 8.81 15.34 2.42 1.31 5.38 1.74 7.31 3.71 2.7 2.75 2.23 7.25 3.64 10.84 2.88 7.34 12.36 9.07 20.24 9.17a176.43 176.43 0 0 0 29.4-2.11c4.63-.72 10.15-2.47 11.15-7 .54-2.51-.53-5.08-.55-7.64 0-5.83 5.07-10.2 7.78-15.36 3-5.76 3-12.57 2.93-19.07l-.84-67.08c-.15-12.73-.31-25.48-1.74-38.13-4.91-43.5-24.71-85.82-19.35-129.26 1.22-9.87 3.73-19.53 5.17-29.37 5.7-39-5.77-78.83-24-113.74"
          fill="#272836" class="fill-1a1c3f"></path>
    <path d="M847.09 427.88a364.74 364.74 0 0 0-11.56 183.51C841.86 644 851 676.08 859 708.25l12.36 49.36 6.06 24.2c1.78 7.08 3.07 14.54 5.73 21.37 2 5.15 5.12 9.2 10.28 11.41 4 1.72 5.41 3 6.3 7.35a19.42 19.42 0 0 0 2.85 7.67c6.87 9.76 22.16 8.57 32.5 8 7.44-.4 15.45-.8 22.66-2.82 4.42-1.24 9-3.82 10.1-8.62.69-2.93-.55-5.58-.49-8.47.08-3.63 2.56-6.61 4.54-9.44a32.48 32.48 0 0 0 6-16.8c1.25-16-.16-32.58-.36-48.64-.2-16.5-.08-33.05-.89-49.54-1.51-31-10.78-60.32-16.95-90.52-3.08-15.07-5.14-30.42-4.3-45.83.87-15.66 5.63-30.75 6.9-46.37 2.4-29.64-4.57-59.38-16.06-86.57-2.85-6.75-6-13.36-9.38-19.87-1.84-3.56-7.23-.41-5.38 3.15 13.53 25.94 23.4 54.34 24.93 83.73.78 15-1.33 29.38-4.17 44.1a150.87 150.87 0 0 0-2.54 42.51c2.53 28.3 11.63 55.39 16.94 83.19 5.83 30.5 4.52 62 4.9 92.86l.27 21.71c.09 7.28 1 15.37-1.21 22.41-1.79 5.59-6.49 9.48-8.48 15a15.51 15.51 0 0 0-.72 7.31c.49 4.42 0 6.9-4.69 8.39-7 2.24-15.29 2.29-22.6 2.57-6.4.25-13.47.75-19.67-1.22-2.81-.89-5.51-2.3-7-5-1.23-2.29-1.15-5.07-1.88-7.52a11.7 11.7 0 0 0-3.88-6c-2.55-2-6-2.32-8.51-4.41-4.4-3.71-5.37-10.9-6.7-16.16l-6.35-25.15L868.92 721c-7.76-30.75-15.9-61.44-23.16-92.31-15.58-66.17-14.46-134.54 5-199.84.69-2.34-2.88-3.29-3.64-1Z"
          fill="#272836" class="fill-1a1c3f"></path>
    <path d="M771.66 238.18c-20.77 7.5-34.4 26.95-39.5 47.14s-3 41.27-.58 61.89c1.62 13.79 3.36 27.64 3.1 41.53-.24 12.5-6.91 28-2.21 40 2.72 6.92 9.08 12.18 16.22 15.35 24.59 10.9 52.07 10.54 78.67 10.55 30.45 0 61.92.1 91.91-5.35 13-2.36 26.74-7 32.16-19.16 6.26-14.12.81-30.64-2.38-44.83-6-26.6-1.54-53.95-5.53-80.73-5-33.63-33.28-88.14-78.42-80.57"
          fill="#b0445a" class="fill-3fc091"></path>
    <path d="M730.41 284.84c-7.18 24.56-3.27 49.67-.71 74.61 1.23 12 2.71 24.65.79 36.65-1.6 10-4.82 20.57-2.32 30.74 5.21 21.25 33.63 27 51.94 29.46 23.73 3.26 48.27 2.48 72.17 2.13 24.38-.35 49.71-1.09 73.52-6.88 8.56-2.09 17.42-5.55 23.54-12.14 6.84-7.36 8.86-17.66 8.22-27.43-.73-11.35-4.56-22.13-6.51-33.27-2.29-13-2.21-26.34-2.32-39.52-.16-19.68-1.06-39-7.84-57.64-11.61-31.91-37.89-66.3-75.79-61.55-5.68.71-4.66 8.87 1 7.81 31.43-5.84 54.17 22.45 65.47 48.1 6.47 14.68 9.48 29.93 10.24 45.92 1.09 23.28-.22 46.25 5.15 69.14 2.41 10.28 5.39 21.22 3.18 31.81-2 9.82-9 16-18.08 19.46-9.45 3.55-19.89 4.76-29.85 5.88-11.48 1.29-23 1.95-34.56 2.27-22.88.64-46 1.07-68.88.08a162.84 162.84 0 0 1-32.38-4.21c-9.69-2.41-21-5.68-27.62-13.72-7.67-9.34-3.7-22.36-1.91-33 2-11.74 1.12-23.56-.1-35.34-2.7-26-7.9-52.35-2.9-78.36.43-2.27-2.83-3.23-3.5-1Z"
          fill="#272836" class="fill-1a1c3f"></path>
    <path d="M756.13 95.65c-2.16 17.84-2.73 48.6-2.12 66.42.34 10.29 0 20.75 2.56 30.72s10.1 12.92 19.39 17c6.26 2.74 14.53 3.51 17.31 9.85 1.87 4.24.32 9.51 2.47 13.62 2.71 5.2 9.66 5.87 15.43 5.56 17.79-1 23.4-.47 39.88-7.36 12.46-5.2 3.48-12.94 1.15-21.93-4.56-17.58-7.61-50.34-5-67.39 6-38.9 2.12-75.18-44.63-74.85-9.67.07-19.57 1-28.33 5.21s-16.29 12-18.06 21.75"
          fill="#96e1ff" class="fill-acfddf"></path>
    <path d="M852.2 209.5c-4.56-17.58-7.61-50.34-5-67.39 4.72-30.77 3.29-59.9-20.65-70.57a73.81 73.81 0 0 0-11.85-.81c-9.67.07-19.57 1-28.34 5.21s-16.29 12-18.05 21.74l-.06 1.44c-2.16 17.83-2.72 48.6-2.12 66.41.35 10.3 0 20.75 2.57 30.73s10.1 12.91 19.38 17c6.26 2.73 14.54 3.5 17.32 9.84 1.86 4.25.32 9.52 2.46 13.62a8.61 8.61 0 0 0 1.62 2.16c.57 0 1.14 0 1.69-.06 17.79-1 23.4-.47 39.88-7.36 12.46-5.23 3.48-12.97 1.15-21.96Z"
          fill="#b0445a" class="fill-3fc091"></path>
    <path d="M754.49 95.2a420.14 420.14 0 0 0-3.63 52.56c-.09 9.62 0 19.28.44 28.88.42 8.42.84 18.54 6.37 25.4 4.81 6 12.86 9.16 19.87 11.72 3.7 1.35 8.57 2.1 11.39 5.06 3.44 3.61 1.74 9.41 3.14 13.85 2.43 7.67 10.73 9.5 17.85 9.38 8.23-.14 16.79-.47 24.89-2a72.65 72.65 0 0 0 10.84-3c4.09-1.46 9.13-2.9 12.27-6.08 4.73-4.81 2.31-10.78-.11-16.06-3.25-7.1-4.5-14.8-5.65-22.47a244.23 244.23 0 0 1-2.58-27.93c-1-26.85 11-59.2-6.39-83.17-9.44-13-25.26-16.89-40.62-16.61-19.73.35-43.48 6.89-48.13 29.06-.48 2.27 3 3.25 3.49 1 4.44-20.57 27.46-25.14 45.4-24.84 12.68.21 26.39 3.41 34.39 14.07 15.59 20.78 5.48 49.39 5.31 72.74a234.15 234.15 0 0 0 4.34 46.13c1.22 6.3 3.39 11.57 5.78 17.46 1.33 3.26 1.69 5.35-1.67 7.36-3.8 2.28-8.67 3.68-12.93 4.9-6.76 1.93-13.66 2.37-20.65 2.72-3.89.2-7.94.73-11.83.29-5.7-.63-8.08-3.37-8.48-9.06-.52-7.25-2.59-12.45-9.48-15.61-6.68-3.07-13.84-4.64-20.25-8.42-9.22-5.43-9.8-16-10.31-25.8-.47-9.13-.7-18.31-.83-27.45-.26-17.82-.65-35.78 1.11-53.54.18-1.88-3.08-2.35-3.34-.45Z"
          fill="#272836" class="fill-1a1c3f"></path>
    <path d="M774.48 241.53c4.09-3.93-.19-10.81.81-16.39.53-3 2.6-5.45 5-7.28 9.16-7 21.89-5.6 33.4-6.24 10.25-.58 20.3-3 30.27-5.48 2.66-.66 5.74-1.7 6.5-4.33.54-1.87-.36-3.82-.68-5.74s.47-4.45 2.41-4.59a4.33 4.33 0 0 1 1.89.44l7.24 2.9a9.18 9.18 0 0 1 3.4 2 8.62 8.62 0 0 1 1.77 4c1.12 4.79 1.75 9.81 4.19 14.08 1.34 2.36 3.22 4.44 4.16 7 1.87 5.06-.48 11-4.45 14.61s-9.26 5.51-14.47 6.91c-23.92 6.4-49.12 5.28-73.84 4-2.72-.14-6.46-1.68-5.54-4.25"
          fill="#272836" class="fill-1a1c3f"></path>
    <path d="M775.71 242.76c4.46-4.75 1.3-10.27 2.11-15.93 1.32-9.32 13.89-11.35 21.46-11.79s15.24-.21 22.86-1.29c8.29-1.17 17.69-2.51 25.49-5.67a9.13 9.13 0 0 0 5.16-4.26 7.78 7.78 0 0 0 .8-3.43c0-1.2-1.4-4.68-.29-5.61.41-.35 5.74 2.21 6.58 2.65 2.62 1.39 3.41 3 4 5.8.84 3.89 1.49 7.78 3.14 11.44 1.55 3.45 5 6.55 5.22 10.46.29 5-3.27 9.06-7.34 11.49-7 4.19-16.33 5.57-24.31 6.78a201.44 201.44 0 0 1-31.53 1.91c-2.79 0-29.76-.25-29.52-2.19.46-3.83-5.54-3.79-6 0-1.12 9.07 14.59 7.6 19.69 7.83a311.78 311.78 0 0 0 33.49.07c11.11-.68 22.51-2.13 33.16-5.51 7.91-2.51 15.85-7.12 18.19-15.66a15.13 15.13 0 0 0-1.15-11c-1.12-2.18-2.75-4.06-3.87-6.24a39 39 0 0 1-2.89-9.35c-.82-3.61-1.43-7.33-4.63-9.61a25.42 25.42 0 0 0-5.23-2.37c-2.19-.88-4.78-2.45-7.15-2.61a5.64 5.64 0 0 0-6.08 4.26 10.22 10.22 0 0 0 0 4.7c.61 3.78.24 4.41-3.33 5.54a131.09 131.09 0 0 1-34.82 5.68c-10.24.31-21.49.13-30.08 6.59-3.16 2.38-5.9 5.69-6.28 9.75-.45 4.92 3.59 11.24.41 15.52-1.18 1.59 1.4 3.52 2.73 2.1ZM765.42 141.57a1.08 1.08 0 0 1-.57.44h.14a1 1 0 0 1-1-.24.75.75 0 0 1-.2-.53c0 .48.09-.34 0 .12s.09-.11 0 0-.13.26-.2.38-.16.29-.25.43a2.26 2.26 0 1 0 4.13 1.74 4.56 4.56 0 0 0-.07-4.25 3 3 0 0 0-2.93-1.41 2.56 2.56 0 0 0-2.26 2 1.74 1.74 0 0 0 3.17 1.34ZM795.58 141.57a1.08 1.08 0 0 1-.57.44h.14a1 1 0 0 1-1-.24.76.76 0 0 1-.21-.53c0 .48.09-.34 0 .12s.1-.11 0 0-.13.26-.2.38-.16.29-.25.43a2.26 2.26 0 1 0 4.13 1.74 4.53 4.53 0 0 0-.08-4.25 3 3 0 0 0-2.92-1.41 2.56 2.56 0 0 0-2.26 2 1.74 1.74 0 0 0 3.17 1.34ZM774.79 141.07c-.06 2.34.23 5-.17 7.28-.52 3-2.83 3.2-4.24 5.41-2 3.14-.69 6.81 2.14 8.78 2.13 1.47 4.56-1.36 3.4-3.4-1.94-3.43 2.36-4.47 3-7.6s-.46-7.25-.8-10.47c-.23-2.08-3.28-2.19-3.33 0ZM761.12 130.38c2.39-2.77 5.89-1.19 8.84-2.44 2.19-.93 1.45-3.76 0-4.87-2.19-1.67-6.06-.66-8.29.56a6.44 6.44 0 0 0-3.51 5.52 1.75 1.75 0 0 0 3 1.23ZM800.12 119.17c-2.09-4.33-9.91-6.33-13.79-3.51a4 4 0 0 0-1.39 5.28 5.66 5.66 0 0 0 .61.78 3.8 3.8 0 0 0 3.75 1 14.87 14.87 0 0 1 4.49-.64 22.83 22.83 0 0 0 5.23-.19 1.88 1.88 0 0 0 1.1-2.72Z"
          fill="#272836" class="fill-1a1c3f"></path>
    <path d="M755.15 162.63a15.7 15.7 0 0 1 13.85-3.24c3.12.8 6.07 2.59 9.29 2.44s5.79-2 8.77-2.84c8.3-2.26 17.53 4 25.44.67 4-1.7 6.65-5.58 7.94-9.7s1.36-8.49 1.42-12.8l.18-12.59a8.87 8.87 0 0 0-.45-3.63 9.78 9.78 0 0 0-2.82-3.23c-2.22-1.93-4.34-4.15-5.26-6.94s-.33-6.27 2.06-8a10.07 10.07 0 0 0 2.53-1.77 8.91 8.91 0 0 0 1-2.86c1-3 4.25-4.9 7.44-5s6.26 1.17 9 2.74a44.77 44.77 0 0 1 16.34 16 10.36 10.36 0 0 1 1.65 4.2 11.79 11.79 0 0 1-1.22 5.42l-4.65 11.66c-1.39-2.69-3.29-5.74-6.31-5.93-2.54-.16-4.77 2-5.62 4.36s-.63 5-.44 7.56c1 12.86 1 26.12-3.46 38.22a7.61 7.61 0 0 0-.71 3.32 10.16 10.16 0 0 0 1.26 3.17 11.69 11.69 0 0 1-5.18 14.85 13.22 13.22 0 0 1-5.6 15.29 8.36 8.36 0 0 0-2.74 2 8.69 8.69 0 0 0-1 3.06c-1.23 4.82-5.5 8.39-10.16 10.12s-9.7 1.82-14.7 2l-11.27.38c-7.63.25-15.5.46-22.59-2.34s-13.25-9.46-13-17.08c-3.72-1-6-5.11-6-9s2-7.49 4.35-10.53c-1.85-1.88-2.22-4.82-1.7-7.4a35.24 35.24 0 0 1 2.87-7.35c5.78-12.88 6.08-27.46 6.27-41.58.05-3.71.07-7.57-1.49-10.94-1.27-2.73-3.53-5-4.42-7.85-1.73-5.54 2-11.16 5.54-15.76a2.44 2.44 0 0 1 1-.91c1.5-.53 2.27 1.78 2.17 3.37l-1.54 24.53"
          fill="#ffffff" class="fill-ffffff"></path>
    <path d="M852.34 121.47a11.79 11.79 0 0 0 1.22-5.42 10.36 10.36 0 0 0-1.65-4.2 44.77 44.77 0 0 0-16.34-16c-.66-.37-1.34-.73-2-1a7.6 7.6 0 0 0-5.67 4.78 9 9 0 0 1-1 2.86 10.3 10.3 0 0 1-2.49 1.8c-2.39 1.71-3 5.18-2.06 8s3 5 5.26 7a9.75 9.75 0 0 1 2.82 3.22 8.91 8.91 0 0 1 .45 3.64l-.18 12.58c-.06 4.31-.14 8.69-1.42 12.81s-4 8-7.94 9.69c-4.79 2.05-10.07.54-15.33-.46a35.75 35.75 0 0 1-4.85-.67 16.61 16.61 0 0 0-5.26.46c-3 .81-5.68 2.7-8.77 2.84-2.42.11-4.69-.87-7-1.71a8.8 8.8 0 0 1-1.78.27 15.52 15.52 0 0 1-6-1.36 15.76 15.76 0 0 0-8.36 3.6l-.28-5a16 16 0 0 0-4.1 1 67.71 67.71 0 0 1-5.11 19.31 35.46 35.46 0 0 0-2.87 7.35c-.52 2.58-.15 5.52 1.7 7.4-2.39 3-4.32 6.66-4.35 10.53s2.28 7.93 6 9c-.26 7.62 5.9 14.28 13 17.08.86.34 1.73.63 2.61.89 3.71.24 7.48.13 11.2 0l11.27-.38c5-.16 10-.34 14.69-2.07s8.93-5.3 10.16-10.12a8.69 8.69 0 0 1 1-3.06 8.36 8.36 0 0 1 2.74-2 13.22 13.22 0 0 0 5.6-15.29 11.69 11.69 0 0 0 5.18-14.85 10.16 10.16 0 0 1-1.26-3.17 7.61 7.61 0 0 1 .71-3.32c4.45-12.1 4.42-25.36 3.46-38.22-.19-2.54-.4-5.16.44-7.56s3.08-4.52 5.62-4.36c2 .13 3.53 1.53 4.72 3.24a5.49 5.49 0 0 1 3.37-1.78q1.42-3.76 2.85-7.35Z"
          fill="#96e1ff" class="fill-acfddf"></path>
    <path d="M756.24 164.49a14.6 14.6 0 0 1 13.62-2c3.37 1.11 6.33 2.51 10 2s6.58-2.72 10.21-3c3.84-.31 7.65 1 11.4 1.6 6.63 1.14 12.92.49 17.56-4.82 4.88-5.58 5.5-13.06 5.64-20.15.09-4.49.31-9 .2-13.52-.06-2.57-.33-4.72-2-6.81-2.35-2.93-7-5.14-6.93-9.49 0-3.16 2.52-3.33 4.16-5.29.92-1.1 1-2.46 1.7-3.62 5.22-8.75 17.92 2.36 22.41 7.29 2.95 3.25 6.78 7.54 5.73 12.2s-3.57 9.14-5.24 13.45l5.7-.74c-2.82-5.13-8.12-10-14-5.73-6.1 4.46-4 13.37-3.74 19.75.38 9.87-.19 19.73-3.23 29.19-.61 1.9-1.57 3.83-1.44 5.89s1.24 3.35 1.81 5.16a8.65 8.65 0 0 1-4.2 10.1 3.26 3.26 0 0 0-1.47 3.6A10.27 10.27 0 0 1 820 211.1c-2.44 1.73-3.81 2.44-4.94 5.41-1.71 4.53-3.44 7.44-8.23 9.33-3.83 1.52-8.07 1.65-12.13 1.79-9.11.31-18.76 1.24-27.79-.21-7.9-1.26-17.57-6.1-17.76-15.28a3.09 3.09 0 0 0-2.17-2.86c-6.87-2.61-2.92-11.15.05-15.18.82-1.11.29-2.57-.45-3.51-3-3.78 1.13-10.74 2.42-14.51a75.42 75.42 0 0 0 3.45-13.57 179.81 179.81 0 0 0 1.54-28.6 24.09 24.09 0 0 0-2-10.3c-.92-1.94-2.31-3.65-3.1-5.66-1.35-3.44-.52-6.45 1.18-9.57.45-.85 2.8-3.86 2.37-4.16.63.43-.19 6.63-.22 7.55-.22 5.66-.35 11.32-.62 17-.11 2.16 3.16 2.12 3.32 0 .58-7.55 1.42-15.08 2-22.64.23-2.84.34-7.32-3.51-7.75-4.33-.47-7.75 7.3-9 10.42a13.56 13.56 0 0 0 1.26 13.2c2 3.08 3.82 5.61 4.17 9.47a97.4 97.4 0 0 1 0 10.11 119.7 119.7 0 0 1-2 21.45 59.82 59.82 0 0 1-2.5 9.29c-1.18 3.2-3.17 5.94-4.37 9.11-1.8 4.71-1.66 9.19 1.48 13.21l-.45-3.5c-5.74 7.68-7.31 19.69 3.36 23.81l-2.17-2.85c.4 27 34.94 23.52 53.13 22.4 9.27-.58 20-3.11 24-12.58.61-1.43.93-3.43 2-4.56a19.75 19.75 0 0 1 2.45-1.58 16.29 16.29 0 0 0 4.32-5 16.84 16.84 0 0 0 1.22-13l-1.46 3.6a15.07 15.07 0 0 0 7.59-11.58c.25-2.5-.37-4.5-1-6.86-1.22-4.71.73-8.18 1.7-12.75a92.86 92.86 0 0 0 1.69-21.89c-.1-3.59-.48-7.17-.63-10.76-.06-1.47-.4-4.45.67-5.7 3.21-3.74 5.07.81 6.12 2.82 1.38 2.63 4.77 1.53 5.71-.75 2.39-5.81 7.58-13.72 5.61-20.22-1.76-5.79-7.14-11.42-11.63-15.21-8.41-7.1-21.75-13.48-28.33-1.15-1.5 2.8-4.29 4.29-5.38 7.32a10.86 10.86 0 0 0-.1 6.81 16.66 16.66 0 0 0 4.35 6.65c1.28 1.3 2.58 2.16 3.39 3.83 1.07 2.18.66 4.67.63 7.08-.12 7.75 1.25 17.7-3.53 24.35-5.13 7.13-14 3.22-21.1 2.38a21 21 0 0 0-10.48 1.25c-1.65.64-3.28 1.65-5 1.92-2.45.39-4.75-.66-7-1.39a18.36 18.36 0 0 0-18.45 3.63c-1.83 1.58.58 4.76 2.6 3.38Z"
          fill="#272836" class="fill-1a1c3f"></path>
    <path d="m840 137.73-.19 1.35a1.86 1.86 0 0 0 .17 1.31 1.72 1.72 0 0 0 1 .78 1.74 1.74 0 0 0 1.32-.17 1.64 1.64 0 0 0 .78-1l.19-1.34a1.85 1.85 0 0 0-.17-1.31 1.69 1.69 0 0 0-2.33-.61 1.64 1.64 0 0 0-.78 1Z"
          fill="#272836" class="fill-1a1c3f"></path>
    <path d="M717.88 177.3h.3a1.27 1.27 0 0 0 .82-.3.8.8 0 0 0 .23-.37.82.82 0 0 0 .1-.44v-.31a1.1 1.1 0 0 0-.29-.5 1.21 1.21 0 0 0-.82-.34h-.3a1 1 0 0 0-.44.1.91.91 0 0 0-.37.24.85.85 0 0 0-.24.37.92.92 0 0 0-.1.44v.3a1.19 1.19 0 0 0 .3.51 1.17 1.17 0 0 0 .81.34Z"
          fill="#ffffff" class="fill-ffffff"></path>
    <path d="M767.09 146.24a38.65 38.65 0 0 0-9.37.1 7.44 7.44 0 0 0-3.65 1.22 3.47 3.47 0 0 0-.64 4.37c1.15 2.3 4 4 7.06 4.38a22.87 22.87 0 0 0 5.41-.29 11.38 11.38 0 0 0 2.12-.43 5.49 5.49 0 0 0 3-2.57 12.24 12.24 0 0 0 1.08-3.45 3.05 3.05 0 0 0 0-1.77 1.67 1.67 0 0 0-1.65-1"
          fill="#b0445a" class="fill-3fc091"></path>
    <path d="M767.31 145.42c-4-.57-12-2-14.86 1.93-2.62 3.55 1.06 7.76 4.23 9.25 3.9 1.82 11.18 1.8 14.31-1.57 2.28-2.46 3.88-8.11-.24-9.34-1.43-.43-2 1.9-.61 2.21 1.82.39.12 4.06-.17 4.52-1 1.65-2.58 2.05-4.37 2.35-2.88.48-6.15.57-8.7-1.06-1.79-1.15-2.93-2.4-1.66-4.38.94-1.46 1.27-1.5 2.81-1.78a41.46 41.46 0 0 1 9-.46c.93 0 1.18-1.53.22-1.67Z"
          fill="#272836" class="fill-1a1c3f"></path>
    <path d="M758.87 153.85c1.7-1.63 3.56-3 5.37-4.49.81-.66-.25-2-1.12-1.45a35.07 35.07 0 0 0-5.4 4.79.81.81 0 0 0 1.15 1.15ZM763.07 154.19a12.38 12.38 0 0 1 1.22-1.18 9 9 0 0 0 1.37-1.07 1 1 0 0 0 .14-1.08.91.91 0 0 0-1-.41 4.85 4.85 0 0 0-1.62 1.2 12.66 12.66 0 0 0-1.25 1.39.84.84 0 0 0 0 1.15.83.83 0 0 0 1.15 0Z"
          fill="#ffffff" class="fill-ffffff"></path>
    <path d="M798.59 146.24a38.65 38.65 0 0 0-9.37.1 7.44 7.44 0 0 0-3.65 1.22 3.47 3.47 0 0 0-.64 4.37c1.15 2.3 4 4 7.05 4.38a22.92 22.92 0 0 0 5.42-.29 11.38 11.38 0 0 0 2.12-.43 5.47 5.47 0 0 0 3-2.57 12 12 0 0 0 1.09-3.45 3.05 3.05 0 0 0 0-1.77 1.67 1.67 0 0 0-1.65-1"
          fill="#b0445a" class="fill-3fc091"></path>
    <path d="M798.81 145.42c-4-.57-12-2-14.86 1.93-2.62 3.55 1.06 7.76 4.23 9.25 3.9 1.82 11.18 1.8 14.31-1.57 2.28-2.46 3.88-8.11-.25-9.34-1.42-.43-2 1.9-.61 2.21 1.83.39.13 4.06-.16 4.52-1 1.65-2.58 2.05-4.37 2.35-2.88.48-6.15.57-8.7-1.06-1.8-1.15-2.93-2.4-1.66-4.38.94-1.46 1.27-1.5 2.81-1.78a41.43 41.43 0 0 1 9-.46c.93 0 1.18-1.53.22-1.67Z"
          fill="#272836" class="fill-1a1c3f"></path>
    <path d="M790.37 153.85c1.7-1.63 3.55-3 5.37-4.49.81-.66-.25-2-1.12-1.45a34.61 34.61 0 0 0-5.4 4.79.81.81 0 0 0 1.15 1.15ZM794.57 154.19a12.38 12.38 0 0 1 1.22-1.18 9 9 0 0 0 1.37-1.07.94.94 0 0 0 .13-1.08.89.89 0 0 0-1-.41 4.76 4.76 0 0 0-1.62 1.2 12.66 12.66 0 0 0-1.25 1.39.84.84 0 0 0 0 1.15.83.83 0 0 0 1.15 0Z"
          fill="#ffffff" class="fill-ffffff"></path>
    <path d="M772.73 151.94c3.46-2.86 7.57-1.71 11.07.39 2 1.16 3.41-1.66 1.73-3a10.16 10.16 0 0 0-14 1.33.87.87 0 0 0 1.23 1.23ZM806.14 147.15c-1.56-.21-3 .1-3.57 1.88a1.49 1.49 0 0 0 .67 1.64 2.6 2.6 0 0 0 2.58.09c2.52-.79 5.31-3.07 7.71-4.34a161.16 161.16 0 0 1 20.76-9.7c2.6-.94.92-4.82-1.45-3.46-5.09 2.91-10.32 5.42-15.6 7.94-2.35 1.12-4.69 2.24-7 3.4-1.26.64-3.43 1.22-4.31 2.26a3.77 3.77 0 0 0-1 .59c-.73.48-.17.9 1.66 1.25a.84.84 0 0 0-.42-1.55ZM750.62 137.87c-.29 1.49-.63 3-1 4.46s-1.18 2.92-1.44 4.37c-.49 2.65 1.81 3.5 4 3.83 2.64.4 3.86-3.42 1.14-4.11l-.73-.18c-3.28-.83-3.8 4.6-.6 4.41h.76v-4.26a6.11 6.11 0 0 1-1.48-.09c.53 0 .72-.33.59-.91a10.34 10.34 0 0 0 .27-1.91 34.11 34.11 0 0 0 .2-5.35c0-.91-1.47-1.2-1.67-.22ZM773.4 175.79a37.14 37.14 0 0 0 13.8-1.17c2.14-.6 4.75-1.28 6.33.29a5 5 0 0 1 1.09 2 13.41 13.41 0 0 1-.51 10.72c-1.77 3.23-5.57 5.43-9.19 4.73a8.93 8.93 0 0 1-6.09-5 13.39 13.39 0 0 1-.93-8"
          fill="#272836" class="fill-1a1c3f"></path>
    <path d="M773 177.4a32.8 32.8 0 0 0 10.32.44c3.74-.48 8.57-3.19 9.3 2.1.55 4-1.42 9.87-6.45 9.59s-5.78-6.26-5.3-10.11-5.39-3.69-5.85 0c-.76 6.05 1.36 12.6 7.35 15.13 5.61 2.37 12-.8 14.54-6.13 2.1-4.46 2.28-13-2.46-16.06-2.25-1.43-4.9-.94-7.32-.29a56.12 56.12 0 0 1-13.69 2.06c-1.8 0-2.35 2.92-.44 3.27Z"
          fill="#272836" class="fill-1a1c3f"></path>
    <path d="M786.13 187.92a5.56 5.56 0 0 1 1.94-1.73c.94-.52 2-.54 2.8-1.27a1.83 1.83 0 0 0-.8-3c-1.36-.45-3 .47-4.11 1.26a9.63 9.63 0 0 0-2.77 3c-1.09 1.93 1.71 3.5 2.94 1.72Z"
          fill="#b0445a" class="fill-3fc091"></path>
    <path d="M847.73 176.69c3.86-5.86 10.81-8.83 17.58-10.67s13.86-2.91 20-6.32c3.64-2 6.8-4.83 10.35-7 2.8-1.72 6.25-3.07 9.3-1.84 2 .8 3.4 2.56 4.63 4.32a59.46 59.46 0 0 1 10.16 26 14.86 14.86 0 0 1 .08 4.61 12.62 12.62 0 0 1-3.08 5.81c-5.79 6.72-14.75 9.64-23.34 11.82s-17.61 4.06-24.64 9.47c-1.42 1.09-2.81 2.35-4.54 2.8-2.78.73-5.75-.9-7.46-3.21s-2.43-5.19-3.12-8l-6.1-24.82"
          fill="#272836" class="fill-1a1c3f"></path>
    <path d="M849 178c9.58-12.32 28.4-9.47 40.8-17.6 3.25-2.14 7.12-6.24 11.19-6.76 5.1-.66 8.18 6.56 10 10.26 3.13 6.26 8.2 17.89 4.09 24.39-8 12.62-28.09 12.23-40.49 17.63a51.16 51.16 0 0 0-8.13 4.76c-3 2-5.5 2.77-7.77-1a18.06 18.06 0 0 1-1.7-4.6c-2.43-8.66-4.4-17.47-6.63-26.18-.95-3.75-6.68-2.17-5.79 1.59 2.13 9 4 18.08 6.47 27 1.54 5.56 5.16 11.64 11.71 11.62 2.79 0 5-1.49 7.11-3.1a42.52 42.52 0 0 1 13-6.58c7.48-2.4 15.31-3.58 22.62-6.53 6.18-2.49 12.62-6.32 16-12.32 3.45-6.17 1-14.46-1-20.71-2.22-6.73-5.56-14.38-10.68-19.42-5.75-5.67-13-2.36-18.62 1.62-4.22 3-8.09 5.88-13 7.65-4.42 1.6-9 2.42-13.53 3.79-7.3 2.24-14.16 5.79-18.48 12.28-1.14 1.72 1.61 3.91 2.91 2.24Z"
          fill="#272836" class="fill-1a1c3f"></path>
    <path d="M762.13 196.75c-1.11 3.55-2.11 7.74.32 11s6.69 3.59 10.38 3.1l-2-3.46c-5.31 9.84 8.69 17.66 14.39 8l-4.52-.59c1.49 4.48 6.64 9.73 10.48 4.21 1.29-1.86-1.22-4.16-3-3l-2.67-2.48a2.51 2.51 0 0 0-4.52-.59c-2.48 4.15-8.24 1.34-6.16-3.2a2.33 2.33 0 0 0-2.59-3.37c-2.7.54-6.27.9-7.48-2.72-.61-1.82.17-4.23.6-6a1.67 1.67 0 0 0-3.21-.89ZM763.41 192.27h.59a1.79 1.79 0 0 0 1.23-.51 1.23 1.23 0 0 0 .36-.56 1.26 1.26 0 0 0 .15-.66 1.76 1.76 0 0 0-.51-1.23 1.78 1.78 0 0 0-1.23-.51h-.58a1.79 1.79 0 0 0-1.23.51 1.23 1.23 0 0 0-.36.56 1.27 1.27 0 0 0-.15.67 1.75 1.75 0 0 0 .51 1.22 1.78 1.78 0 0 0 1.23.51Z"
          fill="#ffffff" class="fill-ffffff"></path>
    <path d="M817.32 508.74c3.17 5.41 3.2 11.67 3.77 17.76s1.27 12.45 2.2 18.64 2.07 12.58 3.32 18.83c1.2 6 2 12.61 4.63 18.15 1 2.06 4.39 1.06 4.28-1.15-.32-6.46-2.72-13-4.08-19.32-1.4-6.54-2.6-13.11-3.73-19.7-1.19-6.92-2.22-13.84-3.15-20.8-.68-5-1.59-9.78-4.36-14.09-1.16-1.79-4-.18-2.88 1.68Z"
          fill="#81c4e6" class="fill-22906c"></path>
    <path d="M517.21 233.44c-7-.34-21.39 0-22.68 9.39-1.43 10.44 11.34 11.17 18.3 10l-3-5.12c-6.1 4.73-8.49 12.78-6.78 20.25 1.87 8.17 8.58 14.27 15.7 18.07 4.13 2.2 7.81-4.08 3.67-6.28-9.46-5.05-19.37-18.72-8.25-27.71 2.61-2.11-.31-5.62-3-5.12-2.42.45-5.52 1.22-7.94.25-3.48-1.41-3.21-5 0-6.72 4.08-2.23 9.47-3.1 14-3.7a1.66 1.66 0 0 0 0-3.32Z"
          fill="#272836" class="fill-1a1c3f"></path>
    <path d="M860.91 264.16a163.69 163.69 0 0 1-94.45 107.26 290.87 290.87 0 0 1-39 12.88c-12.21 3.23-26.73 4.51-35.68 14-4.45 4.7-6.45 12-3.08 17.46-5.26-3.87-13.55.24-15.86 6.15s-.53 12.49 1.32 18.56a103.62 103.62 0 0 0 6.1 16.53c4.14 8.26 13.93 16.35 22.44 12.07 1.14 5.38 7.85 7.63 13.55 8.56a150.06 150.06 0 0 0 96.27-16.73c13.82-7.73 26.14-17.61 38.38-27.44 29.62-23.77 60.94-50.13 69.48-86"
          fill="#b0445a" class="fill-3fc091"></path>
    <path d="M859.27 263.71c-9.6 30.38-27 57.87-51.34 78.55-27.54 23.39-61 33.35-95.49 41.43-8.37 2-16.93 4.84-23.12 11.1s-8.42 15.18-4.25 23l5.7-5.69c-6.48-4-14.68-1.52-19.34 4.14-6.37 7.73-3.43 18.4-.72 27 2.57 8.16 5.18 16.36 11.09 22.79 6.09 6.64 14.35 10.14 23 6.48l-6-2.43c2.31 7.67 10 10.35 17.23 11.51a150.52 150.52 0 0 0 29.38 1.78 155.56 155.56 0 0 0 56.89-13.07c19-8.36 35.27-21.25 51.32-34.17 14.27-11.49 28.64-23.2 40.87-36.9 13.15-14.72 24.13-31.69 28.82-51.05.92-3.8-4.9-5.42-5.87-1.62-8.2 32.44-34.44 55.67-59.34 76.11-14.22 11.67-28.52 23.62-44.39 33a145.43 145.43 0 0 1-80.35 19.67 124.74 124.74 0 0 1-16-1.64c-3.71-.65-9.47-1.57-10.72-5.75-.82-2.75-3.54-3.44-6-2.42-5.74 2.43-11.58-3-14.72-7.25s-4.71-9.09-6.28-14c-1.76-5.45-4.33-11.62-3.79-17.45.46-4.9 5.48-10.78 10.7-7.52 3.68 2.29 7.55-2.16 5.69-5.7-4.54-8.58 5.26-15.83 12.07-18.85 7.2-3.19 15.13-4.41 22.7-6.4 17.4-4.58 34.76-10.32 50.82-18.52a166.39 166.39 0 0 0 65.23-59.57 160.48 160.48 0 0 0 19.47-45.68 1.7 1.7 0 0 0-3.28-.9Z"
          fill="#272836" class="fill-1a1c3f"></path>
    <path d="M558.67 911.4V497.29c0-8.62-2.34-22.65 9.09-25 3.22-.67 6.92-.24 10.18-.24h226.75c3.39 0 7.64-.53 10.9.6 6.16 2.13 7.8 7.69 7.8 13.43V911.4c0 8.18 12.71 8.2 12.71 0V484.62c-.11-11.19-6.63-21.36-17.78-24.43-4.33-1.19-9-.87-13.45-.87H576.65c-5 0-10-.28-14.82 1.5-10.24 3.79-15.78 13.39-15.87 24-.08 9.5 0 19 0 28.5V911.4c0 8.18 12.71 8.2 12.71 0Z"
          fill="#81c4e6" class="fill-22906c"></path>
    <path d="M552.31 587.32H828.4c8.18 0 8.19-12.71 0-12.71H552.31c-8.18 0-8.19 12.71 0 12.71ZM552.31 749.16H828.4c8.18 0 8.19-12.71 0-12.71H552.31c-8.18 0-8.19 12.71 0 12.71Z"
          fill="#81c4e6" class="fill-22906c"></path>
    <path d="M614.85 478.38h152.36c16.35 0 16.38-25.42 0-25.42H614.85c-16.36 0-16.39 25.42 0 25.42Z" fill="#272836"
          class="fill-1a1c3f"></path>
    <path d="M636.55 397.06c2.88-11 13.16-15.05 23.56-15.88s20.45.12 26.58 9.46a1.26 1.26 0 0 0 2.3-1c-3.33-12.64-20.24-12.9-30.51-11.7-10.55 1.23-22.91 6.73-23.64 18.85a.88.88 0 0 0 1.71.24Z"
          fill="#96e1ff" class="fill-acfddf"></path>
    <path d="M660.23 373.49c1 1.72.59 4.77.64 6.7.07 2.23.18 4.47.33 6.69.08 1.23 1.95 1.25 1.92 0-.08-3.09-.25-6.18-.45-9.26-.12-1.84 0-3.59-1.19-5.09-.56-.72-1.71.2-1.25 1ZM670.11 372.56a30.59 30.59 0 0 1-.08 9.55c-.19 1.23 1.61 1.81 1.93.53a21.23 21.23 0 0 0-.25-10.53c-.28-1.05-1.78-.59-1.6.45ZM628.76 391.84c1.34.78 2.86 1.23 4.25 1.9a35 35 0 0 1 4.08 2.34c1.25.83 2.46-1.22 1.18-2-2.65-1.65-5.93-3.53-9.1-3.74a.81.81 0 0 0-.41 1.51ZM634.08 400.2c1.67-.13 3.34-.23 5-.44 1.28-.17 1.37-2.15 0-2.08-1.67.1-3.33.31-5 .48-1.28.14-1.32 2.14 0 2ZM686.63 385.4l-2.34 3.6c-.81 1.24 1.21 2.42 2 1.16l2.24-3.64c.74-1.21-1.12-2.28-1.88-1.1ZM841.65 424.15C841.58 414 844.84 404 852.46 397c8.54-7.83 22.93-11.14 29.75.56l.89-2.19-1.72.33c-1.47.28-1 2.38.33 2.47l1.79.13a1.51 1.51 0 0 0 1.29-2.24c-5.72-12.4-21.94-10.82-31.23-3.86A34.73 34.73 0 0 0 840 424.37c.14 1 1.68.71 1.67-.22Z"
          fill="#96e1ff" class="fill-acfddf"></path>
    <path d="M846.75 388.73c2.86 3.17 5.66 6.43 8.66 9.47 1 1 2.43-.5 1.52-1.52-2.85-3.18-5.93-6.16-8.92-9.21-.81-.82-2 .41-1.26 1.26ZM855.16 385.46a50 50 0 0 1 5.07 9.42c.53 1.28 2.64.72 2.11-.58a42.46 42.46 0 0 0-5.65-9.74c-.68-.88-2.2-.06-1.53.9ZM837.51 424.49l3.78-1.49 1.75-.69.87-.34c.43 0 .55-.2.36-.59-.42 1.36 1.61 1.86 2.11.58.6-1.58-1-2.67-2.44-2.32a19.54 19.54 0 0 0-3.15 1.38l-4 1.82c-.92.42-.26 2 .7 1.65ZM839.53 429.24a11.87 11.87 0 0 0 9.49-4.68c.74-1-.89-2.21-1.68-1.3a10.69 10.69 0 0 1-7.81 3.94 1 1 0 0 0 0 2ZM881.65 384.34a42.11 42.11 0 0 1-5 11.5c-.78 1.25 1.23 2.43 2 1.15a43.92 43.92 0 0 0 4.89-12.13 1 1 0 0 0-1.89-.52Z"
          fill="#96e1ff" class="fill-acfddf"></path>
    <path d="M911.17 140.58a133.51 133.51 0 0 1-10.93 8.14c-2.54 1.78-.18 6 2.47 4.22a52.39 52.39 0 0 0 10.86-9.94 1.7 1.7 0 0 0-2.4-2.41ZM917.75 146.85a58 58 0 0 1-6.58 4.67c-2.12 1.26-4.66 2-6.5 3.6-1.4 1.23-.35 4.07 1.59 3.86 2.81-.3 5.32-2.14 7.56-3.77a31.67 31.67 0 0 0 6.33-6 1.7 1.7 0 0 0-2.4-2.4ZM923.49 155.32c-1.52 1.17-3 2.46-4.58 3.48a30.66 30.66 0 0 1-5.35 2.42c-2.86 1.12-1.76 5.68 1.3 4.72a20 20 0 0 0 10.85-8.39c.74-1.3-.86-3.27-2.22-2.23ZM926.75 165.83a48.22 48.22 0 0 1-5.59 3.8c-1.88 1.09-4 1.71-5.86 2.82a2.54 2.54 0 0 0 2 4.61c4.77-1.19 9.19-5.46 12-9.26 1.21-1.6-1.24-3-2.55-2ZM930.89 176.33c-5.09 2.6-10.54 4.69-15.53 7.45-2.46 1.37-.81 5.5 1.94 4.61 5.68-1.84 11.08-5.63 15.65-9.39 1.56-1.29-.42-3.51-2.06-2.67ZM931.64 188.64c-7.16 2.41-14.43 4.45-21.77 6.25-3.52.87-2 6.3 1.5 5.44a86 86 0 0 0 21.63-8.58c1.66-.92.55-3.73-1.31-3.11Z"
          fill="#272836" class="fill-1a1c3f"></path>
    <path d="M703.47 422c-18.22-5.83-39.64-7.66-55.17 3.5a21.3 21.3 0 0 0-6.91 7.53 25.63 25.63 0 0 0-2.16 9.69 98.42 98.42 0 0 0 0 14.87c.47 6 2.1 12.94 7.52 15.69a5.5 5.5 0 0 0 4.62.42c2-.91 2.8-3.3 3.34-5.44q2-7.84 3.37-15.81c-1.39 5-2.78 10.36-1.22 15.32s7.37 8.93 12 6.6c3.71-1.85 4.91-6.56 5-10.7s-.58-8.49 1.07-12.29l-1.18 19.85a6.37 6.37 0 0 0 .67 4.06 5.48 5.48 0 0 0 3.51 1.85 20.28 20.28 0 0 0 18.46-5.88c1.42-1.51 2.66-3.5 2.29-5.54s-3.19-3.5-4.64-2c13.32-.56 25.1-12.68 25.29-26 .08-5.83-2.57-12.42-8.16-14.11"
          fill="#96e1ff" class="fill-acfddf"></path>
    <path d="M698.69 465.67a3.38 3.38 0 0 0-1.87-2.3c12.14-2 22.35-13.33 22.52-25.73.08-5.83-2.57-12.42-8.16-14.11l-7.71-1.53a91.68 91.68 0 0 0-26.28-4.63 41.53 41.53 0 0 0-13.48 6.31 21.42 21.42 0 0 0-6.91 7.54 25.58 25.58 0 0 0-2.16 9.68 98.55 98.55 0 0 0 0 14.88 35 35 0 0 0 1.29 7.34c.1-.4.18-.8.27-1.2v2c1.13 3.22 3 6 6 7.54a5.46 5.46 0 0 0 4.62.42c2-.9 2.8-3.3 3.34-5.43s1-4.23 1.49-6.35a16.61 16.61 0 0 0 .66 5.86 10.47 10.47 0 0 0 1 2.21 19.2 19.2 0 0 0 .57-4.5c0-4.15-.58-8.49 1.07-12.29L673.89 469c2.47 3.32 6.8 5.33 10.42 3.52s4.91-6.57 5-10.71-.58-8.48 1.07-12.28q-.58 9.92-1.18 19.85a6.34 6.34 0 0 0 .67 4.05 4.09 4.09 0 0 0 1.92 1.4 19.57 19.57 0 0 0 4.64-3.61c1.39-1.52 2.63-3.51 2.26-5.55Z"
          fill="#b0445a" class="fill-3fc091"></path>
    <path d="M703.92 420.31c-12.36-4.48-26.69-7.55-39.83-5.1-12 2.25-25.47 9.29-27.74 22.39a75.89 75.89 0 0 0-.12 22.57c.68 5.06 2.24 10.39 6.17 13.91 3.57 3.2 9.33 4.53 12.72.42 2.09-2.53 2.43-6 3-9.07.83-4.11 1.58-8.23 2.42-12.34.66-3.24-4-4.59-5-1.38-2.75 9.18-4.1 24.8 9.27 26.19 14.72 1.53 10.27-17.82 13-25.74l-6.1-.83c-.33 5.3-.7 10.59-1.06 15.88-.2 3.05-1 6.91.82 9.69 3.33 5.11 12.25 4.4 17.21 2.82 5.47-1.74 12.61-6.24 13.23-12.53.51-5.23-5-9.28-9.67-6.41-2.65 1.64-1.77 6.47 1.69 6.22a31.17 31.17 0 0 0 26.36-18.76c4.22-9.85 3-23.71-8.35-27.89-4-1.48-5.64 4.83-1.75 6.37 8.25 3.27 6 15.7 2.55 21.57a24 24 0 0 1-18.81 12l1.68 6.22c-1.32.82-2.8 3.54-4.31 4.58a17.24 17.24 0 0 1-4.39 2.16c-2.3.74-7.16 1.83-9.12 0s-.63-7.25-.49-10q.32-6 .62-11.91c.21-3.65-5-4-6.1-.83a27.66 27.66 0 0 0-1.19 9.53c0 3.59.7 8.64-2.68 11-3.75 2.59-7.53-1.29-8.58-4.9-1.23-4.23.08-8.89 1.1-13l-5-1.38c-.41 2.68-.91 5.31-1.53 7.94-.53 2.23-.78 6-2.08 7.81l-.42 1.28-4.64.8c-.71-.27-1.49-1.65-1.85-2.25a17.92 17.92 0 0 1-2.05-6 67.6 67.6 0 0 1-.55-15.83c.3-5.82 1-11 5.45-15.16 14.37-13.56 37.6-11.32 55.07-6.7 2.15.57 2.94-2.54.91-3.28ZM537.59 292.64c5.87-12.59 12.92-24.76 27.45-28 3.33-.75 2.68-6.32-.82-6-17.22 1.36-24.46 18.72-30 32.65-.77 1.93 2.5 3.32 3.38 1.43ZM727.35 417.51a42.21 42.21 0 0 1 7 19.34c.6 6.26.28 14.4-4.62 18.91-2.59 2.39.72 6.42 3.69 4.78 7-3.86 7.19-15.18 6.52-22.12a40.56 40.56 0 0 0-10-22.92c-1.22-1.42-3.66.44-2.61 2ZM678.53 322.82c-.35-3-2.15-4.56-4.52-6.27-2.75-2-5.7-4.56-9-5.59-3.74-1.19-5.63 4.09-2.57 6.1 1.92 1.26 4.3 1.83 6.39 2.79 1.58.73 5.24 1.74 6 3.47s4 1.82 3.71-.5Z"
          fill="#272836" class="fill-1a1c3f"></path>
    <path d="M878.35 240.1c15.83 11.9 26.32 30.25 27.32 50.16 1.08 21.16-7.93 39.72-22.24 54.82-13.84 14.61-30.53 27.26-46.61 39.28-16.49 12.32-34.35 22.14-53.12 30.52-5.7 2.55-11.45 5-17.22 7.36l-8.4 3.43c-.73.3-2.77 1.42-3.37 1.36-1.29-.13-.41 0-1.72-1.13-2-1.67-3.57-3.63-6.52-2.85-1.58.41-4.73 5.58-4.62 5.6a1.25 1.25 0 0 0-.66 2.4 2.51 2.51 0 0 0 3.1-.91c.56-.61.66-1.45 1.12-2.1 2.69-3.8 5-1.35 6.82 1.64a1.35 1.35 0 0 0 1.51.61C772 422.8 790.39 415.38 807.8 406c17.91-9.69 34-21.95 49.84-34.69 13.82-11.14 28.17-22.36 38.31-37.15a69.84 69.84 0 0 0 11.87-49.34 68.37 68.37 0 0 0-28.65-46.09c-.87-.61-1.64.79-.82 1.41ZM537.76 301.06a371.93 371.93 0 0 0 50.12 47.79 213.07 213.07 0 0 0 26.17 17.71c8.45 4.79 19.16 11.53 29.22 10.77l-.91-2.19a4.64 4.64 0 0 0 .45 6.71c4.18 3.81 10-1.28 14.59.66 1.52.64 2.85-1.57 1.31-2.24a9.55 9.55 0 0 0-4.56-.89c-.65 0-13.77 2.6-9.77-2.69a1.29 1.29 0 0 0-1.11-1.93c-6.37.67-12.37-2.43-18-5.09q-6.66-3.18-13-6.93A223.71 223.71 0 0 1 585.43 344c-16.63-13.42-31.95-28.44-46.47-44.1-.75-.8-1.92.39-1.2 1.21ZM688.84 382c2.48.95 4.47-.24 6.18-2.11 2.39-2.63 5-3.5 8.51-3.38a11.12 11.12 0 0 0 4.28-.38c7.23-2.31 13.3-11 17-17.24.94-1.56-1.38-2.83-2.4-1.4-4.25 6-11.28 17.14-19.72 15.65-2-.36-3.64-1-5.62.08-3.07 1.7-3.63 6.95-7.93 6.56-1.36-.12-1.41 1.8-.3 2.22Z"
          fill="#96e1ff" class="fill-acfddf"></path>
    <path d="m305 806.69-37.45-33c-2.81-2.48-5.74-5-9.32-6.12-7.8-2.37-16 3-20.88 9.49a41.38 41.38 0 0 0 30.32 66"
          fill="#272836" class="fill-1a1c3f"></path>
    <path d="M306.42 805.23q-11.58-11-23.14-22c-6.28-6-12.51-13.67-20.13-18-14.26-8-28.48 5-34 17.51-12.57 28.36 6.9 62.63 38.51 64.09 5.14.24 4.81-7.16 0-7.79-25.35-3.35-41.86-29.53-30.61-53.44 2.49-5.29 6.37-10.49 11.76-13.08 7.86-3.75 13.26 1.63 19.06 6.38q17.84 14.58 35.65 29.2c2 1.66 4.91-1.06 2.94-2.93Z"
          fill="#272836" class="fill-1a1c3f"></path>
    <path d="M62.22 867.82a56.46 56.46 0 0 0 1.39 20.55c.67 2.61 1.53 5.22 1.46 7.91-.15 5.3-3.85 10.81-1.42 15.52 1.89 3.67 6.58 4.76 10.7 5.06a67.52 67.52 0 0 0 28.51-4.14c3.18-1.2 6.42-2.76 8.37-5.54 2.82-4 2.19-9.48 1.21-14.31-1.07-5.26-2.42-10.45-3.76-15.65-1.13-4.35-2.41-9-5.73-12"
          fill="#96e1ff" class="fill-acfddf"></path>
    <path d="M60.37 867.31A63.3 63.3 0 0 0 61 889.1c.81 3.93 1.16 7.15 0 11.09-.84 3-1.86 6-1.56 9.15 1.29 13.6 21 11.85 30.34 10.49 11.52-1.67 26.73-5.48 27.28-19.51.27-6.89-2.06-14.07-3.7-20.68-1.54-6.15-2.89-12.65-7.78-17.07-3.61-3.28-8.4 1.64-5.3 5.3 3.3 3.89 4.21 9.07 5.47 13.87a133.63 133.63 0 0 1 3.38 14.6c.85 6-.68 9.91-6.37 12.41A58.09 58.09 0 0 1 86.55 913c-4.93.6-10.6 1.1-15.45-.15-7.23-1.85-3.93-8.13-3.22-13.35.62-4.57-.68-8.4-1.89-12.74a57.2 57.2 0 0 1-1.84-18.92c.13-2.13-3.48-2.67-3.78-.51Z"
          fill="#272836" class="fill-1a1c3f"></path>
    <path d="M147.12 651.13a116.11 116.11 0 0 0-74.27 37.36c-12.7 14.07-21.72 31-29.81 48.17-9.95 21.09-18.86 43.58-18 66.88.87 22.86 11.05 44.19 21 64.77 2.45 5.05 5.1 10.33 9.75 13.46C62.19 886 70.67 885.25 78 883c9.78-3 19.38-9 23.21-18.52s1.12-20.37-1.66-30.3l-8.67-31c-1.81-6.47-3.53-13.78-.15-19.58 2-3.45 5.73-7.55 3.21-10.65"
          fill="#ffffff" class="fill-ffffff"></path>
    <path d="M147.12 649.32c-28.55-.16-57.82 16.11-76.64 36.8-10.77 11.84-19.05 25.72-26.18 40-7.3 14.65-14.3 29.8-18.68 45.67-4.3 15.69-5.35 31.81-2.08 47.81 3.33 16.27 10.36 31.54 17.53 46.4 3 6.14 5.72 12.86 11 17.36 5.08 4.28 11.81 5.47 18.28 4.8 12.47-1.29 26.3-8 32.49-19.36 8.6-15.79-.44-35.28-4.89-50.94-1.3-4.56-2.56-9.13-3.83-13.69-1.2-4.3-2.75-8.88-2.38-13.4.59-7.15 9.45-12.19 5.18-19.68-2.27-4-8.49-.36-6.15 3.6 1.24 2.09-2.78 6.67-3.6 8.58a19.29 19.29 0 0 0-1.48 7.5c0 6.64 2.29 13.2 4.06 19.52q2.92 10.49 5.74 21c1.95 7.32 4.23 14.76 4.2 22.39-.06 14.77-12.46 23.51-25.7 26.65-6.13 1.46-13.15 1.58-18-3-5.14-4.84-7.82-12.76-10.79-19-6.32-13.31-12.21-27-15.07-41.51-2.89-14.76-1.57-29.65 2.47-44.06 4-14.15 10.07-27.62 16.52-40.78 6.37-13 13.4-25.87 22.61-37.11a116.16 116.16 0 0 1 34.19-28.2c13.16-7.18 27.12-10.7 41.66-13.82 2-.44 1.53-3.55-.48-3.56ZM334.12 848.67l16.2 26.08a133.31 133.31 0 0 1 18.13-8.14c4-1.43 8.67-2.59 12.13-.18a10.55 10.55 0 0 1 3.75 6c3.2 11.82-4.39 23.82-13 32.55a116.07 116.07 0 0 1-36 24.83c-3.7 1.62-7.61 3.07-11.63 2.87a26.85 26.85 0 0 1-9.34-2.69 145.64 145.64 0 0 1-61-50.41"
          fill="#272836" class="fill-1a1c3f"></path>
    <path d="M332.55 849.59c4.61 9.11 10 17.89 15 26.75a3.22 3.22 0 0 0 4.32 1.13 136.35 136.35 0 0 1 14-6.4c3.43-1.31 10-4.58 13.31-1.29s2.61 10 1.53 14a35.29 35.29 0 0 1-5.23 10.64c-9.62 14-25.39 24.54-40.77 31.18-4.17 1.8-8.57 3.49-13.15 2.44-4.32-1-8.33-3.35-12.15-5.52a203.77 203.77 0 0 1-20.29-12.88 142.44 142.44 0 0 1-18.26-16.1c-5.31-5.55-9.48-12.8-15.56-17.43-2.88-2.19-6.9 1.43-5.94 4.57 2.13 7 8.57 13.32 13.46 18.64a147.07 147.07 0 0 0 17.67 16.26A116.74 116.74 0 0 0 301.07 929c6.62 3.21 14.37 7.47 21.8 8 8 .57 16-4 22.82-7.77a127.13 127.13 0 0 0 20.18-14.13c11.32-9.59 24.22-23.43 22.52-39.53-.78-7.29-4.88-14-12.91-13.87-9 .1-19.07 6.17-26.76 10.34l4.32 1.14c-5.71-8.5-11.21-17.21-17.36-25.4a1.81 1.81 0 0 0-3.13 1.83Z"
          fill="#272836" class="fill-1a1c3f"></path>
    <path d="M277.54 577.27a77.44 77.44 0 0 1-8.28-16.4c-1.63-4.5-2.86-9.31-2.16-14s3.71-9.38 8.27-10.84a33.92 33.92 0 0 1 1.78 8.09c-.91-5.33-1.82-10.72-1.53-16.12s1.87-10.89 5.41-15a8 8 0 0 1 3.64-2.6 3.76 3.76 0 0 1 4.08 1.22 5.63 5.63 0 0 1 .59 3.59 99.27 99.27 0 0 1-1.57 12.38c1.51-2.86 4.34-5.36 7.57-5.2s6 4.12 4.18 6.8c.79-2.91 4.06-4.4 7.05-4.79 2.4-.32 5-.13 6.95 1.31 2.91 2.16 3.37 6.26 3.59 9.88.1 1.72.15 3.6-.9 5s-3.66 1.46-4.2-.17a45.79 45.79 0 0 1-1.51 25.89c-.58 1.61-1.59 3.44-3.3 3.54"
          fill="#ffffff" class="fill-ffffff"></path>
    <path d="M311 542.77c-.22-3.62-.68-7.72-3.59-9.88-1.94-1.44-4.55-1.63-6.95-1.32-2.56.34-5.31 1.48-6.55 3.62.54-2.53-1.89-5.49-4.68-5.62-3.23-.16-6.06 2.34-7.56 5.2a99.17 99.17 0 0 0 1.56-12.39 5.64 5.64 0 0 0-.59-3.59 3.75 3.75 0 0 0-4.07-1.22c-.18 0-.36.12-.53.18a28.11 28.11 0 0 0-2.37 10.2 57.74 57.74 0 0 0 .81 11.73 36.34 36.34 0 0 0-1.06-3.7 11.33 11.33 0 0 0-5.83 4.56c.15 2.12.41 4.23.73 6.34a31.68 31.68 0 0 0-1.06-3.69 10 10 0 0 0-1.31.53 16.06 16.06 0 0 0-.8 3.1c-.7 4.74.53 9.55 2.16 14a77 77 0 0 0 8.29 16.4l27.81-7a45.77 45.77 0 0 0 .49-22.69c.54 1.63 3.14 1.52 4.2.17s.95-3.22.9-4.93Z"
          fill="#96e1ff" class="fill-acfddf"></path>
    <path d="M279.08 576.37c-4.93-8.42-17.11-31.86-3-37.68l-3.45-2a46.56 46.56 0 0 1 1.88 8l5.21-1.43c-1.53-7.38-2.71-15.39-.11-22.68a17.52 17.52 0 0 1 3.29-5.81l1.73-1.56c1.74-.15 2.39.48 1.94 1.88.95 2.85-1 8.9-1.58 11.62a2.87 2.87 0 0 0 5.22 2.21 7.91 7.91 0 0 1 2.85-2.81q3.35-1.5 3.55 1.27l6.1 2.57c1.61-3.88 8.44-2.8 10 .1s.4 5.86 2.2 8.49a3.41 3.41 0 0 0-6.2 2.61 41.92 41.92 0 0 1 .67 13c-.23 2.06-1.22 11-3.26 11.71-4.79 1.56-2.77 9.1 2.09 7.59 5.89-1.84 7.09-8.54 7.92-14a53.57 53.57 0 0 0-.88-20.18l-6.19 2.61c2.38 3.33 7 3.92 9.76.5 2.92-3.62 1.83-10.64.26-14.64-3.88-9.87-19-8.93-22.8.36-1.44 3.46 4.55 6 6.1 2.57a8.06 8.06 0 0 0-4.63-11.23c-5.35-2-10.14 2-12.47 6.51l5.22 2.2c.76-4.88 3-12.28 1.06-17-1.79-4.3-6.74-4.6-10.25-2.21-10.94 7.44-8.33 24-6.89 35 .44 3.35 5.71 3.51 5.4 0a42.15 42.15 0 0 0-1.77-8.83c-.43-1.34-2-2.53-3.46-2-19.83 7.73-6.92 33.29 1.39 44.88 1.31 1.82 4.25.22 3.07-1.79Z"
          fill="#272836" class="fill-1a1c3f"></path>
    <path d="M93.32 809.6c1.17 11.31-1.91 22.56-4.62 33.6s-5.08 22.29-4.7 33.66 3.58 23 11 31.58c9.16 10.64 23.32 15.42 37 18.52a237.11 237.11 0 0 0 91.44 2.48 123.61 123.61 0 0 0 20.72-5.08 136 136 0 0 0 19.31-9c31.43-17.11 60.35-23.79 85.54-49.2 11.56-11.66 20.61-28 18.94-44.95-1.63-16.45-14.44-31.32-30.24-36-20.06-5.86-40 7.72-57.3 15.92a255.49 255.49 0 0 1-98.31 24.19"
          fill="#b0445a" class="fill-3fc091"></path>
    <path d="M91.43 809.6c.28 12.79-4 25-7 37.33-2.76 11.32-5 23.1-3.77 34.8C82.72 902 94.11 917.26 112.93 925c20.85 8.58 45.15 11 67.5 11.22 23 .25 48.11-1.72 69.51-10.69 9.92-4.16 19.14-9.78 28.82-14.44 9.2-4.43 18.58-8.47 27.8-12.86 18.49-8.82 36.94-19.7 50-35.82 12-14.83 19.56-34.42 12.07-53.09-6.68-16.66-23.27-29.34-41.53-29.2-11.52.09-22.41 4.71-32.59 9.7-11.39 5.59-22.53 11.36-34.45 15.8a253.26 253.26 0 0 1-78 15.6c-5.33.22-5.35 8.58 0 8.31A268.34 268.34 0 0 0 244 819.11c19.68-5.78 37.5-14.59 55.86-23.5 9.18-4.46 19.27-8.6 29.68-8 8.93.51 17.3 4.88 23.55 11.16 14.29 14.38 13.84 34.92 4 51.73-19.86 34-62.77 44.73-95.32 62.12-9.52 5.09-19.1 9.39-29.68 11.78a204.18 204.18 0 0 1-33.5 4.48 235.66 235.66 0 0 1-67.23-5.8c-10.39-2.45-21.23-5.82-29.5-12.86s-12.82-17.64-14-28.48c-2.69-24.77 10.78-48 7.23-72.63-.31-2.12-3.75-1.59-3.71.5Z"
          fill="#272836" class="fill-1a1c3f"></path>
    <path d="M191.86 521.81c9.86 4.59 15.91 10.19 19 16.4a103.32 103.32 0 0 0 6.33 11.79 20.33 20.33 0 0 0 5.06 5.4c1.87 1.32 3.65 2.78 5.6 3.94 3.1 1.84 2 5.65 2.1 8.59.12 3.61 1.85 6.11 3.12 9.46 2.49 6.59 6.31 13.18 6.56 20.38a16.94 16.94 0 0 1-1.07 6.61c-3.74 9.78-16.46 13.49-20.88 23-3.53 7.57-1 17.21-5.5 24.22-4.22 6.51-12.91 8.21-20.65 8.78-8.7.64-17.65.56-25.84-2.42-2.8-1-5.63-2.51-7.15-5.08-3.66-6.2 2.19-13.63 2.76-20.81.74-9.32-7.35-16.57-13.49-23.63A72.24 72.24 0 0 1 132.68 580c-6.22-23 1.2-49.36 24.9-58.83a44.63 44.63 0 0 1 34.28.62"
          fill="#ffffff" class="fill-ffffff"></path>
    <path d="M228.06 610.58a17 17 0 0 0 1.07-6.62c-.25-7.2-4.07-13.79-6.56-20.38-1.27-3.34-3-5.85-3.12-9.46-.1-2.94 1-6.75-2.1-8.59-1.95-1.16-3.73-2.62-5.6-3.93a20.22 20.22 0 0 1-5.06-5.41 103.32 103.32 0 0 1-6.34-11.83c-3.08-6.21-9.13-11.8-19-16.4a44.67 44.67 0 0 0-34.28-.62l-.25.11c-15.08 12.15-19.3 33.49-14.15 52.57a72.24 72.24 0 0 0 15.13 28.44c6.14 7.06 14.23 14.31 13.49 23.63-.57 7.18-6.42 14.61-2.76 20.81 1.52 2.57 4.35 4.06 7.15 5.08 8.19 3 17.14 3.06 25.84 2.42a50.11 50.11 0 0 0 9.29-1.44c.3-.38.59-.77.86-1.19 4.55-7 2-16.64 5.5-24.21 4.43-9.49 17.15-13.21 20.89-22.98Z"
          fill="#96e1ff" class="fill-acfddf"></path>
    <path d="M191 523.25c5.72 3.09 11.32 6.82 15.2 12.16s5.49 11.92 9.42 17.25a25.13 25.13 0 0 0 5.2 5.2c2.47 1.88 6 3.36 6.39 6.58.31 2.41-.22 4.72.42 7.15.87 3.3 2.58 6.51 3.87 9.65 2.63 6.36 6.63 13.69 4.74 20.8-1.45 5.44-6.31 8.94-10.5 12.27-3.79 3-7.74 6.14-10.13 10.45-3.26 5.87-2.75 12.44-3.84 18.84-2.5 14.73-20.73 14.65-32.5 13.95-6.14-.37-18.94-1.53-18.89-9.84 0-5.84 4-11.07 3.84-17.07-.33-12.56-12.76-20.86-19.2-30.38-7.12-10.51-11.61-23.09-11.62-35.86 0-12 4-24.16 12.76-32.61 12.08-11.62 29.79-13.33 44.92-7.23 3.41 1.38 4.89-4.14 1.52-5.5-26.75-10.77-56.56 3.51-63.31 31.78-3 12.38-1.53 25.44 3.05 37.24a75.91 75.91 0 0 0 11.27 19.75c4.73 5.95 11.64 11.31 14.1 18.72s-3.19 13.82-3.42 21.16c-.2 6.52 4.15 10.67 9.87 12.93 7.51 3 15.88 3.39 23.86 3 6.26-.28 12.83-.84 18.58-3.55a19.35 19.35 0 0 0 11-14.12c1.51-7.5.29-15.42 5.74-21.56 4.09-4.6 9.65-7.62 13.73-12.24a20.68 20.68 0 0 0 5.26-16.82c-1.1-8.55-5.9-16-8.73-24-1.19-3.36-.05-6.69-1-10s-3.58-4.52-6.14-6.34c-8-5.65-10.08-14.09-15.6-21.63-4.52-6.19-11.21-10.08-18.14-13-1.91-.81-3.62 1.83-1.68 2.88Z"
          fill="#272836" class="fill-1a1c3f"></path>
    <path d="M209.23 629.92A75.88 75.88 0 0 0 227.7 618c1.71-1.57-.54-4.57-2.51-3.25-5.95 4-11.65 8.34-17.64 12.28a1.67 1.67 0 0 0 1.68 2.88ZM209 555.59a2.26 2.26 0 0 0-.1.45 2 2 0 0 0 0 .49 3.06 3.06 0 0 0 .35 1.28 1.74 1.74 0 0 0 1 .8 1.7 1.7 0 0 0 1.52-.31 1.65 1.65 0 0 0 .65-1.14 1.35 1.35 0 0 0 0-.69 1.64 1.64 0 0 0-.45-.76v-.05l.28.35a1.28 1.28 0 0 1-.15-.25l.17.4a1.29 1.29 0 0 1-.08-.28l.06.44a1.5 1.5 0 0 1 0-.3 1.59 1.59 0 0 0-.47-1.14 1.69 1.69 0 0 0-.94-.45 1.58 1.58 0 0 0-1 .19 1.84 1.84 0 0 0-.74 1ZM205.28 551.41a3.17 3.17 0 0 1 1.9-2.34 1.91 1.91 0 0 0 1.29-2.28 1.87 1.87 0 0 0-2.28-1.29 6.77 6.77 0 0 0-4.33 5 1.81 1.81 0 0 0 1.24 2.18 1.78 1.78 0 0 0 2.18-1.24ZM224.7 580.52c-2.17-.49-5.07-1.61-7.19-.43s-2.36 4.35-1.56 6.41c.86 2.21 3.17 4.55 5.77 3.76s3.28-4.07 3-6.36a2.67 2.67 0 1 0-5.24.71 2.27 2.27 0 0 1-.43 1.62l.94-.94h1.4c-.38 0-.47-.19-.66-.61-.07-.14-.17-.94-.24-1s-1.5.58-.16.53a11.32 11.32 0 0 0 1.16-.09c.92-.1 1.85-.23 2.77-.35a1.7 1.7 0 0 0 1.63-1.45 1.65 1.65 0 0 0-1.19-1.82ZM140.28 529.83c1.44-9.13 9.38-16.16 18.09-19.23s18.19-2.94 27.43-2.76c1.93 0 4 .13 5.47 1.4a7.59 7.59 0 0 1 2 4.17c4.23 18-2.9 37.23-14.46 51.71a4.78 4.78 0 0 0-1.26 2.41c-.07.86.86-3.17 1.26-2.41 1.39 2.62 3.54 7.53 4.92 10.15-1.88-3.54-8.16-3.86-11.46-1.57s-4.66 8.94-3.3 12.71a13.1 13.1 0 0 0 8.7 7.68c2.7.8 6.2 1.39 6.9 4.12a6.44 6.44 0 0 1 .09 2c-.4 6.83-.35 13.69-1.27 20.48-.79 5.84-1.59 11.13-8.48 12.62s-13.37 2.45-17.85-2.36c-3.69-4-8.62-10.31-13.1-13.36s-9.14-5.52-12.91-9.25a42.29 42.29 0 0 1-8-11.86c-5.79-11.93-9-25.81-5.22-38.53 3.34-11.33 11.88-20.6 21.88-26.89"
          fill="#272836" class="fill-1a1c3f"></path>
    <path d="M141.92 530.28c2.35-9.82 11.25-16 20.66-18.26a67.58 67.58 0 0 1 16.73-1.36c2.13 0 5.19-.42 7.23.21 3.92 1.22 4.46 5.36 4.79 8.94.87 9.5-1.26 19-5.17 27.69a73.93 73.93 0 0 1-7 12.14c-1.62 2.29-5.39 5.59-4.5 8.8s4.9 2.72 5.9 0a8.32 8.32 0 0 1 .73-1.83l-3.46 1.4c-1.58-.48-.75-.46-.61.69.11 1 1 2.18 1.43 3 .8 1.71 1.6 3.41 2.46 5.08l5.31-3.1c-3.1-4.45-9-5.69-14-3.55s-6.92 7.41-7 12.38c-.15 6 3.55 11 8.84 13.5 2.18 1 6.61 1.29 7.34 3.66.47 1.53-.2 4.43-.27 6.1-.1 2.49-.18 5-.34 7.46-.24 3.93-.38 8.15-1.56 11.94-1.3 4.19-4.43 5-8.44 5.7-4.16.71-8.41.93-11.64-2.2-2.79-2.7-5.1-5.92-7.8-8.73-5.21-5.4-12.15-8.31-17.55-13.41-6.3-6-10-15-12.29-23.17-2.72-9.67-3-20.19 1.31-29.45 4-8.41 10.76-15 18.47-20 3.64-2.35.26-8.2-3.41-5.83-13.5 8.73-23.82 21.77-25.05 38.24-1.15 15.47 5.38 35.66 17.5 45.88 6.34 5.36 13.43 8.83 19.08 15.08 4.78 5.29 8.54 10.15 16.24 10.33 6 .13 14.23-1.07 17.79-6.53 3.82-5.87 3.5-15 3.78-21.61.17-3.91 1.38-9.17-.12-12.9-1.31-3.25-4.49-4.23-7.57-5.21-4.26-1.36-8.3-3.86-8.13-8.88.06-1.87.6-4.7 2.11-6 1.8-1.57 5.9-1.88 7.41.28a3.08 3.08 0 0 0 5.31-3.1c-1.6-3.11-3.31-10.5-7-11.61a3.13 3.13 0 0 0-3.46 1.41 14.76 14.76 0 0 0-1.34 3.29h5.9c.13.45 5.5-6.5 5.71-6.82a77 77 0 0 0 4.07-7.18 69.83 69.83 0 0 0 5.82-16.14 55.87 55.87 0 0 0 1.19-16.86c-.42-4.56-.85-10.88-5.17-13.54s-11.71-1.52-16.6-1.28c-6.29.3-12.68 1.11-18.57 3.44-9.18 3.64-16.82 10.9-18.38 20.95-.33 2.1 2.76 3.08 3.28.9Z"
          fill="#272836" class="fill-1a1c3f"></path>
    <path d="M114.91 575.69c-.19-7.78-.9-15.9-5-22.5a24.73 24.73 0 0 0-19.54-11.42c-7.59-.34-15 2.93-20.93 7.66s-10.58 10.86-15 17q-8.53 12-16.1 24.64c-1.07 1.78-2.17 3.77-1.85 5.83.3 1.91 1.76 3.41 3.13 4.77 7.82 7.69 15.9 15.57 26.05 19.74a9.83 9.83 0 0 0 5.83.95c5.92-1.33 6.06-10.41 11.14-13.73-1.18 3.25-2.37 6.6-2.29 10.06s1.72 7.11 4.86 8.58c4.66 2.19 10.11-1.29 13.17-5.44 7.74-10.51 7.41-24.72 11.25-37.19 1.06-3.45 3.09-7.3 6.67-7.71"
          fill="#272836" class="fill-1a1c3f"></path>
    <path d="M117.06 575.69c.22-13.69-2.36-27.82-15.83-34.47-13.2-6.5-27.51-.93-37.57 8.61-5.55 5.27-10 11.62-14.38 17.87-4.89 7-9.81 14.16-14 21.62-3.71 6.6-2.15 11 3 16a119.59 119.59 0 0 0 16.3 14c5.18 3.54 13.21 8.75 19.69 5.73 5.78-2.69 5.52-9.92 10.14-13.44l-5.15-4c-2.43 6.83-4.29 15.45 1.9 21 5.46 4.87 13.06 2.4 17.77-2.23 5.53-5.43 8-13.47 9.51-20.83.92-4.41 1.52-8.87 2.46-13.27.84-3.86 1.67-11.22 6.25-12.3 4-1 2.33-7.23-1.71-6.23-11.25 2.81-11.17 21-13.28 30.06-1.45 6.16-3.43 13.14-8.12 17.68-2.68 2.6-7 4.48-9.4.42-2.15-3.67.1-8.85 1.38-12.41 1-2.72-2.72-5.79-5.15-4-4.06 3.08-5.05 7.29-7.83 11.28-3.82 5.62-14.04-2.78-17.82-5.66-2.92-2.27-5.66-4.77-8.34-7.32s-7.17-5.41-6.26-9.53c.68-3.1 4.38-7.3 6.09-10q3.21-5 6.57-10c8.1-11.88 18-27.41 33.83-29A21.76 21.76 0 0 1 106 553c5.15 6.29 6.22 14.86 6.82 22.66.21 2.73 4.25 2.8 4.29 0Z"
          fill="#272836" class="fill-1a1c3f"></path>
    <path d="M112.66 550.7c2.66 4.18 2.85 11.3 3.19 16.08.35 5.05.86 11.13-2.09 15.51-2 3 2.82 5.8 4.87 2.85 4-5.75 3.18-13.62 2.4-20.22-.65-5.5-1.23-13-6-16.59-1.42-1.06-3.27 1-2.37 2.37Z"
          fill="#b0445a" class="fill-3fc091"></path>
    <path d="M84.4 773.41c.3-18.55 3.48-36.94 7.41-55.08 3-13.74 6.47-27.62 13.61-39.73s18.46-22.42 32.23-25.29c2.21-.46 4.77-.93 5.86-2.91a14.62 14.62 0 0 0 .89-3.07c1.37-4.6 6.79-6.42 11.45-7.55a150 150 0 0 1 17.27-3.49c13.12-1.6 26.38.26 39.47 2.12 4.35.61 8.89 1.3 12.47 3.87s5.76 7.63 3.66 11.5c14.44 7.25 29.65 15.19 37.92 29.08a61.51 61.51 0 0 1 6.66 17.82c5.95 26.13 2 53.39-2.29 79.84-.39 2.42-.77 5 .12 7.25.73 1.9 2.26 3.37 3.43 5a15.28 15.28 0 0 1 .06 17c-4 5.79-11.33 8-18.16 9.64A381.24 381.24 0 0 1 130.64 828c-7.37-.72-14.73-1.67-22.13-1.91-7.21-.23-14.62.17-21.42-2.24S74.16 815.24 74.64 808c.64-9.59 12.31-17.19 9.59-26.41"
          fill="#ffffff" class="fill-ffffff"></path>
    <path d="M107.14 679.61c6-9.32 14.34-17.52 24.85-21.53 3.95-1.52 9.29-1.42 12.6-4.22 2-1.67 1.87-3.5 2.89-5.68 1.23-2.65 4.06-3.67 6.68-4.46a107.57 107.57 0 0 1 37.76-4.06c5.46.36 38.33 1.23 33.65 12.27-.73 1.73-.63 4 1.31 5 10.84 5.46 22.1 11.09 30.59 20 9.94 10.38 13.14 24.93 14.38 38.84s.23 28.07-1.41 42c-.85 7.3-2 14.55-3.09 21.82-.38 2.59-.83 5.25-.24 7.85.67 3 2.6 4.89 4.24 7.31 3.92 5.79 2.14 12.88-3.48 16.72-5.15 3.52-12 4.63-17.93 6a355.85 355.85 0 0 1-42.64 7.14c-29.39 3.05-58.38 1.89-87.71-.94-7.31-.7-14.64-.63-21.94-1.21s-16.72-3-19.07-11.12c-1.76-6.08 3.19-11.63 5.91-16.6 2.4-4.37 3.85-8.83 2.6-13.81-.93-3.73-6.5-2.14-5.72 1.57 1.23 5.85-4 11-6.72 15.61-2.61 4.42-4.32 9.3-3.18 14.47 3 13.79 18.9 16.7 30.7 16.9 15.94.27 31.69 2.56 47.61 3.31a382 382 0 0 0 48.91-.84 405.23 405.23 0 0 0 47.44-6.66c11.41-2.31 27.55-4.14 33-16.24a19.15 19.15 0 0 0-.29-16.08c-1.65-3.35-4.53-5.39-4.47-9.43s1.35-8.35 2-12.34c2.49-15.82 4.44-31.76 3.69-47.81-.75-16.26-3.53-34.21-13.79-47.39-9.14-11.73-22.7-18.75-35.72-25.29l1.31 5a13.08 13.08 0 0 0-3.21-15.08c-5-4.74-12.41-5.27-18.85-6.17-16.34-2.28-32-3.44-48.22.44-5.84 1.4-13.15 2.51-17.56 7-1.82 1.88-1.78 4.23-3 6.21-1.74 2.73-6.84 2.92-9.87 4.09-12 4.66-21.17 14.39-27.43 25.44-1.28 2.25 2.06 4.17 3.45 2Z"
          fill="#272836" class="fill-1a1c3f"></path>
    <path d="M84.4 775.41c2.57 0 2.57-4 0-4s-2.58 4 0 4ZM197.78 650.71a200.65 200.65 0 0 0-59.68-.37c-3.23.48-2.5 6.19.78 5.76a302.4 302.4 0 0 1 58.47-2.27c1.76.11 2.21-2.84.43-3.12ZM150.48 681A575 575 0 0 0 135 800.83c-.06 2.62 4 2.62 4.07 0a614.9 614.9 0 0 1 14.59-119c.47-2.08-2.71-3-3.2-.88Z"
          fill="#272836" class="fill-1a1c3f"></path>
    <path d="M210 652.32a597.57 597.57 0 0 0 80.29.29l2.57 6.49c-10-26.6-20.16-54-19.71-82.4 0-1.91.17-4 1.4-5.43s3.11-1.93 4.91-2.35q14.49-3.42 29.14-6.07a11 11 0 0 1 4.87-.13c2.92.8 4.62 3.74 6 6.41 17.26 33 44.08 72.39 33.92 111.84-9.45 36.69-48.09 50.87-81.5 57.54-11.87 2.37-23.87 4-35.88 5.34"
          fill="#ffffff" class="fill-ffffff"></path>
    <path d="M210 654c29.29 2.6 59.06 4.6 88.46 2.83l-2.94-2.23.05.3.78-3c1.95-2.1 2.12 0 .76-1a8 8 0 0 0-1.92-.7 14.2 14.2 0 0 0-4-1.16c-2.73-.11-4.24 1.64-3.85 4.32l5.9-1.62c-8.46-22.58-16.45-45.26-16.93-69.63-.07-3.41-1-7.8 2.63-9.86 2.13-1.22 6.23-1.47 8.62-2 6.64-1.47 13.33-3.05 20.06-4 4.18-.62 6.17-.59 8.45 3.34 1.28 2.21 2.39 4.55 3.59 6.8 2.87 5.36 5.8 10.68 8.68 16 11 20.36 22.29 42.21 23.69 65.74 1.25 21-6.84 40.48-23.41 53.58s-37.47 19.1-57.7 23.16c-4.68.94-2.7 8.11 2 7.16 20.79-4.23 42.06-10.75 59.11-23.83a68.92 68.92 0 0 0 27.19-58.45c-1.09-26.53-14.2-50.92-26.72-73.68-3.15-5.74-6.34-11.46-9.43-17.24-2.46-4.61-5.3-9.48-11.17-9.62-6.07-.15-12.8 2.12-18.73 3.36q-5.46 1.14-10.9 2.39c-3 .69-6.43 1.13-8.91 3.11-5.2 4.15-3.43 13.59-3.09 19.34a148.07 148.07 0 0 0 2.73 20.75c3.17 15.53 8.79 30.41 14.37 45.2a3.06 3.06 0 0 0 5.9-1.62v-.31l-.78 3c-2 2.1-2.14 0-.77 1a7.84 7.84 0 0 0 1.92.69 14.11 14.11 0 0 0 4 1.16c2.71.11 4.23-1.64 3.84-4.31a3 3 0 0 0-2.94-2.24c-29.44 1.84-59 1.38-88.46-.14-2.21-.11-2.15 3.21 0 3.4ZM262.74 833.77c.46-2.28.47-4.56 1.13-6.82s1.48-4.38 1.06-6.8-3.38-2.54-4.9-1.29c-3.86 3.14-3.19 11.36-1.35 15.44.78 1.72 3.7 1.27 4.06-.53Z"
          fill="#272836" class="fill-1a1c3f"></path>
    <path d="M103.31 870.21a71.77 71.77 0 0 0 20.79 2c2.63-.2 2.71-4.13 0-4.15a140.8 140.8 0 0 1-19.9-1c-2.06-.31-3 2.73-.89 3.2ZM170 874.85a124.55 124.55 0 0 0 22.27.32c3-.2 3-4.94 0-4.66-7.4.68-14.84.89-22.27 1-2.19 0-2.08 3.09 0 3.33Z"
          fill="#96e1ff" class="fill-acfddf"></path>
    <path d="M377.72 868.57c-14 5.35-27 14.81-38.28 24.49-9.86 8.47-23.32 21-16.79 35.38 1.16 2.54 5.26.74 4.47-1.88-4.29-14.17 10.07-25.25 19.69-33.37 10-8.48 21.11-14.61 32.27-21.37 1.66-1 .58-4-1.36-3.25Z"
          fill="#81c4e6" class="fill-22906c"></path>
    <path d="M327.74 912c2.46 5.59 4.74 11.68 8 16.86 1.18 1.89 4.47.7 3.72-1.57-2-6-5.4-11.72-8.46-17.19-1.21-2.17-4.21-.26-3.25 1.9ZM339.28 896.58c1.84 4.85 3.82 9.63 5.84 14.41 1.19 2.84 2.07 7.63 5.07 9 1.56.74 3.84-.91 2.63-2.63-2.17-3.09-3.42-7-5-10.39-1.78-3.94-3.61-7.84-5.53-11.72-.82-1.67-3.71-.49-3 1.28ZM352 886.76c2.66 7.43 5.42 15.87 10 22.33 1.28 1.79 4.77.78 3.86-1.63-2.86-7.55-7.41-14.66-10.86-22-.8-1.69-3.68-.5-3 1.28ZM367.05 876.7a217.9 217.9 0 0 0 8.48 20.36c.78 1.63 3 1.24 3.83 0l.76-1.09c1.4-2-1.59-4-3.26-2.51l-1 .91 3.48.45c-3.39-6.33-6.52-12.77-9.34-19.37-.72-1.69-3.6-.48-3 1.25ZM376.9 871a11.78 11.78 0 0 1 1.4 6.24c-.13 2.9 4.56 2.92 4.51 0a16 16 0 0 0-2.4-8.29 2 2 0 0 0-3.51 2Z"
          fill="#81c4e6" class="fill-22906c"></path>
</svg>