<?xml version="1.0" encoding="utf-8"?>
<!-- Generator: Adobe Illustrator 24.0.1, SVG Export Plug-In . SVG Version: 6.00 Build 0)  -->
<svg version="1.1" id="Layer_1" xmlns="http://www.w3.org/2000/svg" x="0px" y="0px"
     viewBox="0 0 250 250" style="enable-background:new 0 0 250 250;" xml:space="preserve">
<style type="text/css">
	.st0{fill:#29ABE2;}
	.st1{fill:url(#SVGID_1_);}
</style>
    <g>
	<g>
		<g>
			<path class="st0" d="M35.76,208.11l34.29-41.3c17.14,12.95,37.44,22.05,58.08,22.05c18.19,0,25.19-5.95,25.19-13.3
				c0-13.3-11.9-16.1-32.89-24.85l-28.34-11.9c-26.24-9.8-47.93-30.45-47.93-63.35c0-38.85,34.99-70.7,86.77-70.7
				c26.94,0,55.63,9.8,77.67,30.45l-30.09,37.8c-16.44-10.85-29.39-16.45-51.08-16.45c-13.3,0-22.39,4.9-22.39,15.4
				s12.95,14.35,35.69,22.75l26.24,10.85c30.44,11.2,47.93,30.8,47.93,62.3c0,38.5-32.19,72.8-90.97,72.8
				C94.19,240.66,61.3,230.16,35.76,208.11z"/>
		</g>
	</g>
        <g>
		<linearGradient id="SVGID_1_" gradientUnits="userSpaceOnUse" x1="29.8281" y1="86.061" x2="173.2461"
                        y2="140.9642">
			<stop offset="0.0145" style="stop-color:#D437AD"/>
            <stop offset="0.6725" style="stop-color:#7C8EE6"/>
            <stop offset="1" style="stop-color:#55B5FF"/>
		</linearGradient>
            <path class="st1" d="M35.76,208.11l34.29-41.3c17.14,12.95,37.44,22.05,58.08,22.05c18.19,0,25.19-5.95,25.19-13.3
			c0-13.3-11.9-16.1-32.89-24.85l-28.34-11.9c-26.24-9.8-47.93-30.45-47.93-63.35c0-38.85,34.99-70.7,86.77-70.7
			c26.94,0,55.63,9.8,77.67,30.45l-30.09,37.8c-16.44-10.85-29.39-16.45-51.08-16.45c-13.3,0-22.39,4.9-22.39,15.4
			s12.95,14.35,35.69,22.75l26.24,10.85c30.44,11.2,47.93,30.8,47.93,62.3c0,38.5-32.19,72.8-90.97,72.8
			C94.19,240.66,61.3,230.16,35.76,208.11z"/>
	</g>
</g>
</svg>
